SplineFontDB: 3.2
FontName: PrototypeSitakai-Regular
FullName: Prototype Sitakai Regular
FamilyName: Prototype Sitakai
Weight: Book
Copyright: 
Version: 001.001
ItalicAngle: 0
UnderlinePosition: -100
UnderlineWidth: 50
Ascent: 800
Descent: 200
InvalidEm: 0
sfntRevision: 0x00010000
LayerCount: 2
Layer: 0 1 "Back" 1
Layer: 1 1 "Fore" 0
XUID: [1021 569 122123003 10704]
StyleMap: 0x0040
FSType: 0
OS2Version: 4
OS2_WeightWidthSlopeOnly: 0
OS2_UseTypoMetrics: 0
CreationTime: 1680357076
ModificationTime: 1680380596
PfmFamily: 17
TTFWeight: 400
TTFWidth: 5
LineGap: 90
VLineGap: 0
Panose: 2 0 5 3 0 0 0 0 0 0
OS2TypoAscent: 800
OS2TypoAOffset: 0
OS2TypoDescent: -200
OS2TypoDOffset: 0
OS2TypoLinegap: 90
OS2WinAscent: 800
OS2WinAOffset: 0
OS2WinDescent: 160
OS2WinDOffset: 0
HheadAscent: 800
HheadAOffset: 0
HheadDescent: -160
HheadDOffset: 0
OS2SubXSize: 650
OS2SubYSize: 700
OS2SubXOff: 0
OS2SubYOff: 140
OS2SupXSize: 650
OS2SupYSize: 700
OS2SupXOff: 0
OS2SupYOff: 480
OS2StrikeYSize: 49
OS2StrikeYPos: 258
OS2XHeight: 521
OS2Vendor: 'CLGR'
OS2CodePages: 00000001.00000000
OS2UnicodeRanges: 00000023.00000000.00000000.00000000
Lookup: 4 1 1 "'liga' Standard Ligatures in Latin lookup 1" { "'liga' Standard Ligatures in Latin lookup 1-1"  } ['liga' ('DFLT' <'dflt' > 'latn' <'dflt' > ) ]
Lookup: 260 0 0 "'mark' Mark Positioning in Latin lookup 0" { "'mark' Mark Positioning in Latin lookup 0-1"  } ['mark' ('DFLT' <'dflt' > 'latn' <'dflt' > ) ]
MarkAttachClasses: 1
DEI: 91125
TtTable: prep
PUSHW_1
 511
SCANCTRL
PUSHB_1
 4
SCANTYPE
EndTTInstrs
ShortTable: cvt  2
  33
  633
EndShort
ShortTable: maxp 16
  1
  0
  47
  407
  5
  0
  0
  2
  0
  1
  1
  0
  64
  0
  0
  0
EndShort
LangName: 1033 "" "" "" "Calligraphr : Prototype Sitakai Regular : 01-04-2023" "" "Version 001.001" "" "" "" "" "Created with Calligraphr.com" "" "" "" "" "" "Prototype Sitakai" "Regular"
GaspTable: 1 65535 15 1
Encoding: UnicodeBmp
UnicodeInterp: none
NameList: AGL For New Fonts
DisplaySize: -48
AntiAlias: 1

StartChar: .notdef
Encoding: 65536 -1 0
Width: 364
GlyphClass: 1
Flags: W
LayerCount: 2
Fore
SplineSet
33 0 m 1,0,-1
 33 666 l 1,1,-1
 298 666 l 1,2,-1
 298 0 l 1,3,-1
 33 0 l 1,0,-1
66 33 m 1,4,-1
 265 33 l 1,5,-1
 265 633 l 1,6,-1
 66 633 l 1,7,-1
 66 33 l 1,4,-1
EndSplineSet
Validated: 1
EndChar

StartChar: exclam
Encoding: 33 33 5
Width: 382
GlyphClass: 1
Flags: W
LayerCount: 2
Fore
SplineSet
224 702 m 0,0,1
 239 712 239 712 248 710 c 0,2,3
 264 707 264 707 264 697 c 0,4,5
 264 693 264 693 261 687 c 0,6,7
 256 678 256 678 244.5 663.5 c 128,-1,8
 233 649 233 649 230 648 c 0,9,10
 220 644 220 644 194 618 c 2,11,-1
 181 607 l 2,12,13
 179 607 179 607 153 574 c 0,14,15
 152 572 152 572 149 568 c 128,-1,16
 146 564 146 564 144 562 c 2,17,-1
 132 547 l 2,18,19
 122 534 122 534 106 517 c 0,20,21
 105 516 105 516 98.5 508 c 128,-1,22
 92 500 92 500 86.5 495.5 c 128,-1,23
 81 491 81 491 76 491 c 0,24,25
 75 491 75 491 71 493 c 0,26,27
 56 504 56 504 56 511 c 0,28,29
 56 516 56 516 64 529 c 0,30,31
 67 535 67 535 71.5 539 c 128,-1,32
 76 543 76 543 78 548 c 2,33,-1
 83 553 l 2,34,35
 84 553 84 553 89 560 c 0,36,37
 97 576 97 576 129 608 c 0,38,39
 135 614 135 614 153 637 c 0,40,41
 162 650 162 650 187.5 672.5 c 128,-1,42
 213 695 213 695 215 697 c 0,43,44
 216 698 216 698 219 699.5 c 128,-1,45
 222 701 222 701 224 702 c 0,0,1
171 559 m 0,46,47
 176 561 176 561 180 559 c 0,48,49
 193 552 193 552 198 532 c 0,50,51
 204 512 204 512 204 509 c 0,52,53
 204 498 204 498 185 487 c 0,54,55
 172 481 172 481 162 486 c 0,56,57
 150 492 150 492 149 517 c 2,58,-1
 149 527 l 2,59,60
 149 540 149 540 153.5 546 c 128,-1,61
 158 552 158 552 171 559 c 0,46,47
155 346 m 0,62,63
 162 368 162 368 180 368 c 0,64,65
 185 368 185 368 192 363 c 0,66,67
 196 360 196 360 198 356.5 c 128,-1,68
 200 353 200 353 201 348 c 128,-1,69
 202 343 202 343 204 340 c 0,70,71
 207 335 207 335 207 316 c 0,72,73
 207 308 207 308 206 307 c 0,74,75
 204 303 204 303 194 297.5 c 128,-1,76
 184 292 184 292 179 292 c 128,-1,77
 174 292 174 292 166 295.5 c 128,-1,78
 158 299 158 299 157 303 c 0,79,80
 153 317 153 317 153 330 c 0,81,82
 153 338 153 338 155 346 c 0,62,63
154 111 m 2,83,84
 154 110 154 110 150 104 c 2,85,-1
 147 99 l 1,86,-1
 140 92 l 2,87,88
 132 84 132 84 129 78 c 0,89,90
 123 68 123 68 117 68 c 128,-1,91
 111 68 111 68 100 76 c 0,92,93
 91 82 91 82 91 86 c 0,94,95
 90 89 90 89 92.5 97.5 c 128,-1,96
 95 106 95 106 97 108 c 0,97,98
 98 109 98 109 100 120.5 c 128,-1,99
 102 132 102 132 104 133 c 0,100,101
 112 141 112 141 117 141 c 0,102,103
 120 141 120 141 127 148 c 0,104,105
 140 161 140 161 155 180.5 c 128,-1,106
 170 200 170 200 184 215 c 0,107,108
 191 222 191 222 191 224 c 0,109,110
 191 225 191 225 193 225 c 0,111,112
 196 225 196 225 197 228 c 0,113,114
 199 231 199 231 243 275 c 0,115,116
 248 280 248 280 254 284.5 c 128,-1,117
 260 289 260 289 265 294 c 0,118,119
 290 319 290 319 297 324 c 0,120,121
 305 329 305 329 309 328 c 0,122,123
 326 326 326 326 326 315 c 0,124,125
 326 309 326 309 318 299 c 0,126,127
 315 296 315 296 315 293 c 0,128,129
 315 292 315 292 310.5 286 c 128,-1,130
 306 280 306 280 306 279 c 0,131,132
 306 277 306 277 288.5 259.5 c 128,-1,133
 271 242 271 242 270 242 c 0,134,135
 265 238 265 238 259 232 c 0,136,137
 213 186 213 186 206 177 c 0,138,139
 204 174 204 174 199 168.5 c 128,-1,140
 194 163 194 163 192 159 c 0,141,142
 188 152 188 152 177 140 c 128,-1,143
 166 128 166 128 163 123 c 2,144,-1
 154 111 l 2,83,84
EndSplineSet
Validated: 1
EndChar

StartChar: quotedbl
Encoding: 34 34 6
AltUni2: 00201e.ffffffff.0 00201d.ffffffff.0 00201c.ffffffff.0 00201e.ffffffff.0 00201d.ffffffff.0 00201c.ffffffff.0
Width: 369
GlyphClass: 1
Flags: W
LayerCount: 2
Fore
SplineSet
191 701 m 2,0,-1
 199 705 l 2,1,2
 206 705 206 705 212 692 c 128,-1,3
 218 679 218 679 221 677 c 0,4,5
 231 667 231 667 231 662 c 0,6,7
 231 659 231 659 241 651 c 0,8,9
 247 647 247 647 251.5 641 c 128,-1,10
 256 635 256 635 261 626 c 128,-1,11
 266 617 266 617 270 611 c 0,12,13
 281 595 281 595 284.5 592 c 128,-1,14
 288 589 288 589 294 589 c 2,15,-1
 299 589 l 2,16,17
 310 589 310 589 312 587 c 0,18,19
 313 586 313 586 313 583 c 0,20,21
 313 569 313 569 294 554 c 0,22,23
 286 550 286 550 270.5 535.5 c 128,-1,24
 255 521 255 521 248 511 c 0,25,26
 247 509 247 509 242.5 503 c 128,-1,27
 238 497 238 497 237 495 c 0,28,29
 235 491 235 491 234 491 c 0,30,31
 231 491 231 491 226 483 c 0,32,33
 209 459 209 459 206 459 c 0,34,35
 205 459 205 459 194.5 448 c 128,-1,36
 184 437 184 437 184 436 c 2,37,-1
 180 430 l 2,38,39
 175 422 175 422 165 422 c 0,40,41
 156 422 156 422 152 431 c 0,42,43
 151 435 151 435 144.5 442.5 c 128,-1,44
 138 450 138 450 137 452 c 0,45,46
 136 458 136 458 130 465.5 c 128,-1,47
 124 473 124 473 123 478 c 0,48,49
 112 505 112 505 99 518 c 1,50,51
 86 540 86 540 78 548 c 0,52,53
 69 557 69 557 71 562 c 0,54,55
 73 566 73 566 87 581 c 0,56,57
 98 592 98 592 98 594 c 0,58,59
 98 595 98 595 103 600 c 0,60,61
 106 603 106 603 112 613 c 0,62,63
 116 618 116 618 124.5 628 c 128,-1,64
 133 638 133 638 138 645 c 0,65,66
 142 651 142 651 159 670 c 0,67,68
 172 690 172 690 191 701 c 2,0,-1
159 364 m 0,69,70
 161 364 161 364 171.5 367 c 128,-1,71
 182 370 182 370 185 364 c 0,72,73
 189 362 189 362 194 355 c 128,-1,74
 199 348 199 348 199 346 c 128,-1,75
 199 344 199 344 206.5 337 c 128,-1,76
 214 330 214 330 219 327 c 128,-1,77
 224 324 224 324 235 315 c 128,-1,78
 246 306 246 306 249 305 c 0,79,80
 253 303 253 303 261 296 c 128,-1,81
 269 289 269 289 273 287 c 0,82,83
 284 280 284 280 284 271 c 0,84,85
 284 264 284 264 279 262 c 0,86,87
 278 261 278 261 276 258 c 2,88,-1
 274 256 l 2,89,90
 274 254 274 254 269 248.5 c 128,-1,91
 264 243 264 243 264 242 c 0,92,93
 263 240 263 240 253 234 c 0,94,95
 245 229 245 229 241 222 c 0,96,97
 238 216 238 216 234 210.5 c 128,-1,98
 230 205 230 205 226 198 c 0,99,100
 207 168 207 168 202 157 c 0,101,102
 197 147 197 147 184 134 c 0,103,104
 182 132 182 132 175 122 c 128,-1,105
 168 112 168 112 168 110 c 0,106,107
 168 105 168 105 152 106 c 0,108,109
 151 106 151 106 149 109.5 c 128,-1,110
 147 113 147 113 145.5 116.5 c 128,-1,111
 144 120 144 120 143 121 c 0,112,113
 132 138 132 138 120 147 c 0,114,115
 118 148 118 148 114 156 c 0,116,117
 113 158 113 158 104 170 c 0,118,119
 86 188 86 188 63 221 c 0,120,121
 54 232 54 232 56 239 c 0,122,123
 56 242 56 242 66 252 c 0,124,125
 72 260 72 260 88 282.5 c 128,-1,126
 104 305 104 305 109 310 c 0,127,128
 136 337 136 337 144 353 c 0,129,130
 149 365 149 365 159 364 c 0,69,70
EndSplineSet
Validated: 1
EndChar

StartChar: quotesingle
Encoding: 39 39 7
AltUni2: 00201a.ffffffff.0 002019.ffffffff.0 002018.ffffffff.0 00201a.ffffffff.0 002019.ffffffff.0 002018.ffffffff.0
Width: 631
GlyphClass: 1
Flags: W
LayerCount: 2
Fore
SplineSet
503 415 m 4,0,1
 503 419 503 419 501 437.5 c 132,-1,2
 499 456 499 456 499 459 c 4,3,4
 499 467 499 467 496.5 480.5 c 132,-1,5
 494 494 494 494 493 499 c 4,6,7
 491 513 491 513 485 543 c 4,8,9
 481 570 481 570 474 589 c 4,10,11
 469 602 469 602 469 608 c 132,-1,12
 469 614 469 614 457 632 c 4,13,14
 453 638 453 638 444.5 642 c 132,-1,15
 436 646 436 646 422.5 649.5 c 132,-1,16
 409 653 409 653 406 654 c 4,17,18
 397 657 397 657 389 657 c 132,-1,19
 381 657 381 657 364.5 652.5 c 132,-1,20
 348 648 348 648 338 648 c 4,21,22
 334 648 334 648 302 638 c 4,23,24
 301 637 301 637 297 636.5 c 132,-1,25
 293 636 293 636 292 636 c 4,26,27
 288 636 288 636 284.5 634 c 132,-1,28
 281 632 281 632 279 631 c 4,29,30
 238 610 238 610 217 582 c 4,31,32
 215 579 215 579 207 569.5 c 132,-1,33
 199 560 199 560 197 555 c 6,34,-1
 195 551 l 6,35,36
 193 547 193 547 191 545 c 4,37,38
 184 535 184 535 176 517 c 132,-1,39
 168 499 168 499 163 490 c 4,40,41
 142 445 142 445 121 356 c 4,42,43
 113 322 113 322 112 288 c 4,44,45
 112 286 112 286 111.5 264 c 132,-1,46
 111 242 111 242 111 226 c 4,47,48
 111 201 111 201 113 171 c 4,49,50
 115 158 115 158 113 149 c 4,51,52
 112 144 112 144 112 118 c 4,53,54
 112 110 112 110 112 106 c 132,-1,55
 112 102 112 102 111 98.5 c 132,-1,56
 110 95 110 95 109.5 94.5 c 132,-1,57
 109 94 109 94 107 91 c 132,-1,58
 105 88 105 88 103 86 c 4,59,60
 100 82 100 82 97 82 c 4,61,62
 95 82 95 82 92 78 c 132,-1,63
 89 74 89 74 85 77 c 6,64,-1
 82 79 l 6,65,66
 79 81 79 81 78 81 c 4,67,68
 75 82 75 82 69 90 c 132,-1,69
 63 98 63 98 63 101 c 6,70,-1
 60 107 l 6,71,72
 55 120 55 120 55 149 c 4,73,74
 55 153 55 153 57 160 c 132,-1,75
 59 167 59 167 56 174 c 4,76,77
 54 192 54 192 54 244 c 4,78,79
 54 277 54 277 55 283 c 4,80,81
 56 292 56 292 56 304 c 4,82,83
 56 318 56 318 60 336 c 4,84,85
 60 337 60 337 60.5 340 c 132,-1,86
 61 343 61 343 61.5 347 c 132,-1,87
 62 351 62 351 62 354 c 4,88,89
 63 363 63 363 67.5 377 c 132,-1,90
 72 391 72 391 73 399 c 4,91,92
 75 409 75 409 80 424.5 c 132,-1,93
 85 440 85 440 87 449 c 4,94,95
 93 468 93 468 98 479.5 c 132,-1,96
 103 491 103 491 109.5 505.5 c 132,-1,97
 116 520 116 520 122 534 c 4,98,99
 134 564 134 564 144 578 c 6,100,-1
 148 586 l 6,101,102
 148 592 148 592 165 609 c 4,103,104
 166 610 166 610 167 612 c 4,105,106
 169 614 169 614 169 615 c 4,107,108
 169 618 169 618 193 640.5 c 132,-1,109
 217 663 217 663 223 666 c 4,110,111
 228 671 228 671 242.5 678.5 c 132,-1,112
 257 686 257 686 259 685 c 4,113,114
 260 685 260 685 265 688 c 4,115,116
 275 695 275 695 284 695 c 4,117,118
 290 695 290 695 299 698 c 4,119,120
 356 717 356 717 390 717 c 4,121,122
 394 717 394 717 399 716.5 c 132,-1,123
 404 716 404 716 407.5 716 c 132,-1,124
 411 716 411 716 412 716 c 132,-1,125
 413 716 413 716 416.5 715 c 132,-1,126
 420 714 420 714 422 714 c 4,127,128
 429 714 429 714 429 712 c 132,-1,129
 429 710 429 710 432 710 c 4,130,131
 440 710 440 710 457 703 c 4,132,133
 469 700 469 700 482 694 c 132,-1,134
 495 688 495 688 495 686 c 132,-1,135
 495 684 495 684 500 681 c 4,136,137
 509 674 509 674 520.5 656 c 132,-1,138
 532 638 532 638 532 626 c 4,139,140
 532 625 532 625 536 607 c 4,141,142
 543 579 543 579 545 562 c 4,143,144
 545 561 545 561 545.5 558.5 c 132,-1,145
 546 556 546 556 547 552 c 132,-1,146
 548 548 548 548 548 546 c 4,147,148
 555 516 555 516 555 497 c 4,149,150
 555 494 555 494 557 482 c 132,-1,151
 559 470 559 470 559 466 c 4,152,153
 559 450 559 450 563 421 c 132,-1,154
 567 392 567 392 567 377 c 4,155,156
 567 356 567 356 569 348 c 4,157,158
 576 317 576 317 576 228 c 4,159,160
 576 178 576 178 573 162 c 4,161,162
 571 157 571 157 573 149 c 4,163,164
 574 146 574 146 574 141 c 4,165,166
 574 114 574 114 556 108 c 4,167,168
 553 107 553 107 552 104 c 4,169,170
 549 98 549 98 539 107 c 4,171,172
 520 122 520 122 520 129 c 6,173,-1
 520 143 l 6,174,175
 520 156 520 156 521.5 177.5 c 132,-1,176
 523 199 523 199 523 209 c 4,177,178
 523 224 523 224 520 240 c 4,179,180
 519 243 519 243 520 248 c 132,-1,181
 521 253 521 253 521 255 c 4,182,183
 521 268 521 268 516 300 c 132,-1,184
 511 332 511 332 510 345 c 4,185,186
 510 351 510 351 508.5 363.5 c 132,-1,187
 507 376 507 376 507 380 c 4,188,189
 508 382 508 382 507 385.5 c 132,-1,190
 506 389 506 389 505 395 c 132,-1,191
 504 401 504 401 504 402 c 4,192,193
 504 404 504 404 503.5 409 c 132,-1,194
 503 414 503 414 503 415 c 4,0,1
EndSplineSet
Validated: 1
EndChar

StartChar: comma
Encoding: 44 44 8
Width: 638
GlyphClass: 1
Flags: W
LayerCount: 2
Fore
SplineSet
217 146 m 0,0,1
 221 146 221 146 231 144 c 128,-1,2
 241 142 241 142 248 142 c 0,3,4
 257 142 257 142 268 141 c 128,-1,5
 279 140 279 140 287 140 c 2,6,-1
 300 140 l 2,7,8
 303 140 303 140 306.5 140.5 c 128,-1,9
 310 141 310 141 312.5 141 c 128,-1,10
 315 141 315 141 317 141.5 c 128,-1,11
 319 142 319 142 320 142 c 2,12,-1
 322 142 l 1,13,-1
 324 142 l 2,14,15
 326 143 326 143 330 144 c 128,-1,16
 334 145 334 145 337 145 c 0,17,18
 373 150 373 150 391 161 c 0,19,20
 395 164 395 164 398 164 c 0,21,22
 399 164 399 164 401 166 c 0,23,24
 401 167 401 167 411 171 c 0,25,26
 417 173 417 173 424 179.5 c 128,-1,27
 431 186 431 186 434 188 c 0,28,29
 441 192 441 192 445.5 197.5 c 128,-1,30
 450 203 450 203 455.5 210 c 128,-1,31
 461 217 461 217 466 222 c 2,32,-1
 479 235 l 2,33,34
 497 253 497 253 508 281 c 0,35,36
 520 316 520 316 525 342 c 0,37,38
 526 352 526 352 532 372.5 c 128,-1,39
 538 393 538 393 538 405 c 0,40,41
 538 412 538 412 539 426 c 128,-1,42
 540 440 540 440 540 447 c 128,-1,43
 540 454 540 454 538 464 c 0,44,45
 527 516 527 516 526 518 c 2,46,-1
 509 552 l 2,47,48
 507 554 507 554 500 567 c 128,-1,49
 493 580 493 580 491 582 c 0,50,51
 487 586 487 586 487 587 c 0,52,53
 487 589 487 589 480.5 596.5 c 128,-1,54
 474 604 474 604 470 607 c 2,55,-1
 463 612 l 2,56,57
 463 614 463 614 457 617 c 128,-1,58
 451 620 451 620 444 623 c 128,-1,59
 437 626 437 626 436 627 c 0,60,61
 431 630 431 630 410.5 636 c 128,-1,62
 390 642 390 642 377 642 c 0,63,64
 375 642 375 642 373 641.5 c 128,-1,65
 371 641 371 641 370 641 c 0,66,67
 366 640 366 640 358 640 c 0,68,69
 353 640 353 640 347.5 638.5 c 128,-1,70
 342 637 342 637 330 637 c 0,71,72
 322 637 322 637 311.5 635.5 c 128,-1,73
 301 634 301 634 297 634 c 2,74,-1
 296 634 l 2,75,76
 294 635 294 635 293 635 c 0,77,78
 287 635 287 635 274.5 630 c 128,-1,79
 262 625 262 625 259 624 c 0,80,81
 236 620 236 620 226 612 c 0,82,83
 222 609 222 609 214.5 601 c 128,-1,84
 207 593 207 593 207 591 c 0,85,86
 194 573 194 573 194 572 c 0,87,88
 194 564 194 564 159 498 c 0,89,90
 156 492 156 492 146 477 c 0,91,92
 139 467 139 467 133 447 c 0,93,94
 125 415 125 415 124 355 c 2,95,-1
 124 330 l 2,96,97
 124 291 124 291 132 246 c 128,-1,98
 140 201 140 201 158 178 c 0,99,100
 168 163 168 163 178 158 c 0,101,102
 204 146 204 146 217 146 c 0,0,1
276 688 m 0,103,104
 280 688 280 688 288 690 c 128,-1,105
 296 692 296 692 301 692 c 2,106,-1
 312 692 l 2,107,108
 331 692 331 692 335 690 c 0,109,110
 344 683 344 683 375 683 c 0,111,112
 438 683 438 683 481 651 c 0,113,114
 506 633 506 633 522 610 c 0,115,116
 534 592 534 592 534 591 c 0,117,118
 534 589 534 589 535 589 c 0,119,120
 537 589 537 589 545.5 574 c 128,-1,121
 554 559 554 559 554 556 c 0,122,123
 554 555 554 555 558 549 c 0,124,125
 560 546 560 546 563.5 536.5 c 128,-1,126
 567 527 567 527 568 525 c 0,127,128
 574 511 574 511 574 500 c 0,129,130
 574 491 574 491 579 470 c 128,-1,131
 584 449 584 449 584 438 c 0,132,133
 584 437 584 437 583.5 433 c 128,-1,134
 583 429 583 429 583 426 c 0,135,136
 582 421 582 421 582 401 c 0,137,138
 582 388 582 388 577 373 c 0,139,140
 573 359 573 359 573 358 c 0,141,142
 573 347 573 347 567 329 c 0,143,144
 567 328 567 328 566.5 324.5 c 128,-1,145
 566 321 566 321 566 319 c 0,146,147
 566 313 566 313 561 299.5 c 128,-1,148
 556 286 556 286 556 285 c 0,149,150
 551 265 551 265 545 253 c 0,151,152
 541 236 541 236 510 201 c 0,153,154
 471 152 471 152 458 145 c 0,155,156
 413 114 413 114 366 103 c 0,157,158
 361 102 361 102 341 97 c 0,159,160
 317 91 317 91 278 91 c 0,161,162
 256 91 256 91 246 94 c 0,163,164
 243 95 243 95 238 95 c 0,165,166
 234 95 234 95 224.5 97 c 128,-1,167
 215 99 215 99 211 99 c 0,168,169
 170 103 170 103 152 114 c 0,170,171
 127 126 127 126 111 147 c 0,172,173
 109 149 109 149 102 157.5 c 128,-1,174
 95 166 95 166 90.5 173.5 c 128,-1,175
 86 181 86 181 86 186 c 0,176,177
 86 187 86 187 83 191.5 c 128,-1,178
 80 196 80 196 80 198 c 128,-1,179
 80 200 80 200 73 221 c 128,-1,180
 66 242 66 242 66 244 c 0,181,182
 66 245 66 245 65.5 247.5 c 128,-1,183
 65 250 65 250 64 254 c 128,-1,184
 63 258 63 258 63 260 c 0,185,186
 57 290 57 290 57 346 c 0,187,188
 57 372 57 372 56 373 c 0,189,190
 53 377 53 377 53 468 c 0,191,192
 53 509 53 509 72 541 c 0,193,194
 75 547 75 547 78 555 c 128,-1,195
 81 563 81 563 84 567.5 c 128,-1,196
 87 572 87 572 96 576 c 0,197,198
 102 578 102 578 115.5 589.5 c 128,-1,199
 129 601 129 601 131 602 c 0,200,201
 133 604 133 604 142.5 612 c 128,-1,202
 152 620 152 620 155 622 c 0,203,204
 160 624 160 624 166 629 c 0,205,206
 199 654 199 654 225 671 c 0,207,208
 226 672 226 672 265 686 c 0,209,210
 273 688 273 688 276 688 c 0,103,104
EndSplineSet
Validated: 1
EndChar

StartChar: period
Encoding: 46 46 9
Width: 640
GlyphClass: 1
Flags: W
LayerCount: 2
Fore
SplineSet
60 521 m 0,0,1
 60 533 60 533 58 547.5 c 128,-1,2
 56 562 56 562 56 568 c 2,3,-1
 56 583 l 2,4,5
 56 586 56 586 55 595 c 128,-1,6
 54 604 54 604 54 608 c 128,-1,7
 54 612 54 612 54 615.5 c 128,-1,8
 54 619 54 619 54 622 c 2,9,-1
 53 624 l 2,10,11
 51 628 51 628 51 665 c 2,12,-1
 51 672 l 2,13,14
 54 680 54 680 62 680 c 0,15,16
 64 680 64 680 67 677.5 c 128,-1,17
 70 675 70 675 70 674 c 0,18,19
 70 672 70 672 74.5 672 c 128,-1,20
 79 672 79 672 85 673 c 2,21,-1
 91 674 l 2,22,23
 94 674 94 674 97 674.5 c 128,-1,24
 100 675 100 675 101.5 675.5 c 128,-1,25
 103 676 103 676 105.5 675.5 c 128,-1,26
 108 675 108 675 112 673 c 0,27,28
 118 670 118 670 124 672 c 0,29,30
 134 675 134 675 149 670 c 0,31,32
 164 666 164 666 228 664 c 0,33,34
 250 664 250 664 250 650 c 0,35,36
 250 643 250 643 249 638 c 0,37,38
 245 616 245 616 242 550 c 0,39,40
 242 538 242 538 240 524.5 c 128,-1,41
 238 511 238 511 238 502 c 0,42,43
 238 490 238 490 233.5 485 c 128,-1,44
 229 480 229 480 217 476 c 2,45,-1
 205 470 l 2,46,47
 204 468 204 468 200 468.5 c 128,-1,48
 196 469 196 469 193 471 c 0,49,50
 185 476 185 476 167 476 c 0,51,52
 154 476 154 476 146 475 c 0,53,54
 134 475 134 475 130 476 c 128,-1,55
 126 477 126 477 118 477 c 0,56,57
 105 477 105 477 93 476 c 2,58,-1
 77 476 l 1,59,60
 66 486 66 486 63 493 c 128,-1,61
 60 500 60 500 60 521 c 0,0,1
385 507 m 2,62,63
 385 523 385 523 382.5 574.5 c 128,-1,64
 380 626 380 626 380 640 c 2,65,-1
 380 648 l 2,66,67
 380 667 380 667 388 671 c 0,68,69
 394 674 394 674 399 669 c 0,70,71
 403 666 403 666 426 666 c 2,72,-1
 452 666 l 1,73,-1
 465 666 l 2,74,75
 478 666 478 666 498 664 c 128,-1,76
 518 662 518 662 530 662 c 0,77,78
 560 662 560 662 567 660 c 128,-1,79
 574 658 574 658 574 647 c 0,80,81
 574 640 574 640 569 620 c 128,-1,82
 564 600 564 600 563 597 c 0,83,84
 563 591 563 591 561 578 c 128,-1,85
 559 565 559 565 559 558 c 128,-1,86
 559 551 559 551 556.5 536.5 c 128,-1,87
 554 522 554 522 554 514 c 0,88,89
 554 503 554 503 558 501 c 0,90,91
 563 498 563 498 563 493 c 0,92,93
 563 489 563 489 559.5 486.5 c 128,-1,94
 556 484 556 484 556 481 c 0,95,96
 556 474 556 474 551 469.5 c 128,-1,97
 546 465 546 465 540 465 c 0,98,99
 533 465 533 465 530 472 c 2,100,-1
 527 477 l 1,101,-1
 510 476 l 2,102,103
 499 476 499 476 473 473 c 2,104,-1
 447 470 l 1,105,-1
 422 470 l 2,106,107
 415 470 415 470 405 470 c 2,108,-1
 395 471 l 2,109,110
 382 474 382 474 384 495 c 0,111,112
 384 498 384 498 384 502 c 2,113,-1
 385 507 l 2,62,63
456 395 m 0,114,115
 472 395 472 395 493 398 c 128,-1,116
 514 401 514 401 526 401 c 0,117,118
 530 401 530 401 535 401 c 0,119,120
 551 403 551 403 553 406 c 2,121,-1
 553 407 l 1,122,123
 557 413 557 413 559 414 c 0,124,125
 564 416 564 416 570.5 411.5 c 128,-1,126
 577 407 577 407 579 400 c 0,127,128
 580 397 580 397 578.5 385 c 128,-1,129
 577 373 577 373 577 371 c 0,130,131
 578 369 578 369 578 359 c 0,132,133
 578 350 578 350 586 344 c 1,134,-1
 583 332 l 2,135,136
 578 315 578 315 574 291 c 0,137,138
 573 284 573 284 570 271.5 c 128,-1,139
 567 259 567 259 566 245 c 0,140,141
 563 172 563 172 548 172 c 0,142,143
 546 172 546 172 545 173 c 0,144,145
 544 173 544 173 540 181 c 128,-1,146
 536 189 536 189 523 189 c 0,147,148
 518 189 518 189 504.5 187 c 128,-1,149
 491 185 491 185 486 185 c 0,150,151
 478 185 478 185 460.5 183.5 c 128,-1,152
 443 182 443 182 432 182 c 0,153,154
 425 182 425 182 415 181.5 c 128,-1,155
 405 181 405 181 403 181 c 0,156,157
 391 181 391 181 391 170 c 0,158,159
 391 164 391 164 386.5 157 c 128,-1,160
 382 150 382 150 377 150 c 0,161,162
 375 150 375 150 372 153 c 0,163,164
 369 155 369 155 368 172 c 2,165,-1
 368 196 l 2,166,167
 368 198 368 198 369 206.5 c 128,-1,168
 370 215 370 215 370 220 c 0,169,170
 370 230 370 230 373 245 c 0,171,172
 377 258 377 258 377 287 c 0,173,174
 377 301 377 301 374 319.5 c 128,-1,175
 371 338 371 338 371 353 c 2,176,-1
 371 375 l 1,177,178
 383 392 383 392 392 388 c 0,179,180
 394 387 394 387 397 392 c 0,181,182
 400 398 400 398 406 398 c 0,183,184
 410 398 410 398 417 395.5 c 128,-1,185
 424 393 424 393 426 393 c 0,186,187
 427 393 427 393 428 394 c 2,188,-1
 432 394 l 2,189,190
 436 394 436 394 442.5 394.5 c 128,-1,191
 449 395 449 395 456 395 c 0,114,115
65 380 m 2,192,193
 68 382 68 382 72 388 c 1,194,-1
 96 388 l 2,195,196
 134 388 134 388 142 393 c 0,197,198
 145 395 145 395 153 393 c 2,199,-1
 158 393 l 2,200,201
 162 393 162 393 171 393.5 c 128,-1,202
 180 394 180 394 183 394 c 0,203,204
 189 394 189 394 190 393 c 0,205,206
 191 393 191 393 194 392.5 c 128,-1,207
 197 392 197 392 200 392 c 0,208,209
 207 392 207 392 223 394 c 0,210,211
 228 395 228 395 230.5 397 c 128,-1,212
 233 399 233 399 234.5 402.5 c 128,-1,213
 236 406 236 406 238 408 c 0,214,215
 244 412 244 412 248.5 408.5 c 128,-1,216
 253 405 253 405 253 397 c 0,217,218
 253 395 253 395 256.5 386.5 c 128,-1,219
 260 378 260 378 260 377 c 128,-1,220
 260 376 260 376 254 369.5 c 128,-1,221
 248 363 248 363 248 362 c 2,222,-1
 248 352 l 2,223,224
 248 350 248 350 247 344.5 c 128,-1,225
 246 339 246 339 246 338 c 2,226,-1
 246 328 l 2,227,228
 246 319 246 319 245.5 304.5 c 128,-1,229
 245 290 245 290 245 276 c 0,230,231
 245 218 245 218 243 210 c 0,232,233
 240 195 240 195 240 193 c 0,234,235
 240 184 240 184 235.5 179.5 c 128,-1,236
 231 175 231 175 224 179 c 0,237,238
 218 183 218 183 202 183 c 0,239,240
 181 183 181 183 153 177 c 0,241,242
 143 175 143 175 141 175 c 0,243,244
 136 174 136 174 84 171 c 0,245,246
 69 171 69 171 69 185 c 0,247,248
 69 191 69 191 70 195 c 128,-1,249
 71 199 71 199 71 214 c 0,250,251
 71 244 71 244 68 268 c 0,252,253
 68 270 68 270 67.5 273 c 128,-1,254
 67 276 67 276 67 277 c 2,255,-1
 67 291 l 2,256,257
 67 305 67 305 66 315 c 128,-1,258
 65 325 65 325 65 346 c 2,259,-1
 65 380 l 2,192,193
EndSplineSet
Validated: 1
EndChar

StartChar: two
Encoding: 50 50 12
Width: 453
GlyphClass: 1
Flags: W
LayerCount: 2
Fore
SplineSet
58 -142 m 0,0,1
 55 -137 55 -137 59 -133.5 c 128,-1,2
 63 -130 63 -130 67 -134 c 0,3,4
 68 -136 68 -136 67 -140 c 128,-1,5
 66 -144 66 -144 63.5 -145 c 128,-1,6
 61 -146 61 -146 58 -142 c 0,0,1
EndSplineSet
Validated: 1
EndChar

StartChar: five
Encoding: 53 53 15
Width: 240
GlyphClass: 1
Flags: W
LayerCount: 2
Fore
SplineSet
96 66 m 0,0,1
 99 67 99 67 102 69 c 128,-1,2
 105 71 105 71 107.5 72.5 c 128,-1,3
 110 74 110 74 113 75 c 128,-1,4
 116 76 116 76 120 76.5 c 128,-1,5
 124 77 124 77 130 77 c 0,6,7
 144 77 144 77 154 72 c 0,8,9
 162 68 162 68 171 59.5 c 128,-1,10
 180 51 180 51 180 47 c 128,-1,11
 180 43 180 43 184 39 c 0,12,13
 189 34 189 34 189 14 c 0,14,15
 189 -1 189 -1 187 -9 c 0,16,17
 187 -11 187 -11 185 -17 c 0,18,19
 183 -27 183 -27 173 -42 c 128,-1,20
 163 -57 163 -57 155 -57 c 0,21,22
 137 -62 137 -62 129 -62 c 0,23,24
 122 -62 122 -62 118 -61 c 0,25,26
 83 -53 83 -53 76 -41 c 2,27,-1
 70 -32 l 2,28,29
 51 -4 51 -4 51 10 c 0,30,31
 51 16 51 16 54 22 c 128,-1,32
 57 28 57 28 57 37 c 0,33,34
 58 43 58 43 66 54 c 0,35,36
 77 66 77 66 77 58 c 0,37,38
 76 54 76 54 77 54 c 128,-1,39
 78 54 78 54 85 59 c 0,40,41
 94 65 94 65 96 66 c 0,0,1
EndSplineSet
Validated: 1
EndChar

StartChar: six
Encoding: 54 54 16
Width: 313
GlyphClass: 1
Flags: W
LayerCount: 2
Fore
SplineSet
239 379 m 0,0,1
 228 379 228 379 210 377 c 128,-1,2
 192 375 192 375 173 374 c 0,3,4
 156 374 156 374 134 372 c 0,5,6
 124 371 124 371 108 371 c 0,7,8
 80 371 80 371 72 380 c 0,9,10
 69 384 69 384 64 384 c 128,-1,11
 59 384 59 384 56 390 c 0,12,13
 52 397 52 397 52 404 c 0,14,15
 52 416 52 416 61 420 c 0,16,17
 65 421 65 421 75 428.5 c 128,-1,18
 85 436 85 436 94 436 c 2,19,-1
 98 436 l 2,20,21
 105 435 105 435 112.5 437.5 c 128,-1,22
 120 440 120 440 124 440 c 128,-1,23
 128 440 128 440 132 442 c 0,24,25
 134 443 134 443 138 443 c 0,26,27
 143 443 143 443 154.5 440 c 128,-1,28
 166 437 166 437 170 437 c 0,29,30
 172 437 172 437 177 435.5 c 128,-1,31
 182 434 182 434 192 435 c 2,32,-1
 203 435 l 2,33,34
 219 435 219 435 229 430 c 0,35,36
 241 427 241 427 244 423 c 0,37,38
 246 420 246 420 248 420 c 128,-1,39
 250 420 250 420 255 417 c 0,40,41
 261 413 261 413 260 396 c 0,42,43
 259 385 259 385 256 385 c 128,-1,44
 253 385 253 385 248 382 c 128,-1,45
 243 379 243 379 239 379 c 0,0,1
EndSplineSet
Validated: 1
EndChar

StartChar: eight
Encoding: 56 56 18
Width: 578
GlyphClass: 1
Flags: W
LayerCount: 2
Fore
SplineSet
62 797 m 0,0,1
 65 800 65 800 111 800 c 2,2,-1
 159 799 l 1,3,4
 163 787 163 787 163 770 c 0,5,6
 163 727 163 727 140 704 c 0,7,8
 132 696 132 696 120 695 c 0,9,10
 113 694 113 694 106 694 c 0,11,12
 99 696 99 696 92.5 702 c 128,-1,13
 86 708 86 708 79 717.5 c 128,-1,14
 72 727 72 727 69 730 c 0,15,16
 64 735 64 735 62 745 c 128,-1,17
 60 755 60 755 58 758 c 0,18,19
 57 760 57 760 57 766 c 0,20,21
 58 768 58 768 55 773 c 0,22,23
 53 776 53 776 56.5 785.5 c 128,-1,24
 60 795 60 795 62 797 c 0,0,1
403 786 m 2,25,-1
 408 800 l 1,26,-1
 514 800 l 1,27,28
 516 796 516 796 518.5 788.5 c 128,-1,29
 521 781 521 781 523 777 c 0,30,31
 526 769 526 769 526 760 c 0,32,33
 526 734 526 734 510 714 c 1,34,35
 502 696 502 696 471 696 c 0,36,37
 442 696 442 696 426 715 c 0,38,39
 407 734 407 734 403 757 c 0,40,41
 399 773 399 773 400 774 c 0,42,43
 402 776 402 776 402 780 c 0,44,45
 402 786 402 786 403 786 c 2,25,-1
EndSplineSet
Validated: 1
EndChar

StartChar: nine
Encoding: 57 57 19
Width: 370
GlyphClass: 1
Flags: W
LayerCount: 2
Fore
SplineSet
64 711 m 128,-1,1
 64 717 64 717 71.5 726.5 c 128,-1,2
 79 736 79 736 86 736 c 0,3,4
 102 736 102 736 111 750 c 0,5,6
 118 759 118 759 119 757 c 0,7,8
 120 756 120 756 119 754 c 256,9,10
 118 752 118 752 120 752 c 0,11,12
 123 752 123 752 123 753 c 2,13,-1
 124 754 l 2,14,15
 125 755 125 755 127 755.5 c 128,-1,16
 129 756 129 756 130 757 c 0,17,18
 136 760 136 760 145.5 766.5 c 128,-1,19
 155 773 155 773 161 775 c 0,20,21
 163 775 163 775 173.5 782 c 128,-1,22
 184 789 184 789 186 789 c 0,23,24
 189 789 189 789 195 793.5 c 128,-1,25
 201 798 201 798 203 798 c 0,26,27
 211 800 211 800 281 800 c 0,28,29
 316 800 316 800 316 799 c 0,30,31
 316 797 316 797 314 797 c 128,-1,32
 312 797 312 797 300 790 c 0,33,34
 285 781 285 781 260 768 c 0,35,36
 248 763 248 763 241 758.5 c 128,-1,37
 234 754 234 754 222 748 c 0,38,39
 210 743 210 743 199.5 736.5 c 128,-1,40
 189 730 189 730 183 727 c 0,41,42
 147 709 147 709 129 694 c 0,43,44
 127 692 127 692 120 686.5 c 128,-1,45
 113 681 113 681 107 678.5 c 128,-1,46
 101 676 101 676 93 676 c 0,47,48
 90 676 90 676 84 676.5 c 128,-1,49
 78 677 78 677 77 677 c 0,50,51
 63 679 63 679 63 683 c 0,52,53
 63 684 63 684 58.5 686.5 c 128,-1,54
 54 689 54 689 54 691 c 0,55,56
 54 692 54 692 59 699 c 0,57,0
 64 705 64 705 64 711 c 128,-1,1
114 764 m 0,58,59
 115 764 115 764 118.5 766 c 128,-1,60
 122 768 122 768 124.5 769.5 c 128,-1,61
 127 771 127 771 128 769 c 0,62,63
 128 768 128 768 125.5 766 c 128,-1,64
 123 764 123 764 119.5 762 c 128,-1,65
 116 760 116 760 115 759 c 0,66,67
 109 753 109 753 108 753 c 0,68,69
 105 753 105 753 96 746.5 c 128,-1,70
 87 740 87 740 86 740 c 1,71,-1
 86 744 l 2,72,73
 86 747 86 747 97.5 755 c 128,-1,74
 109 763 109 763 114 764 c 0,58,59
EndSplineSet
Validated: 1
EndChar

StartChar: semicolon
Encoding: 59 59 20
Width: 620
GlyphClass: 1
Flags: W
LayerCount: 2
Fore
SplineSet
81 703 m 0,0,1
 81 705 81 705 83 708 c 128,-1,2
 85 711 85 711 85 712 c 0,3,4
 85 714 85 714 88 714 c 0,5,6
 95 714 95 714 95 724 c 0,7,8
 96 726 96 726 98.5 724.5 c 128,-1,9
 101 723 101 723 105 721.5 c 128,-1,10
 109 720 109 720 110 720 c 0,11,12
 113 721 113 721 117 719 c 128,-1,13
 121 717 121 717 121 714 c 2,14,-1
 127 704 l 2,15,16
 131 698 131 698 140 679.5 c 128,-1,17
 149 661 149 661 157 645.5 c 128,-1,18
 165 630 165 630 168 627 c 2,19,-1
 171 622 l 2,20,21
 174 617 174 617 176 612 c 2,22,-1
 179 608 l 2,23,24
 181 608 181 608 181 604 c 0,25,26
 181 601 181 601 184.5 596.5 c 128,-1,27
 188 592 188 592 192.5 587 c 128,-1,28
 197 582 197 582 198 579 c 0,29,30
 200 575 200 575 210 559 c 0,31,32
 220 539 220 539 221 538 c 0,33,34
 225 534 225 534 232 523 c 128,-1,35
 239 512 239 512 245 505 c 0,36,37
 253 495 253 495 263 480 c 0,38,39
 285 452 285 452 290 452 c 0,40,41
 292 452 292 452 293 453 c 0,42,43
 295 454 295 454 299 460 c 128,-1,44
 303 466 303 466 304 467 c 0,45,46
 308 471 308 471 318 485 c 128,-1,47
 328 499 328 499 332 503 c 0,48,49
 338 512 338 512 347 521 c 0,50,51
 351 525 351 525 351 528 c 0,52,53
 351 530 351 530 353 530 c 0,54,55
 354 530 354 530 363 541 c 0,56,57
 371 552 371 552 378.5 560 c 128,-1,58
 386 568 386 568 392 576 c 0,59,60
 394 579 394 579 402 587 c 0,61,62
 406 592 406 592 415 602 c 128,-1,63
 424 612 424 612 428 616 c 0,64,65
 437 625 437 625 470 669 c 0,66,67
 486 696 486 696 524 716 c 0,68,69
 537 722 537 722 541 718 c 0,70,71
 544 715 544 715 551 718 c 0,72,73
 553 719 553 719 553 716 c 0,74,75
 553 710 553 710 561 708 c 0,76,77
 564 705 564 705 563 701.5 c 128,-1,78
 562 698 562 698 558 692 c 2,79,-1
 555 685 l 2,80,81
 553 675 553 675 533 659 c 0,82,83
 511 642 511 642 506 636 c 128,-1,84
 501 630 501 630 490 607 c 0,85,86
 483 593 483 593 476 593 c 0,87,88
 475 593 475 593 460 577.5 c 128,-1,89
 445 562 445 562 437 553 c 0,90,91
 416 532 416 532 410 522 c 0,92,93
 406 516 406 516 405 516 c 2,94,-1
 395 504 l 2,95,96
 390 498 390 498 383 491 c 0,97,98
 380 488 380 488 380 487 c 128,-1,99
 380 486 380 486 374.5 481 c 128,-1,100
 369 476 369 476 369 474 c 128,-1,101
 369 472 369 472 367 469.5 c 128,-1,102
 365 467 365 467 362.5 464.5 c 128,-1,103
 360 462 360 462 359 461 c 0,104,105
 355 453 355 453 342.5 438 c 128,-1,106
 330 423 330 423 326 417 c 128,-1,107
 322 411 322 411 322 409 c 0,108,109
 322 406 322 406 328 396.5 c 128,-1,110
 334 387 334 387 342.5 374 c 128,-1,111
 351 361 351 361 353 359 c 0,112,113
 358 350 358 350 377.5 325 c 128,-1,114
 397 300 397 300 404 288 c 2,115,-1
 406 286 l 2,116,117
 408 283 408 283 409 282 c 0,118,119
 414 277 414 277 424.5 262.5 c 128,-1,120
 435 248 435 248 439 244 c 0,121,122
 448 235 448 235 458 217 c 0,123,124
 461 212 461 212 492 173 c 0,125,126
 496 167 496 167 496 165 c 0,127,128
 496 164 496 164 499 161 c 0,129,130
 506 155 506 155 506 143 c 0,131,132
 506 138 506 138 504 132.5 c 128,-1,133
 502 127 502 127 502 123 c 0,134,135
 503 119 503 119 498.5 117 c 128,-1,136
 494 115 494 115 485 114 c 2,137,-1
 472 114 l 2,138,139
 470 116 470 116 466 116 c 128,-1,140
 462 116 462 116 455 123 c 0,141,142
 430 153 430 153 411 184 c 0,143,144
 410 186 410 186 404.5 193 c 128,-1,145
 399 200 399 200 391.5 209 c 128,-1,146
 384 218 384 218 382 221 c 0,147,148
 371 238 371 238 368 239 c 128,-1,149
 365 240 365 240 365 243 c 128,-1,150
 365 246 365 246 353 261.5 c 128,-1,151
 341 277 341 277 339 281 c 0,152,153
 338 282 338 282 325 300 c 0,154,155
 317 311 317 311 307.5 326 c 128,-1,156
 298 341 298 341 296 344 c 0,157,158
 292 348 292 348 292 351 c 0,159,160
 292 353 292 353 287.5 357 c 128,-1,161
 283 361 283 361 281 361 c 128,-1,162
 279 361 279 361 272 352 c 0,163,164
 270 350 270 350 266.5 345.5 c 128,-1,165
 263 341 263 341 258 335.5 c 128,-1,166
 253 330 253 330 250 327 c 0,167,168
 190 262 190 262 158 214 c 0,169,170
 156 211 156 211 138 184.5 c 128,-1,171
 120 158 120 158 118 156 c 2,172,-1
 106 136 l 2,173,174
 106 135 106 135 98.5 124.5 c 128,-1,175
 91 114 91 114 88 111 c 0,176,177
 86 109 86 109 72 109 c 0,178,179
 61 110 61 110 59.5 111 c 128,-1,180
 58 112 58 112 60 118 c 0,181,182
 61 120 61 120 57.5 122 c 128,-1,183
 54 124 54 124 56 126 c 128,-1,184
 58 128 58 128 58 131 c 128,-1,185
 58 134 58 134 62 134 c 0,186,187
 69 136 69 136 65 140 c 0,188,189
 58 147 58 147 58 153 c 0,190,191
 58 154 58 154 62 158 c 128,-1,192
 66 162 66 162 66 163 c 0,193,194
 66 165 66 165 68.5 167.5 c 128,-1,195
 71 170 71 170 71 171 c 0,196,197
 71 173 71 173 74.5 181 c 128,-1,198
 78 189 78 189 78 190 c 0,199,200
 78 192 78 192 80.5 193.5 c 128,-1,201
 83 195 83 195 84 194 c 2,202,-1
 84 190 l 2,203,204
 83 187 83 187 82 184 c 2,205,-1
 81 180 l 1,206,207
 83 182 83 182 89.5 192.5 c 128,-1,208
 96 203 96 203 98 206 c 0,209,210
 101 209 101 209 101 211 c 0,211,212
 101 218 101 218 109.5 229 c 128,-1,213
 118 240 118 240 119 244 c 0,214,215
 119 246 119 246 124 252 c 128,-1,216
 129 258 129 258 129 260 c 0,217,218
 129 261 129 261 135 267 c 0,219,220
 136 268 136 268 140 273.5 c 128,-1,221
 144 279 144 279 147.5 284 c 128,-1,222
 151 289 151 289 152 289 c 128,-1,223
 153 289 153 289 155 293 c 0,224,225
 160 303 160 303 177 316 c 0,226,227
 179 318 179 318 184.5 328 c 128,-1,228
 190 338 190 338 196 341 c 0,229,230
 199 343 199 343 206 351 c 128,-1,231
 213 359 213 359 216 361 c 0,232,233
 222 365 222 365 224 369 c 128,-1,234
 226 373 226 373 243 392 c 0,235,236
 251 402 251 402 251 404 c 0,237,238
 251 407 251 407 243.5 416 c 128,-1,239
 236 425 236 425 235 426 c 0,240,241
 233 430 233 430 229 435.5 c 128,-1,242
 225 441 225 441 223 445 c 0,243,244
 220 451 220 451 216 455 c 0,245,246
 209 462 209 462 204 468.5 c 128,-1,247
 199 475 199 475 193.5 483 c 128,-1,248
 188 491 188 491 184 496 c 0,249,250
 164 522 164 522 161 536 c 0,251,252
 161 538 161 538 155 547.5 c 128,-1,253
 149 557 149 557 149 558 c 2,254,-1
 134 581 l 1,255,-1
 126 596 l 1,256,-1
 121 606 l 2,257,258
 119 612 119 612 116 616.5 c 128,-1,259
 113 621 113 621 110 627 c 0,260,261
 106 634 106 634 98 650 c 0,262,263
 92 662 92 662 92 664 c 128,-1,264
 92 666 92 666 84.5 678 c 128,-1,265
 77 690 77 690 77 694 c 0,266,267
 77 696 77 696 78 697 c 0,268,269
 81 700 81 700 81 703 c 0,0,1
278 627 m 0,270,271
 278 628 278 628 277 633 c 0,272,273
 275 642 275 642 277 642 c 0,274,275
 281 642 281 642 282.5 650 c 128,-1,276
 284 658 284 658 281 660 c 0,277,278
 278 661 278 661 289 669 c 2,279,-1
 298 673 l 2,280,281
 300 674 300 674 309 674 c 0,282,283
 326 674 326 674 330 671 c 0,284,285
 339 666 339 666 339 648 c 0,286,287
 339 645 339 645 343 635.5 c 128,-1,288
 347 626 347 626 340 623 c 0,289,290
 339 622 339 622 337 619 c 128,-1,291
 335 616 335 616 333 613.5 c 128,-1,292
 331 611 331 611 330 611 c 0,293,294
 328 611 328 611 321.5 608.5 c 128,-1,295
 315 606 315 606 311 606 c 0,296,297
 303 606 303 606 303 604 c 1,298,-1
 299 605 l 2,299,300
 295 606 295 606 290 607 c 2,301,-1
 286 608 l 2,302,303
 284 608 284 608 281 616 c 128,-1,304
 278 624 278 624 278 627 c 0,270,271
76 457 m 0,305,306
 77 463 77 463 83 469.5 c 128,-1,307
 89 476 89 476 96 476 c 0,308,309
 100 476 100 476 105 473 c 0,310,311
 106 473 106 473 112 472.5 c 128,-1,312
 118 472 118 472 119 471 c 0,313,314
 132 458 132 458 131 448 c 0,315,316
 130 443 130 443 139 432 c 1,317,318
 134 419 134 419 130 415 c 0,319,320
 120 405 120 405 96 405 c 0,321,322
 86 405 86 405 80 408 c 0,323,324
 72 411 72 411 72 414 c 0,325,326
 72 415 72 415 70 419.5 c 128,-1,327
 68 424 68 424 69 426 c 0,328,329
 71 428 71 428 66 442 c 0,330,331
 65 447 65 447 68 447 c 0,332,333
 75 447 75 447 76 457 c 0,305,306
439 449 m 0,334,335
 440 449 440 449 444.5 452 c 128,-1,336
 449 455 449 455 451 455 c 0,337,338
 476 451 476 451 479 449 c 0,339,340
 482 448 482 448 485.5 440 c 128,-1,341
 489 432 489 432 488 430 c 0,342,343
 486 426 486 426 486.5 422.5 c 128,-1,344
 487 419 487 419 488.5 413 c 128,-1,345
 490 407 490 407 490 406 c 0,346,347
 490 400 490 400 483 393.5 c 128,-1,348
 476 387 476 387 470 387 c 0,349,350
 466 387 466 387 466 386 c 0,351,352
 466 384 466 384 457 384 c 0,353,354
 453 384 453 384 449 383 c 128,-1,355
 445 382 445 382 442.5 382.5 c 128,-1,356
 440 383 440 383 436 386 c 0,357,358
 431 390 431 390 426 397 c 0,359,360
 423 403 423 403 420 403 c 0,361,362
 414 403 414 403 421 408 c 0,363,364
 424 410 424 410 422 414 c 0,365,366
 418 421 418 421 420 427 c 128,-1,367
 422 433 422 433 429 433 c 0,368,369
 433 433 433 433 433 433.5 c 128,-1,370
 433 434 433 434 431 437 c 0,371,372
 429 439 429 439 432.5 444 c 128,-1,373
 436 449 436 449 439 449 c 0,334,335
242 201 m 1,374,375
 236 207 236 207 236 208 c 256,376,377
 236 209 236 209 235 213 c 0,378,379
 233 219 233 219 236 219 c 2,380,-1
 239 219 l 2,381,382
 243 218 243 218 245 221.5 c 128,-1,383
 247 225 247 225 244 228 c 0,384,385
 242 230 242 230 247 233 c 0,386,387
 251 234 251 234 258 244 c 1,388,-1
 274 242 l 2,389,390
 288 240 288 240 294 234 c 0,391,392
 299 229 299 229 299 225 c 128,-1,393
 299 221 299 221 299.5 214.5 c 128,-1,394
 300 208 300 208 300 206 c 0,395,396
 300 196 300 196 295 189 c 0,397,398
 293 185 293 185 288.5 182.5 c 128,-1,399
 284 180 284 180 278 178 c 128,-1,400
 272 176 272 176 270 175 c 0,401,402
 265 173 265 173 256.5 174.5 c 128,-1,403
 248 176 248 176 245 179 c 2,404,-1
 235 194 l 1,405,-1
 239 197 l 1,406,-1
 242 201 l 1,374,375
EndSplineSet
Validated: 1
EndChar

StartChar: question
Encoding: 63 63 21
Width: 487
GlyphClass: 1
Flags: W
LayerCount: 2
Fore
SplineSet
169 143 m 0,0,1
 169 144 169 144 164.5 155.5 c 128,-1,2
 160 167 160 167 160 169 c 0,3,4
 160 174 160 174 159.5 182.5 c 128,-1,5
 159 191 159 191 159 197 c 2,6,-1
 159 209 l 2,7,8
 162 272 162 272 162 299 c 0,9,10
 162 335 162 335 168 359 c 0,11,12
 170 363 170 363 170 370 c 0,13,14
 171 383 171 383 177 401 c 0,15,16
 179 411 179 411 179 413 c 0,17,18
 179 420 179 420 194 443 c 1,19,20
 220 469 220 469 269 489 c 0,21,22
 301 501 301 501 307 507 c 0,23,24
 312 512 312 512 331 517 c 0,25,26
 337 519 337 519 348 525.5 c 128,-1,27
 359 532 359 532 359 535 c 0,28,29
 359 536 359 536 364 543 c 0,30,31
 369 549 369 549 369 568 c 0,32,33
 369 592 369 592 361.5 622.5 c 128,-1,34
 354 653 354 653 349 657 c 0,35,36
 348 658 348 658 346 662 c 0,37,38
 344 673 344 673 331 684 c 0,39,40
 325 690 325 690 325 692 c 0,41,42
 325 697 325 697 306.5 712.5 c 128,-1,43
 288 728 288 728 281 732 c 0,44,45
 273 738 273 738 243 738 c 2,46,-1
 240 738 l 1,47,-1
 232 737 l 2,48,49
 224 736 224 736 218 736 c 0,50,51
 135 728 135 728 101 719 c 0,52,53
 88 716 88 716 81.5 715.5 c 128,-1,54
 75 715 75 715 74 718 c 0,55,56
 74 720 74 720 70.5 723.5 c 128,-1,57
 67 727 67 727 69 729 c 0,58,59
 72 733 72 733 68 734 c 2,60,-1
 62 732 l 2,61,62
 58 728 58 728 58 733 c 0,63,64
 57 735 57 735 59 737 c 256,65,66
 61 739 61 739 60 742.5 c 128,-1,67
 59 746 59 746 62 749 c 128,-1,68
 65 752 65 752 65 755 c 128,-1,69
 65 758 65 758 70 758 c 0,70,71
 77 759 77 759 78 766 c 0,72,73
 78 774 78 774 104.5 779.5 c 128,-1,74
 131 785 131 785 163.5 788.5 c 128,-1,75
 196 792 196 792 199 793 c 0,76,77
 204 794 204 794 216 794 c 0,78,79
 227 794 227 794 248 792.5 c 128,-1,80
 269 791 269 791 276 791 c 0,81,82
 282 791 282 791 292 787 c 0,83,84
 314 783 314 783 337.5 768 c 128,-1,85
 361 753 361 753 370 736 c 0,86,87
 371 735 371 735 384 718 c 0,88,89
 384 715 384 715 386 713 c 0,90,91
 405 685 405 685 410 672 c 0,92,93
 415 660 415 660 415 658 c 128,-1,94
 415 656 415 656 418 653 c 0,95,96
 419 652 419 652 422 641 c 0,97,98
 424 630 424 630 425.5 621 c 128,-1,99
 427 612 427 612 428 608.5 c 128,-1,100
 429 605 429 605 430 598.5 c 128,-1,101
 431 592 431 592 431 583 c 128,-1,102
 431 574 431 574 431 556 c 0,103,104
 431 529 431 529 428 520 c 0,105,106
 424 506 424 506 418 499 c 128,-1,107
 412 492 412 492 393 479 c 0,108,109
 379 470 379 470 362 464 c 0,110,111
 344 457 344 457 324 447 c 0,112,113
 321 445 321 445 317.5 443.5 c 128,-1,114
 314 442 314 442 311 441 c 128,-1,115
 308 440 308 440 306 439 c 128,-1,116
 304 438 304 438 302 437 c 2,117,-1
 301 436 l 2,118,119
 299 434 299 434 295 434 c 0,120,121
 287 434 287 434 266 418 c 0,122,123
 259 413 259 413 257 413 c 0,124,125
 252 413 252 413 237 394 c 0,126,127
 230 385 230 385 225 348 c 0,128,129
 221 318 221 318 220 271 c 0,130,131
 220 262 220 262 220 252.5 c 128,-1,132
 220 243 220 243 219.5 236.5 c 128,-1,133
 219 230 219 230 219 229 c 128,-1,134
 219 228 219 228 218.5 219 c 128,-1,135
 218 210 218 210 218 203 c 0,136,137
 218 177 218 177 217 169 c 2,138,-1
 215 155 l 1,139,140
 200 140 200 140 197 142 c 128,-1,141
 194 144 194 144 187 134 c 1,142,143
 179 142 179 142 176 140 c 0,144,145
 169 138 169 138 169 143 c 0,0,1
164 44 m 0,146,147
 168 66 168 66 185 66 c 0,148,149
 201 66 201 66 201 61 c 0,150,151
 201 60 201 60 206 58 c 0,152,153
 213 56 213 56 220 47.5 c 128,-1,154
 227 39 227 39 227 31 c 0,155,156
 227 29 227 29 225 23 c 0,157,158
 215 8 215 8 214 7 c 0,159,160
 205 -2 205 -2 197 -2 c 0,161,162
 195 -2 195 -2 189.5 -1.5 c 128,-1,163
 184 -1 184 -1 179 -1 c 128,-1,164
 174 -1 174 -1 167.5 6.5 c 128,-1,165
 161 14 161 14 164 17 c 0,166,167
 165 18 165 18 163 22 c 128,-1,168
 161 26 161 26 159 26 c 0,169,170
 155 26 155 26 159 31 c 0,171,172
 162 34 162 34 164 44 c 0,146,147
EndSplineSet
Validated: 1
EndChar

StartChar: a
Encoding: 65 65 22
AltUni2: 000061.ffffffff.0 000061.ffffffff.0
Width: 544
GlyphClass: 1
Flags: W
AnchorPoint: "vowel" 268 416 mark 0
LayerCount: 2
Fore
SplineSet
253.549804688 451.474609375 m 0,0,1
 255.365234375 451.474609375 255.365234375 451.474609375 258.390625 453.837890625 c 128,-1,2
 261.415039062 456.200195312 261.415039062 456.200195312 263.23046875 456.200195312 c 0,3,4
 276.540039062 460.25 276.540039062 460.25 280.775390625 456.200195312 c 0,5,6
 282.58984375 454.174804688 282.58984375 454.174804688 284.405273438 454.174804688 c 0,7,8
 289.850585938 455.525390625 289.850585938 455.525390625 291.060546875 451.474609375 c 0,9,10
 291.060546875 450.125 291.060546875 450.125 294.690429688 447.424804688 c 0,11,12
 297.110351562 446.075195312 297.110351562 446.075195312 300.4375 441.6875 c 128,-1,13
 303.765625 437.299804688 303.765625 437.299804688 303.765625 435.950195312 c 0,14,15
 303.765625 435.275390625 303.765625 435.275390625 305.580078125 433.25 c 0,16,17
 306.185546875 431.900390625 306.185546875 431.900390625 307.395507812 421.775390625 c 2,18,-1
 308 413 l 1,19,-1
 303.765625 402.875 l 2,20,21
 296.504882812 388.025390625 296.504882812 388.025390625 284.405273438 380.599609375 c 0,22,23
 273.515625 374.525390625 273.515625 374.525390625 264.440429688 374.525390625 c 0,24,25
 251.735351562 374.525390625 251.735351562 374.525390625 244.475585938 387.349609375 c 0,26,27
 241.450195312 392.075195312 241.450195312 392.075195312 240.845703125 392.075195312 c 0,28,29
 234.794921875 403.549804688 234.794921875 403.549804688 234.794921875 404.224609375 c 2,30,-1
 232.375 408.275390625 l 2,31,32
 229.350585938 412.325195312 229.350585938 412.325195312 232.98046875 415.700195312 c 2,33,-1
 235.400390625 418.400390625 l 2,34,35
 235.400390625 419.75 235.400390625 419.75 240.845703125 431.900390625 c 0,36,37
 249.315429688 451.474609375 249.315429688 451.474609375 253.549804688 451.474609375 c 0,0,1
EndSplineSet
Validated: 524289
EndChar

StartChar: b
Encoding: 66 66 23
AltUni2: 000062.ffffffff.0 000062.ffffffff.0
Width: 591
GlyphClass: 1
Flags: W
AnchorPoint: "final" 352 153 basechar 0
AnchorPoint: "vowel" 298 526 basechar 0
LayerCount: 2
Fore
SplineSet
197 281 m 0,0,1
 187 349 187 349 136 356 c 0,2,3
 128 357 128 357 125.5 356 c 128,-1,4
 123 355 123 355 121.5 352 c 128,-1,5
 120 349 120 349 119 341 c 0,6,7
 112 301 112 301 112 263 c 0,8,9
 112 243 112 243 114 234 c 0,10,11
 118 209 118 209 127.5 191.5 c 128,-1,12
 137 174 137 174 147 174 c 0,13,14
 154 174 154 174 159 179 c 0,15,16
 199 212 199 212 199 255 c 0,17,18
 199 271 199 271 197 281 c 0,0,1
63 203 m 0,19,20
 63 188 63 188 76 170 c 2,21,22
 77.3518969261 166.568261649 77.3518969261 166.568261649 85.975464684 155.988104089 c 2,23,24
 94 146 94 146 98 141 c 0,25,26
 102 137 102 137 118 129 c 0,27,28
 120 128 120 128 133.5 124 c 128,-1,29
 147 120 147 120 149 118 c 0,30,31
 150 117 150 117 153 117 c 0,32,33
 172 117 172 117 192 133 c 0,34,35
 214 150 214 150 216 152 c 0,36,37
 221 157 221 157 229 163 c 0,38,39
 236 168 236 168 236 172 c 0,40,41
 236 173 236 173 238.5 175.5 c 128,-1,42
 241 178 241 178 241 180 c 0,43,44
 241 181 241 181 245 187 c 0,45,46
 253 201 253 201 253 209 c 0,47,48
 253 212 253 212 255 222 c 0,49,50
 257 234 257 234 257 251 c 2,51,52
 257 251 257 251 257 261 c 2,53,54
 257 303 257 303 245 315 c 0,55,56
 244 316 244 316 244 319 c 0,57,58
 244 321 244 321 240.5 327 c 128,-1,59
 237 333 237 333 237 334 c 0,60,61
 237 342 237 342 222 362 c 0,62,63
 219 366 219 366 219 370 c 0,64,65
 219 372 219 372 209 381 c 0,66,67
 201.8 387.4 201.8 387.4 193 394 c 2,68,69
 186 399 186 399 185 400 c 2,70,71
 180 404 180 404 168 408 c 0,72,73
 153 413 153 413 146 413 c 0,74,75
 137 413 137 413 134.5 416 c 128,-1,76
 132 419 132 419 133 431 c 0,77,78
 134 438 134 438 138.5 456.5 c 128,-1,79
 143 475 143 475 143 482 c 0,80,81
 143 496 143 496 163 536 c 0,82,83
 164 538 164 538 165 540 c 256,84,85
 166 542 166 542 166 543 c 0,86,87
 166 551 166 551 190 575 c 0,88,89
 205.444357659 587.078734378 205.444357659 587.078734378 206 589 c 0,90,91
 206 590 206 590 218 596 c 0,92,93
 220 597 220 597 223 599 c 0,94,95
 248 616 248 616 295 616 c 0,96,97
 326 616 326 616 340 610 c 0,98,99
 346 607 346 607 349 607 c 0,100,101
 361 607 361 607 398 585 c 0,102,103
 403 582 403 582 422 561 c 0,104,105
 438 543 438 543 442 534 c 0,106,107
 452 512 452 512 454 512 c 0,108,109
 455 512 455 512 459 501.5 c 0,110,111
 462 493 462 493 462 492 c 0,112,113
 463.419630555 492.325445614 463.419630555 492.325445614 471 456 c 0,114,115
 474 442 474 442 475 440 c 128,-1,116
 476 438 476 438 476 381 c 0,117,118
 476 322 476 322 475 315 c 0,119,120
 474 302 474 302 471.5 256.5 c 128,-1,121
 469 211 469 211 468 206 c 0,122,123
 466 196 466 196 466 176 c 0,124,125
 466 151 466 151 474 148 c 0,126,127
 477 147 477 147 483.5 143 c 128,-1,128
 490 139 490 139 491 137 c 128,-1,129
 492 135 492 135 496 136.5 c 0,130,131
 498 137 498 137 502.5 140.5 c 128,-1,132
 507 144 507 144 508 144 c 0,133,134
 519 144 519 144 524.5 180.5 c 0,135,136
 529 212 529 212 530.5 251.5 c 128,-1,137
 532 291 532 291 534 301 c 0,138,139
 538 321 538 321 538 374 c 0,140,141
 538 428 538 428 534 436 c 0,142,143
 533 438 533 438 531 455.5 c 128,-1,144
 529 473 529 473 528 474 c 0,145,146
 526 476 526 476 526 481 c 128,-1,147
 526 486 526 486 520 498 c 128,-1,148
 514 510 514 510 514 516 c 0,149,150
 514 542 514 542 496 560 c 0,151,152
 493 563 493 563 493 566 c 0,153,154
 493 570 493 570 485 579 c 128,-1,155
 477 588 477 588 465.5 598.5 c 128,-1,156
 454 609 454 609 452 612 c 0,157,158
 446 619 446 619 438 625 c 128,-1,159
 430 631 430 631 427 634 c 0,160,161
 414 647 414 647 382 656 c 0,162,163
 361 662 361 662 358 665 c 0,164,165
 356 667 356 667 352 667 c 0,166,167
 346 667 346 667 344 669 c 0,168,169
 339 674 339 674 300 674 c 0,170,171
 296 674 296 674 285 672 c 128,-1,172
 274 670 274 670 269 670 c 128,-1,173
 264 670 264 670 254 667.5 c 128,-1,174
 244 665 244 665 238 665 c 0,175,176
 224 664 224 664 202 653 c 0,177,178
 157 631 157 631 129 587 c 0,179,180
 124 579 124 579 121 578 c 0,181,182
 119.127377754 577.063688877 119.127377754 577.063688877 117 573 c 0,183,184
 114 567 114 567 97 525 c 0,185,186
 95 520 95 520 91 505.5 c 128,-1,187
 87 491 87 491 86 488 c 0,188,189
 84 484 84 484 84 479 c 128,-1,190
 84 474 84 474 83 472 c 0,191,192
 81 467 81 467 77 432 c 0,193,194
 76 421 76 421 74.2186262006 414.587054322 c 0,195,196
 72 408 72 408 71 391 c 0,197,198
 63 296 63 296 63 203 c 0,19,20
EndSplineSet
Validated: 524297
EndChar

StartChar: c
Encoding: 67 67 24
AltUni2: 000063.ffffffff.0 000063.ffffffff.0
Width: 594
GlyphClass: 1
Flags: W
AnchorPoint: "final" 264 72 basechar 0
AnchorPoint: "vowel" 278 566 basechar 0
LayerCount: 2
Fore
SplineSet
99 703 m 0,0,1
 107 701 107 701 109 701 c 0,2,3
 113 701 113 701 118.5 703 c 128,-1,4
 124 705 124 705 129 705 c 2,5,-1
 134 705 l 2,6,7
 148 703 148 703 150 703 c 0,8,9
 170 699 170 699 177 699 c 0,10,11
 185 699 185 699 190 700 c 0,12,13
 204 703 204 703 212 702 c 0,14,15
 284 693 284 693 298 692 c 0,16,17
 331 690 331 690 344 677 c 0,18,19
 356 665 356 665 348 661 c 0,20,21
 346 660 346 660 346 657.5 c 128,-1,22
 346 655 346 655 347 654 c 0,23,24
 349 654 349 654 349 648 c 0,25,26
 349 643 349 643 344 643 c 0,27,28
 340 643 340 643 336 638.5 c 128,-1,29
 332 634 332 634 327 635 c 0,30,31
 323 636 323 636 320 633.5 c 128,-1,32
 317 631 317 631 312 634 c 0,33,34
 306 636 306 636 303 636 c 0,35,36
 290 636 290 636 277 626 c 0,37,38
 275 624 275 624 263 624 c 0,39,40
 260 624 260 624 256 624.5 c 128,-1,41
 252 625 252 625 251 625 c 128,-1,42
 250 625 250 625 234 629 c 0,43,44
 221 633 221 633 184 636 c 128,-1,45
 147 639 147 639 135 644 c 0,46,47
 119 649 119 649 116 642 c 0,48,49
 113 633 113 633 113 555 c 2,50,-1
 113 377 l 1,51,-1
 112 346 l 2,52,53
 111 345 111 345 109 342.5 c 128,-1,54
 107 340 107 340 105 337.5 c 128,-1,55
 103 335 103 335 103 334 c 0,56,57
 103 327 103 327 94.5 327.5 c 128,-1,58
 86 328 86 328 84 325 c 0,59,60
 80 320 80 320 75 328 c 0,61,62
 72 331 72 331 66.5 334 c 128,-1,63
 61 337 61 337 59 346 c 0,64,65
 52 393 52 393 52 476 c 2,66,-1
 52 494 l 2,67,68
 52 496 52 496 52.5 507 c 128,-1,69
 53 518 53 518 53.5 534 c 128,-1,70
 54 550 54 550 54 565 c 0,71,72
 54 625 54 625 56 639 c 0,73,74
 59 671 59 671 64 680 c 0,75,76
 67 684 67 684 67 687 c 0,77,78
 67 689 67 689 72.5 692 c 128,-1,79
 78 695 78 695 84 697.5 c 128,-1,80
 90 700 90 700 92 702 c 128,-1,81
 94 704 94 704 99 703 c 0,0,1
456 173 m 2,82,-1
 469 173 l 2,83,84
 474 173 474 173 475 175 c 128,-1,85
 476 177 476 177 476 184 c 2,86,-1
 476 200 l 1,87,-1
 476 267 l 2,88,89
 476 301 476 301 477 311 c 0,90,91
 478 324 478 324 476 330 c 128,-1,92
 474 336 474 336 474 338 c 0,93,94
 475 340 475 340 475 352 c 0,95,96
 475 357 475 357 475.5 365.5 c 128,-1,97
 476 374 476 374 476 378 c 0,98,99
 476 389 476 389 474 395 c 0,100,101
 473 398 473 398 477 400.5 c 128,-1,102
 481 403 481 403 482 404 c 0,103,104
 485 407 485 407 487 407 c 128,-1,105
 489 407 489 407 489.5 409.5 c 128,-1,106
 490 412 490 412 488 413 c 0,107,108
 485 415 485 415 491 418 c 0,109,110
 493 419 493 419 494 418 c 256,111,112
 495 417 495 417 506 417 c 0,113,114
 516 417 516 417 518 415 c 0,115,116
 522 413 522 413 523 413 c 0,117,118
 525 413 525 413 529 408.5 c 128,-1,119
 533 404 533 404 532 402 c 0,120,121
 532 398 532 398 533 396 c 0,122,123
 533 395 533 395 535 316 c 0,124,125
 537 153 537 153 539 148 c 0,126,127
 541 146 541 146 539.5 139 c 128,-1,128
 538 132 538 132 538 130 c 128,-1,129
 538 128 538 128 534.5 126 c 128,-1,130
 531 124 531 124 531 121 c 0,131,132
 531 120 531 120 530 118 c 2,133,-1
 530 116 l 2,134,135
 530 114 530 114 524.5 111.5 c 128,-1,136
 519 109 519 109 516 110 c 0,137,138
 492 116 492 116 485 116 c 0,139,140
 481 116 481 116 473 114 c 0,141,142
 463 111 463 111 394 111 c 2,143,-1
 316 111 l 2,144,145
 302 110 302 110 281 110 c 0,146,147
 266 110 266 110 264 111 c 0,148,149
 258 113 258 113 255 113 c 0,150,151
 254 113 254 113 251 114.5 c 128,-1,152
 248 116 248 116 246.5 116.5 c 128,-1,153
 245 117 245 117 243 115 c 0,154,155
 239 110 239 110 236 113 c 2,156,-1
 232 117 l 2,157,158
 229 121 229 121 229 122 c 0,159,160
 229 125 229 125 226 125 c 0,161,162
 222 126 222 126 225 133 c 128,-1,163
 228 140 228 140 230 140 c 0,164,165
 231 141 231 141 230.5 144 c 128,-1,166
 230 147 230 147 228 149 c 0,167,168
 227 150 227 150 229 154 c 128,-1,169
 231 158 231 158 233 159 c 0,170,171
 234 160 234 160 240 160 c 128,-1,172
 246 160 246 160 252 163 c 0,173,174
 269 170 269 170 282 167 c 0,175,176
 287 166 287 166 290 167 c 0,177,178
 295 170 295 170 329 171 c 0,179,180
 332 171 332 171 340 171.5 c 128,-1,181
 348 172 348 172 352 172 c 0,182,183
 360 172 360 172 380.5 171 c 128,-1,184
 401 170 401 170 411 170 c 0,185,186
 426 170 426 170 432 171 c 0,187,188
 442 173 442 173 456 173 c 2,82,-1
EndSplineSet
Validated: 1
EndChar

StartChar: d
Encoding: 68 68 25
AltUni2: 000064.ffffffff.0 000064.ffffffff.0
Width: 830
GlyphClass: 1
Flags: W
AnchorPoint: "final" 455 127 basechar 0
AnchorPoint: "vowel" 237 573 basechar 0
LayerCount: 2
Fore
SplineSet
96 557 m 0,0,1
 96 551 96 551 91.5 544 c 128,-1,2
 87 537 87 537 82 537 c 0,3,4
 78 537 78 537 74 532 c 0,5,6
 68 524 68 524 66 528 c 0,7,8
 66 529 66 529 67 531 c 0,9,10
 68 534 68 534 56 546 c 1,11,-1
 57 563 l 2,12,13
 57 580 57 580 60 584 c 0,14,15
 63 593 63 593 63 596 c 0,16,17
 63 602 63 602 68 611 c 0,18,19
 72 618 72 618 89 634.5 c 128,-1,20
 106 651 106 651 116 658 c 0,21,22
 126 664 126 664 126 666 c 0,23,24
 128 668 128 668 134.5 670 c 128,-1,25
 141 672 141 672 143 673 c 0,26,27
 159 682 159 682 180 686 c 1,28,-1
 204 686 l 2,29,30
 209 686 209 686 218.5 685.5 c 128,-1,31
 228 685 228 685 229 685 c 0,32,33
 255 685 255 685 279 673 c 0,34,35
 282 673 282 673 287.5 671 c 128,-1,36
 293 669 293 669 295 668 c 0,37,38
 298 667 298 667 300.5 666 c 128,-1,39
 303 665 303 665 304 664.5 c 128,-1,40
 305 664 305 664 307.5 663 c 128,-1,41
 310 662 310 662 314 661 c 0,42,43
 316 660 316 660 318 659.5 c 128,-1,44
 320 659 320 659 321.5 658.5 c 128,-1,45
 323 658 323 658 324 658 c 2,46,-1
 326 657 l 2,47,48
 332 651 332 651 352 643 c 0,49,50
 359 639 359 639 397.5 601 c 128,-1,51
 436 563 436 563 436 561 c 0,52,53
 436 560 436 560 440.5 554 c 128,-1,54
 445 548 445 548 445 547 c 128,-1,55
 445 546 445 546 452 536 c 128,-1,56
 459 526 459 526 459 525 c 2,57,-1
 465 517 l 2,58,59
 471 510 471 510 477.5 495.5 c 128,-1,60
 484 481 484 481 489 474 c 0,61,62
 501 459 501 459 511 439 c 0,63,64
 514 434 514 434 521.5 422 c 128,-1,65
 529 410 529 410 532 404 c 0,66,67
 539 392 539 392 539 390 c 0,68,69
 541 387 541 387 542 385 c 0,70,71
 545 379 545 379 548.5 370 c 128,-1,72
 552 361 552 361 555 349.5 c 128,-1,73
 558 338 558 338 560 334 c 2,74,-1
 565 319 l 2,75,76
 574 292 574 292 579 282 c 0,77,78
 580 281 580 281 582.5 272.5 c 128,-1,79
 585 264 585 264 587 262 c 0,80,81
 599 244 599 244 599 236 c 0,82,83
 599 234 599 234 601.5 230 c 128,-1,84
 604 226 604 226 605 224 c 0,85,86
 609 214 609 214 621.5 197.5 c 128,-1,87
 634 181 634 181 638 181 c 0,88,89
 640 181 640 181 643 178 c 0,90,91
 650 171 650 171 663 169 c 0,92,93
 666 168 666 168 673 168 c 0,94,95
 687 168 687 168 721 187 c 0,96,97
 725 189 725 189 729 189 c 0,98,99
 732 189 732 189 738.5 193 c 128,-1,100
 745 197 745 197 748.5 198.5 c 128,-1,101
 752 200 752 200 754 195 c 0,102,103
 754 192 754 192 761.5 189 c 128,-1,104
 769 186 769 186 768 181 c 0,105,106
 768 178 768 178 771.5 175.5 c 128,-1,107
 775 173 775 173 774 168 c 0,108,109
 770 156 770 156 768 152 c 0,110,111
 765 147 765 147 761.5 143.5 c 128,-1,112
 758 140 758 140 756 138.5 c 128,-1,113
 754 137 754 137 748.5 134 c 128,-1,114
 743 131 743 131 740 129 c 0,115,116
 726 120 726 120 711 116 c 0,117,118
 706 113 706 113 703 113 c 128,-1,119
 700 113 700 113 690 111 c 0,120,121
 686 110 686 110 675 110 c 0,122,123
 656 110 656 110 648 114 c 0,124,125
 644 117 644 117 639 117 c 0,126,127
 632 117 632 117 595 145 c 0,128,129
 566 169 566 169 566 178 c 0,130,131
 566 181 566 181 564 182 c 0,132,133
 557 187 557 187 552 201 c 0,134,135
 544 220 544 220 542 224 c 0,136,137
 531 241 531 241 526 255 c 0,138,139
 524 260 524 260 520 268.5 c 128,-1,140
 516 277 516 277 514 281 c 2,141,-1
 496 335 l 2,142,143
 494 339 494 339 494 342 c 128,-1,144
 494 345 494 345 492 345 c 128,-1,145
 490 345 490 345 490 351 c 0,146,147
 489 356 489 356 485 363 c 128,-1,148
 481 370 481 370 479 370 c 0,149,150
 478 370 478 370 466 358 c 2,151,-1
 454 345 l 1,152,-1
 447 336 l 2,153,154
 442 328 442 328 433 319 c 0,155,156
 403 289 403 289 391 265 c 0,157,158
 387 257 387 257 380 248 c 128,-1,159
 373 239 373 239 370 233 c 0,160,161
 364 221 364 221 354 211 c 2,162,-1
 352 208 l 2,163,164
 351 206 351 206 348.5 203 c 128,-1,165
 346 200 346 200 344 197 c 0,166,167
 341 193 341 193 330 176.5 c 128,-1,168
 319 160 319 160 315 156 c 0,169,170
 314 155 314 155 305.5 138.5 c 128,-1,171
 297 122 297 122 296 121 c 0,172,173
 294 119 294 119 294 118 c 0,174,175
 294 116 294 116 288.5 111.5 c 128,-1,176
 283 107 283 107 279 106 c 2,177,-1
 267 102 l 2,178,179
 261 100 261 100 257.5 102.5 c 128,-1,180
 254 105 254 105 250 105 c 0,181,182
 246 104 246 104 245.5 104.5 c 128,-1,183
 245 105 245 105 246 108 c 0,184,185
 247 110 247 110 247 115 c 0,186,187
 247 116 247 116 246.5 119 c 128,-1,188
 246 122 246 122 246 124 c 0,189,190
 246 137 246 137 254 147 c 0,191,192
 258 151 258 151 258 156 c 0,193,194
 258 162 258 162 264 174 c 0,195,196
 268 182 268 182 312 246 c 2,197,-1
 334 280 l 2,198,199
 334 281 334 281 349 306 c 0,200,201
 353 314 353 314 365 326 c 0,202,203
 399 362 399 362 399 369 c 0,204,205
 399 370 399 370 404 377 c 128,-1,206
 409 384 409 384 409 385 c 0,207,208
 409 387 409 387 425.5 401.5 c 128,-1,209
 442 416 442 416 446 418 c 0,210,211
 452 420 452 420 451 431 c 0,212,213
 451 439 451 439 449 441 c 0,214,215
 444 446 444 446 434 460 c 128,-1,216
 424 474 424 474 423 477 c 0,217,218
 422 478 422 478 420 480 c 128,-1,219
 418 482 418 482 417 483.5 c 128,-1,220
 416 485 416 485 416 487 c 128,-1,221
 416 489 416 489 407.5 501 c 128,-1,222
 399 513 399 513 397 515 c 0,223,224
 394 518 394 518 391 524 c 0,225,226
 389 529 389 529 375.5 543.5 c 128,-1,227
 362 558 362 558 360 561 c 0,228,229
 341 586 341 586 323 594 c 0,230,231
 320 595 320 595 315 599.5 c 128,-1,232
 310 604 310 604 307 604 c 0,233,234
 306 604 306 604 303 607 c 0,235,236
 300 612 300 612 288 614 c 0,237,238
 285 614 285 614 280 617 c 128,-1,239
 275 620 275 620 273 620 c 0,240,241
 267 620 267 620 257 625 c 0,242,243
 256 626 256 626 238 628 c 2,244,-1
 206 632 l 1,245,-1
 196 632 l 2,246,247
 164 632 164 632 133 607 c 0,248,249
 127 601 127 601 118 595 c 0,250,251
 114 592 114 592 109 584 c 128,-1,252
 104 576 104 576 104 574 c 0,253,254
 104 573 104 573 100 566.5 c 128,-1,255
 96 560 96 560 96 557 c 0,0,1
EndSplineSet
Validated: 1
EndChar

StartChar: e
Encoding: 69 69 26
AltUni2: 000065.ffffffff.0 000065.ffffffff.0
Width: 478
GlyphClass: 1
Flags: W
AnchorPoint: "vowel" 258 520 mark 0
LayerCount: 2
Fore
SplineSet
156 402 m 0,0,1
 156 404 156 404 153.5 408.5 c 128,-1,2
 151 413 151 413 151 414 c 0,3,4
 151 416 151 416 148 417 c 0,5,6
 146 418 146 418 142.5 425.5 c 128,-1,7
 139 433 139 433 138 434 c 2,8,-1
 123 464 l 2,9,10
 120 471 120 471 119 471 c 0,11,12
 116 471 116 471 113 487 c 0,13,14
 112 491 112 491 105 499 c 128,-1,15
 98 507 98 507 98 513 c 128,-1,16
 98 519 98 519 95 522 c 0,17,18
 88 529 88 529 97 529 c 0,19,20
 104 529 104 529 100 534 c 0,21,22
 98 536 98 536 99 537 c 128,-1,23
 100 538 100 538 101.5 537.5 c 128,-1,24
 103 537 103 537 105 536.5 c 128,-1,25
 107 536 107 536 108 536 c 0,26,27
 110 536 110 536 114.5 539.5 c 128,-1,28
 119 543 119 543 119 545 c 128,-1,29
 119 547 119 547 124 547 c 0,30,31
 128 547 128 547 127 552 c 0,32,33
 126 555 126 555 129 555 c 0,34,35
 130 555 130 555 132 555 c 0,36,37
 140 554 140 554 146 543 c 0,38,39
 152 535 152 535 158 529 c 0,40,41
 162 525 162 525 171.5 506.5 c 128,-1,42
 181 488 181 488 192 464.5 c 128,-1,43
 203 441 203 441 204 439 c 0,44,45
 212 426 212 426 212 423 c 0,46,47
 212 422 212 422 220 408 c 128,-1,48
 228 394 228 394 228 393 c 0,49,50
 229 391 229 391 231 389 c 0,51,52
 232 387 232 387 241 373 c 128,-1,53
 250 359 250 359 251 357 c 0,54,55
 252 356 252 356 253 354 c 0,56,57
 255 352 255 352 255 351 c 128,-1,58
 255 350 255 350 258 350 c 0,59,60
 264 350 264 350 266 359 c 0,61,62
 266 361 266 361 273.5 373 c 128,-1,63
 281 385 281 385 290 399 c 128,-1,64
 299 413 299 413 300 414 c 0,65,66
 300 415 300 415 313 435 c 0,67,68
 316 440 316 440 322 444.5 c 128,-1,69
 328 449 328 449 332 456 c 0,70,71
 335 460 335 460 338.5 464.5 c 128,-1,72
 342 469 342 469 346 475 c 0,73,74
 352 485 352 485 358 491 c 0,75,76
 365 498 365 498 365 500 c 0,77,78
 365 504 365 504 374.5 512.5 c 128,-1,79
 384 521 384 521 387 521 c 0,80,81
 389 521 389 521 389 520 c 128,-1,82
 389 519 389 519 393.5 521.5 c 128,-1,83
 398 524 398 524 404 528 c 2,84,-1
 409 533 l 1,85,86
 424 518 424 518 424 512 c 0,87,88
 424 507 424 507 410 488 c 0,89,90
 407 481 407 481 392 459 c 0,91,92
 347 393 347 393 330 360 c 0,93,94
 327 354 327 354 317 336 c 128,-1,95
 307 318 307 318 299 303.5 c 128,-1,96
 291 289 291 289 291 285 c 0,97,98
 291 282 291 282 288.5 276.5 c 128,-1,99
 286 271 286 271 286 267 c 0,100,101
 284 250 284 250 272 247 c 0,102,103
 271 247 271 247 267 244.5 c 128,-1,104
 263 242 263 242 260 241 c 128,-1,105
 257 240 257 240 256 241 c 0,106,107
 256 243 256 243 251 243 c 0,108,109
 240 243 240 243 236.5 246 c 128,-1,110
 233 249 233 249 233 259 c 0,111,112
 233 271 233 271 224 289 c 0,113,114
 222 292 222 292 217.5 301 c 128,-1,115
 213 310 213 310 210 313 c 0,116,117
 209 314 209 314 206.5 318.5 c 128,-1,118
 204 323 204 323 201.5 327 c 128,-1,119
 199 331 199 331 198 331 c 0,120,121
 196 331 196 331 196 334 c 0,122,123
 196 336 196 336 192.5 340 c 128,-1,124
 189 344 189 344 189 345 c 128,-1,125
 189 346 189 346 182.5 356 c 128,-1,126
 176 366 176 366 174 368 c 128,-1,127
 172 370 172 370 172 372 c 0,128,129
 172 373 172 373 167 380.5 c 128,-1,130
 162 388 162 388 162 390 c 128,-1,131
 162 392 162 392 159 396.5 c 128,-1,132
 156 401 156 401 156 402 c 0,0,1
EndSplineSet
Validated: 1
EndChar

StartChar: f
Encoding: 70 70 27
AltUni2: 000066.ffffffff.0 000066.ffffffff.0
Width: 907
GlyphClass: 1
Flags: W
AnchorPoint: "final" 386 93 basechar 0
AnchorPoint: "vowel" 430 596 basechar 0
LayerCount: 2
Fore
SplineSet
348 683 m 0,0,1
 349 683 349 683 355.5 686 c 128,-1,2
 362 689 362 689 363 689 c 0,3,4
 366 689 366 689 372.5 693 c 128,-1,5
 379 697 379 697 381 698 c 2,6,-1
 396 703 l 2,7,8
 420 713 420 713 464 713 c 0,9,10
 469 714 469 714 480 714 c 0,11,12
 506 714 506 714 526 710 c 0,13,14
 587 703 587 703 614 669 c 0,15,16
 618 663 618 663 625 655 c 128,-1,17
 632 647 632 647 637.5 639 c 128,-1,18
 643 631 643 631 648 621 c 0,19,20
 665 596 665 596 665 585 c 0,21,22
 665 584 665 584 670 573 c 128,-1,23
 675 562 675 562 675 561 c 0,24,25
 675 558 675 558 676 558 c 0,26,27
 678 558 678 558 678 553 c 0,28,29
 678 552 678 552 683 540 c 0,30,31
 685 534 685 534 689 518.5 c 128,-1,32
 693 503 693 503 694 500 c 0,33,34
 696 494 696 494 696 469 c 0,35,36
 696 438 696 438 698 431 c 0,37,38
 700 420 700 420 699 415 c 0,39,40
 697 409 697 409 697 377 c 0,41,42
 697 353 697 353 695.5 343.5 c 128,-1,43
 694 334 694 334 690.5 323.5 c 128,-1,44
 687 313 687 313 685 301 c 0,45,46
 672 248 672 248 662 225 c 0,47,48
 656 213 656 213 656 212 c 128,-1,49
 656 211 656 211 652 205 c 128,-1,50
 648 199 648 199 648 198 c 0,51,52
 648 196 648 196 645 194 c 128,-1,53
 642 192 642 192 642 190 c 0,54,55
 642 189 642 189 637.5 183.5 c 128,-1,56
 633 178 633 178 629 173 c 128,-1,57
 625 168 625 168 626 167 c 0,58,59
 628 165 628 165 633 165 c 0,60,61
 640 165 640 165 661.5 169 c 128,-1,62
 683 173 683 173 690 173 c 2,63,-1
 694 173 l 2,64,65
 698 173 698 173 713 158 c 1,66,-1
 723 159 l 2,67,68
 726 159 726 159 729.5 160.5 c 128,-1,69
 733 162 733 162 735 162.5 c 128,-1,70
 737 163 737 163 739.5 163 c 128,-1,71
 742 163 742 163 743.5 161 c 128,-1,72
 745 159 745 159 747 156 c 0,73,74
 749 149 749 149 752 149 c 0,75,76
 754 149 754 149 754 142 c 0,77,78
 754 139 754 139 754.5 137 c 128,-1,79
 755 135 755 135 755.5 134 c 128,-1,80
 756 133 756 133 756 132 c 128,-1,81
 756 131 756 131 755 129.5 c 128,-1,82
 754 128 754 128 751 125 c 0,83,84
 741 117 741 117 740 117 c 0,85,86
 738 116 738 116 734 112.5 c 128,-1,87
 730 109 730 109 728 109 c 2,88,-1
 725 108 l 2,89,90
 722 106 722 106 721 106 c 0,91,92
 702 96 702 96 665 93 c 2,93,-1
 660 93 l 2,94,95
 631 93 631 93 626 98 c 0,96,97
 620 102 620 102 598 102 c 2,98,-1
 595 102 l 2,99,100
 594 101 594 101 593 101.5 c 128,-1,101
 592 102 592 102 592 103 c 128,-1,102
 592 104 592 104 583 111 c 0,103,104
 573 119 573 119 564 119 c 0,105,106
 558 119 558 119 553 121.5 c 128,-1,107
 548 124 548 124 546 124 c 0,108,109
 543 124 543 124 538.5 130 c 128,-1,110
 534 136 534 136 534 139 c 0,111,112
 534 140 534 140 537.5 147 c 128,-1,113
 541 154 541 154 541 155 c 0,114,115
 541 158 541 158 542 159 c 2,116,-1
 544 160 l 2,117,118
 545 162 545 162 546.5 165 c 128,-1,119
 548 168 548 168 550 170 c 0,120,121
 555 178 555 178 576 197 c 0,122,123
 596 215 596 215 611 238 c 0,124,125
 621 252 621 252 629 291 c 0,126,127
 631 307 631 307 635 323 c 0,128,129
 638 336 638 336 638 337 c 0,130,131
 640 345 640 345 640 368 c 0,132,133
 640 457 640 457 634 473 c 0,134,135
 632 477 632 477 632 488 c 0,136,137
 632 524 632 524 617 554 c 0,138,139
 614 562 614 562 591 604 c 0,140,141
 590 605 590 605 588 609 c 128,-1,142
 586 613 586 613 585 614 c 0,143,144
 582 617 582 617 582 619 c 128,-1,145
 582 621 582 621 577 623 c 0,146,147
 575 624 575 624 567 634 c 0,148,149
 561 643 561 643 551 646 c 0,150,151
 530 654 530 654 504 656 c 0,152,153
 497 656 497 656 481.5 657 c 128,-1,154
 466 658 466 658 458 658 c 0,155,156
 445 658 445 658 438 657 c 0,157,158
 406 653 406 653 396 647 c 0,159,160
 390 643 390 643 371.5 634.5 c 128,-1,161
 353 626 353 626 351 626 c 2,162,-1
 325 614 l 2,163,164
 317 614 317 614 288 596 c 0,165,166
 283 593 283 593 273.5 583.5 c 128,-1,167
 264 574 264 574 254.5 562.5 c 128,-1,168
 245 551 245 551 243 549 c 128,-1,169
 241 547 241 547 236 538.5 c 128,-1,170
 231 530 231 530 230 529 c 0,171,172
 228 527 228 527 226 520 c 128,-1,173
 224 513 224 513 223 512 c 0,174,175
 212 494 212 494 212 456 c 2,176,-1
 212 443 l 2,177,178
 213 422 213 422 211 416 c 0,179,180
 209 412 209 412 209 397 c 0,181,182
 209 369 209 369 214 337 c 0,183,184
 215 333 215 333 219 320 c 128,-1,185
 223 307 223 307 223 301 c 0,186,187
 223 296 223 296 226 288 c 128,-1,188
 229 280 229 280 229 277 c 0,189,190
 229 271 229 271 239 241 c 0,191,192
 241 230 241 230 247 216 c 0,193,194
 252 206 252 206 252 204 c 128,-1,195
 252 202 252 202 258.5 193 c 128,-1,196
 265 184 265 184 268 182 c 0,197,198
 271 179 271 179 271 176 c 128,-1,199
 271 173 271 173 273 169 c 0,200,201
 276 165 276 165 273 156 c 128,-1,202
 270 147 270 147 264 143 c 0,203,204
 245 124 245 124 238 124 c 0,205,206
 237 124 237 124 225 122 c 0,207,208
 214 119 214 119 183 118 c 0,209,210
 177 118 177 118 167.5 117.5 c 128,-1,211
 158 117 158 117 153.5 116.5 c 128,-1,212
 149 116 149 116 148 116 c 0,213,214
 142 114 142 114 94 114 c 2,215,-1
 80 114 l 2,216,217
 76 114 76 114 76 117 c 0,218,219
 76 118 76 118 63 131 c 0,220,221
 59 135 59 135 56.5 141.5 c 128,-1,222
 54 148 54 148 61 150 c 0,223,224
 64 151 64 151 64 152 c 0,225,226
 62 156 62 156 66.5 158.5 c 128,-1,227
 71 161 71 161 71 162 c 0,228,229
 71 166 71 166 78.5 168 c 128,-1,230
 86 170 86 170 99.5 170 c 128,-1,231
 113 170 113 170 114 170 c 2,232,-1
 198 178 l 2,233,234
 200 179 200 179 195.5 195 c 128,-1,235
 191 211 191 211 185 229.5 c 128,-1,236
 179 248 179 248 178 251 c 0,237,238
 174 269 174 269 174 270 c 0,239,240
 158 311 158 311 153 356 c 0,241,242
 150 378 150 378 150 397 c 0,243,244
 150 410 150 410 152 420 c 0,245,246
 155 428 155 428 155 438 c 0,247,248
 155 440 155 440 154.5 450.5 c 128,-1,249
 154 461 154 461 154 468 c 0,250,251
 154 508 154 508 170 540 c 0,252,253
 181 559 181 559 182 560 c 0,254,255
 187 565 187 565 193 573 c 0,256,257
 205 590 205 590 231 616 c 0,258,259
 239 624 239 624 239 626 c 0,260,261
 239 627 239 627 243.5 630 c 128,-1,262
 248 633 248 633 253 636.5 c 128,-1,263
 258 640 258 640 259 641 c 2,264,-1
 264 646 l 1,265,-1
 273 652 l 2,266,267
 282 657 282 657 283 657 c 0,268,269
 285 657 285 657 293 662 c 0,270,271
 308 670 308 670 331 677 c 0,272,273
 342 679 342 679 344 681 c 128,-1,274
 346 683 346 683 348 683 c 0,0,1
EndSplineSet
Validated: 1
EndChar

StartChar: g
Encoding: 71 71 28
AltUni2: 000067.ffffffff.0 000067.ffffffff.0
Width: 620
GlyphClass: 1
Flags: W
AnchorPoint: "final" 310 49 basechar 0
AnchorPoint: "vowel" 305 581 basechar 0
LayerCount: 2
Fore
SplineSet
56 681 m 2,0,1
 56 682 56 682 59 685 c 128,-1,2
 62 688 62 688 62 690 c 0,3,4
 62 693 62 693 65 695.5 c 128,-1,5
 68 698 68 698 71 695 c 0,6,7
 74 693 74 693 80.5 695.5 c 128,-1,8
 87 698 87 698 89 694 c 128,-1,9
 91 690 91 690 106.5 673.5 c 128,-1,10
 122 657 122 657 123 656 c 0,11,12
 127 651 127 651 132 647 c 0,13,14
 154 632 154 632 252 519 c 0,15,16
 275 494 275 494 295 466 c 0,17,18
 311 443 311 443 315 443 c 128,-1,19
 319 443 319 443 319 444 c 0,20,21
 320 446 320 446 324 446 c 128,-1,22
 328 446 328 446 329 444 c 0,23,24
 329 443 329 443 328 440.5 c 128,-1,25
 327 438 327 438 327 437 c 0,26,27
 327 435 327 435 330.5 432 c 128,-1,28
 334 429 334 429 336 429 c 0,29,30
 339 429 339 429 339 409 c 0,31,32
 339 393 339 393 333 393 c 0,33,34
 332 393 332 393 331 392 c 256,35,36
 330 391 330 391 329.5 390.5 c 128,-1,37
 329 390 329 390 328 390 c 0,38,39
 326 388 326 388 312.5 384.5 c 128,-1,40
 299 381 299 381 295 379 c 0,41,42
 276 370 276 370 269 364.5 c 128,-1,43
 262 359 262 359 246 341 c 0,44,45
 246 340 246 340 241.5 335 c 128,-1,46
 237 330 237 330 236 328 c 0,47,48
 234 325 234 325 226 312 c 128,-1,49
 218 299 218 299 214 287 c 0,50,51
 209 275 209 275 209 256 c 0,52,53
 209 235 209 235 216 226 c 0,54,55
 220 220 220 220 220 218 c 0,56,57
 220 215 220 215 225.5 208 c 128,-1,58
 231 201 231 201 232 199 c 0,59,60
 255 167 255 167 285 160 c 0,61,62
 290 159 290 159 295 157.5 c 128,-1,63
 300 156 300 156 307 155 c 0,64,65
 315 155 315 155 330 150 c 0,66,67
 343 146 343 146 368 143 c 0,68,69
 380 141 380 141 383 144 c 128,-1,70
 386 147 386 147 389 147 c 0,71,72
 394 147 394 147 407 152 c 128,-1,73
 420 157 420 157 424 158 c 0,74,75
 441 162 441 162 448 167 c 0,76,77
 450 169 450 169 452 169 c 0,78,79
 456 169 456 169 471 184 c 0,80,81
 490 203 490 203 495 214 c 0,82,83
 497 219 497 219 499.5 223.5 c 128,-1,84
 502 228 502 228 504 231 c 2,85,-1
 505 234 l 2,86,87
 510 244 510 244 510 245 c 0,88,89
 510 257 510 257 525 272 c 0,90,91
 537 283 537 283 547 278 c 0,92,93
 555 274 555 274 555 271 c 0,94,95
 555 269 555 269 560.5 260.5 c 128,-1,96
 566 252 566 252 565 249 c 0,97,98
 560 224 560 224 552 211 c 0,99,100
 550 207 550 207 550 203 c 0,101,102
 550 201 550 201 544 188 c 128,-1,103
 538 175 538 175 538 174 c 128,-1,104
 538 173 538 173 533.5 166 c 128,-1,105
 529 159 529 159 528 159 c 2,106,-1
 526 155 l 2,107,108
 525 152 525 152 505.5 132.5 c 128,-1,109
 486 113 486 113 480 109 c 0,110,111
 477 107 477 107 466 103.5 c 128,-1,112
 455 100 455 100 452 97 c 0,113,114
 448 92 448 92 414 84 c 0,115,116
 402 82 402 82 383 82 c 0,117,118
 372 82 372 82 372 83 c 0,119,120
 372 85 372 85 365 85 c 0,121,122
 347 87 347 87 332 92 c 0,123,124
 323 95 323 95 315 95 c 0,125,126
 275 100 275 100 257 109 c 0,127,128
 249 113 249 113 248 113 c 0,129,130
 246 113 246 113 239 118 c 128,-1,131
 232 123 232 123 231 124 c 0,132,133
 227 126 227 126 218.5 134.5 c 128,-1,134
 210 143 210 143 199 154.5 c 128,-1,135
 188 166 188 166 185 169 c 128,-1,136
 182 172 182 172 182 173 c 128,-1,137
 182 174 182 174 176.5 184 c 128,-1,138
 171 194 171 194 171 195 c 0,139,140
 171 198 171 198 168 203 c 0,141,142
 159 216 159 216 159 256 c 0,143,144
 159 271 159 271 161 276 c 0,145,146
 163 282 163 282 166 297 c 0,147,148
 166 300 166 300 173 314.5 c 128,-1,149
 180 329 180 329 180 332 c 0,150,151
 180 334 180 334 183.5 338.5 c 128,-1,152
 187 343 187 343 187 344 c 0,153,154
 187 346 187 346 192 356 c 0,155,156
 200 371 200 371 220 389.5 c 128,-1,157
 240 408 240 408 256 418 c 0,158,159
 268 425 268 425 263 430 c 2,160,-1
 261 433 l 2,161,162
 261 435 261 435 259 437 c 0,163,164
 255 441 255 441 246 454.5 c 128,-1,165
 237 468 237 468 227 478 c 0,166,167
 223 482 223 482 202.5 505.5 c 128,-1,168
 182 529 182 529 171 540 c 0,169,170
 166 545 166 545 141.5 571 c 128,-1,171
 117 597 117 597 110 604 c 0,172,173
 108 606 108 606 103 610.5 c 128,-1,174
 98 615 98 615 94 619 c 128,-1,175
 90 623 90 623 87 627 c 0,176,177
 78 638 78 638 76 639 c 128,-1,178
 74 640 74 640 71.5 645 c 128,-1,179
 69 650 69 650 66 651 c 0,180,181
 59 655 59 655 57 672 c 0,182,183
 57 675 57 675 56 678 c 2,184,-1
 56 681 l 2,0,1
EndSplineSet
Validated: 1
EndChar

StartChar: h
Encoding: 72 72 29
AltUni2: 000068.ffffffff.0 000068.ffffffff.0
Width: 561
GlyphClass: 1
Flags: W
AnchorPoint: "final" 258 82 basechar 0
AnchorPoint: "vowel" 268 598 basechar 0
LayerCount: 2
Fore
SplineSet
172 735 m 1,0,1
 229 740 229 740 252 740 c 0,2,3
 253 740 253 740 260.5 739.5 c 128,-1,4
 268 739 268 739 273 739 c 0,5,6
 343 736 343 736 387 703 c 0,7,8
 439 665 439 665 447 652 c 0,9,10
 454 641 454 641 463 623 c 0,11,12
 465 618 465 618 468 614 c 128,-1,13
 471 610 471 610 473 605 c 0,14,15
 473 602 473 602 475 598 c 0,16,17
 482 583 482 583 486 567 c 0,18,19
 487 561 487 561 490 554.5 c 128,-1,20
 493 548 493 548 493 543 c 0,21,22
 494 541 494 541 495 535.5 c 128,-1,23
 496 530 496 530 496 528 c 0,24,25
 502 512 502 512 505 484 c 0,26,27
 507 469 507 469 507 438 c 0,28,29
 507 400 507 400 502 389 c 0,30,31
 498 378 498 378 497 357 c 0,32,33
 497 351 497 351 495.5 341 c 128,-1,34
 494 331 494 331 494 327 c 128,-1,35
 494 323 494 323 491.5 308 c 128,-1,36
 489 293 489 293 489 288 c 0,37,38
 489 279 489 279 483 243 c 0,39,40
 481 233 481 233 481 231 c 0,41,42
 479 227 479 227 477 181 c 0,43,44
 477 177 477 177 476 166.5 c 128,-1,45
 475 156 475 156 475 151 c 0,46,47
 475 144 475 144 476 141 c 128,-1,48
 477 138 477 138 477 129 c 0,49,50
 477 108 477 108 473 100 c 0,51,52
 471 96 471 96 471 93 c 0,53,54
 471 84 471 84 464 84 c 0,55,56
 462 84 462 84 460 81 c 0,57,58
 458 79 458 79 453 79 c 0,59,60
 451 79 451 79 446.5 77 c 128,-1,61
 442 75 442 75 439 74.5 c 128,-1,62
 436 74 436 74 434 76 c 0,63,64
 433 77 433 77 430 77 c 0,65,66
 423 77 423 77 423 79 c 0,67,68
 423 82 423 82 420.5 89 c 128,-1,69
 418 96 418 96 418 100 c 0,70,71
 418 105 418 105 416.5 109 c 128,-1,72
 415 113 415 113 416 121 c 0,73,74
 417 125 417 125 417 136 c 0,75,76
 417 140 417 140 416.5 148.5 c 128,-1,77
 416 157 416 157 416 161 c 0,78,79
 416 168 416 168 418 180 c 0,80,81
 420 188 420 188 420 212 c 0,82,83
 421 240 421 240 424 248 c 0,84,85
 426 256 426 256 429 278 c 128,-1,86
 432 300 432 300 431 302 c 0,87,88
 431 304 431 304 433 319 c 128,-1,89
 435 334 435 334 435 336 c 0,90,91
 435 337 435 337 436 340 c 2,92,-1
 436 342 l 1,93,-1
 436 344 l 2,94,95
 436 346 436 346 436.5 349 c 128,-1,96
 437 352 437 352 437 355 c 128,-1,97
 437 358 437 358 437.5 365 c 128,-1,98
 438 372 438 372 438 374 c 128,-1,99
 438 376 438 376 438.5 379 c 128,-1,100
 439 382 439 382 440 386 c 128,-1,101
 441 390 441 390 441 393 c 128,-1,102
 441 396 441 396 441.5 403.5 c 128,-1,103
 442 411 442 411 443 414 c 0,104,105
 444 420 444 420 444 435 c 0,106,107
 444 490 444 490 431 529 c 2,108,-1
 426 544 l 2,109,110
 424 550 424 550 422 559 c 128,-1,111
 420 568 420 568 417 574 c 0,112,113
 416 577 416 577 411 590.5 c 128,-1,114
 406 604 406 604 403 609 c 0,115,116
 397 620 397 620 379 634 c 0,117,118
 372 639 372 639 372 640 c 0,119,120
 369 647 369 647 347 659 c 0,121,122
 335 667 335 667 311 675 c 0,123,124
 303 676 303 676 301 679 c 0,125,126
 294 684 294 684 239 684 c 0,127,128
 222 684 222 684 218 683 c 0,129,130
 209 680 209 680 134 679 c 0,131,132
 99 679 99 679 97 681 c 0,133,134
 94 684 94 684 82 681 c 128,-1,135
 70 678 70 678 69 679 c 128,-1,136
 68 680 68 680 66.5 683.5 c 128,-1,137
 65 687 65 687 63 690.5 c 128,-1,138
 61 694 61 694 59 694 c 0,139,140
 56 694 56 694 56 695 c 0,141,142
 55 698 55 698 62 700 c 0,143,144
 64 700 64 700 65 702.5 c 128,-1,145
 66 705 66 705 65 707 c 0,146,147
 62 713 62 713 68 720 c 0,148,149
 75 729 75 729 88 731.5 c 128,-1,150
 101 734 101 734 137 734 c 0,151,152
 142 734 142 734 147.5 734 c 128,-1,153
 153 734 153 734 157 734 c 128,-1,154
 161 734 161 734 164.5 734.5 c 128,-1,155
 168 735 168 735 170 735 c 2,156,-1
 172 735 l 1,0,1
68 256 m 0,157,158
 68 274 68 274 63 316 c 128,-1,159
 58 358 58 358 58 375 c 0,160,161
 58 381 58 381 58 390 c 2,162,-1
 57 398 l 2,163,164
 55 406 55 406 55 420 c 0,165,166
 55 426 55 426 55.5 438 c 128,-1,167
 56 450 56 450 56 455 c 2,168,-1
 56 463 l 2,169,170
 55 472 55 472 57 490 c 0,171,172
 58 494 58 494 58 501 c 0,173,174
 58 503 58 503 53 535 c 0,175,176
 51 550 51 550 55 560 c 0,177,178
 58 564 58 564 58 568 c 0,179,180
 58 569 58 569 59 571.5 c 128,-1,181
 60 574 60 574 59 576 c 2,182,-1
 59 580 l 1,183,184
 60 580 60 580 63 578 c 0,185,186
 68 575 68 575 69 575 c 0,187,188
 70 576 70 576 71.5 578.5 c 128,-1,189
 73 581 73 581 75 583 c 128,-1,190
 77 585 77 585 80 586 c 0,191,192
 85 588 85 588 85 591 c 0,193,194
 85 597 85 597 91 590 c 0,195,196
 93 588 93 588 94 585 c 0,197,198
 95 583 95 583 99 583 c 0,199,200
 106 583 106 583 106 572 c 0,201,202
 106 570 106 570 110.5 561 c 128,-1,203
 115 552 115 552 115 549 c 0,204,205
 115 547 115 547 116.5 532.5 c 128,-1,206
 118 518 118 518 118 512 c 0,207,208
 118 507 118 507 117.5 492.5 c 128,-1,209
 117 478 117 478 117 468 c 0,210,211
 117 356 117 356 126 311 c 0,212,213
 129 284 129 284 129 237 c 0,214,215
 129 214 129 214 127.5 187.5 c 128,-1,216
 126 161 126 161 126 143 c 0,217,218
 126 133 126 133 125 128 c 128,-1,219
 124 123 124 123 123 121.5 c 128,-1,220
 122 120 122 120 120 117 c 128,-1,221
 118 114 118 114 116 111 c 0,222,223
 110 100 110 100 92 102 c 0,224,225
 90 102 90 102 87 103 c 2,226,-1
 83 104 l 2,227,228
 81 106 81 106 78 106 c 0,229,230
 64 106 64 106 64 149 c 2,231,-1
 64 156 l 2,232,233
 66 164 66 164 66 201 c 0,234,235
 66 219 66 219 67 235 c 128,-1,236
 68 251 68 251 68 256 c 0,157,158
EndSplineSet
Validated: 1
EndChar

StartChar: i
Encoding: 73 73 30
AltUni2: 000069.ffffffff.0 000069.ffffffff.0
Width: 476
GlyphClass: 1
Flags: W
AnchorPoint: "vowel" 245 433 mark 0
LayerCount: 2
Fore
SplineSet
270.75 505.599609375 m 0,0,1
 268.5 505.599609375 268.5 505.599609375 266.25 507.125 c 128,-1,2
 264 508.649414062 264 508.649414062 260.0625 508.649414062 c 0,3,4
 253.3125 509.870117188 253.3125 509.870117188 251.625 509.870117188 c 2,5,-1
 248.8125 509.870117188 l 1,6,-1
 248.25 509.259765625 l 2,7,8
 247.125 509.259765625 247.125 509.259765625 245.71875 508.649414062 c 128,-1,9
 244.3125 508.040039062 244.3125 508.040039062 243.1875 508.040039062 c 0,10,11
 228.5625 504.379882812 228.5625 504.379882812 216.1875 493.399414062 c 0,12,13
 196.5 473.879882812 196.5 473.879882812 196.5 472.049804688 c 0,14,15
 189.1875 461.6796875 189.1875 461.6796875 188.625 461.0703125 c 0,16,17
 174 433.009765625 174 433.009765625 174 408 c 0,18,19
 174 394.580078125 174 394.580078125 177.9375 386.040039062 c 0,20,21
 179.0625 383.599609375 179.0625 383.599609375 179.0625 382.379882812 c 128,-1,22
 179.0625 381.16015625 179.0625 381.16015625 181.59375 375.974609375 c 128,-1,23
 184.125 370.790039062 184.125 370.790039062 184.125 370.1796875 c 0,24,25
 184.125 367.740234375 184.125 367.740234375 191.4375 359.809570312 c 128,-1,26
 198.75 351.879882812 198.75 351.879882812 202.125 350.66015625 c 0,27,28
 203.8125 350.049804688 203.8125 350.049804688 212.25 345.169921875 c 0,29,30
 216.1875 343.33984375 216.1875 343.33984375 228.5625 343.33984375 c 2,31,-1
 231.375 343.33984375 l 2,32,33
 240.375 343.33984375 240.375 343.33984375 242.625 343.950195312 c 128,-1,34
 244.875 344.559570312 244.875 344.559570312 252.1875 349.439453125 c 0,35,36
 255.5625 351.26953125 255.5625 351.26953125 259.78125 353.099609375 c 128,-1,37
 264 354.9296875 264 354.9296875 267.375 357.370117188 c 0,38,39
 285.375 368.959960938 285.375 368.959960938 285.9375 370.1796875 c 0,40,41
 287.0625 372.620117188 287.0625 372.620117188 287.625 372.620117188 c 0,42,43
 289.875 372.620117188 289.875 372.620117188 293.8125 378.109375 c 128,-1,44
 297.75 383.599609375 297.75 383.599609375 300 389.08984375 c 2,45,-1
 302.8125 394.580078125 l 2,46,47
 302.8125 395.189453125 302.8125 395.189453125 305.0625 398.849609375 c 0,48,49
 307.3125 401.899414062 307.3125 401.899414062 308.71875 409.830078125 c 128,-1,50
 310.125 417.759765625 310.125 417.759765625 311.8125 421.419921875 c 2,51,-1
 315.1875 428.740234375 l 1,52,-1
 314.625 442.16015625 l 2,53,54
 314.0625 457.41015625 314.0625 457.41015625 309 469.609375 c 0,55,56
 308.4375 471.439453125 308.4375 471.439453125 306.46875 476.9296875 c 128,-1,57
 304.5 482.419921875 304.5 482.419921875 303.09375 486.080078125 c 128,-1,58
 301.6875 489.740234375 301.6875 489.740234375 300.5625 489.740234375 c 128,-1,59
 299.4375 489.740234375 299.4375 489.740234375 296.90625 492.1796875 c 128,-1,60
 294.375 494.620117188 294.375 494.620117188 293.25 494.620117188 c 0,61,62
 290.4375 495.83984375 290.4375 495.83984375 289.3125 497.059570312 c 0,63,64
 280.3125 505.599609375 280.3125 505.599609375 270.75 505.599609375 c 0,0,1
242.625 540.370117188 m 0,65,66
 247.125 541.58984375 247.125 541.58984375 254.4375 541.58984375 c 0,67,68
 273.5625 541.58984375 273.5625 541.58984375 287.0625 537.9296875 c 0,69,70
 288.75 537.3203125 288.75 537.3203125 290.4375 537.3203125 c 2,71,-1
 291 537.3203125 l 2,72,73
 293.8125 537.3203125 293.8125 537.3203125 304.5 529.084960938 c 128,-1,74
 315.1875 520.849609375 315.1875 520.849609375 316.3125 520.240234375 c 0,75,76
 322.5 515.969726562 322.5 515.969726562 327.84375 507.125 c 128,-1,77
 333.1875 498.280273438 333.1875 498.280273438 334.875 493.705078125 c 128,-1,78
 336.5625 489.129882812 336.5625 489.129882812 341.625 475.709960938 c 0,79,80
 348.375 462.290039062 348.375 462.290039062 348.375 440.939453125 c 0,81,82
 348.375 437.889648438 348.375 437.889648438 347.25 433.009765625 c 0,83,84
 338.25 398.240234375 338.25 398.240234375 337.6875 397.01953125 c 0,85,86
 336.5625 391.530273438 336.5625 391.530273438 323.0625 363.469726562 c 1,87,-1
 320.25 359.809570312 l 2,88,89
 318 356.149414062 318 356.149414062 318 354.9296875 c 128,-1,90
 318 353.709960938 318 353.709960938 311.8125 347.915039062 c 128,-1,91
 305.625 342.120117188 305.625 342.120117188 303.375 340.899414062 c 0,92,93
 301.6875 340.290039062 301.6875 340.290039062 296.625 334.799804688 c 0,94,95
 287.0625 323.8203125 287.0625 323.8203125 280.875 321.379882812 c 0,96,97
 277.5 320.16015625 277.5 320.16015625 276.9375 319.549804688 c 0,98,99
 257.8125 307.959960938 257.8125 307.959960938 230.25 307.959960938 c 0,100,101
 210.5625 307.959960938 210.5625 307.959960938 191.4375 317.719726562 c 0,102,103
 180.75 323.8203125 180.75 323.8203125 172.3125 332.359375 c 0,104,105
 170.625 333.580078125 170.625 333.580078125 168.65625 335.71484375 c 128,-1,106
 166.6875 337.849609375 166.6875 337.849609375 165.5625 339.0703125 c 128,-1,107
 164.4375 340.290039062 164.4375 340.290039062 163.875 340.290039062 c 0,108,109
 162.1875 341.509765625 162.1875 341.509765625 159.375 345.474609375 c 128,-1,110
 156.5625 349.439453125 156.5625 349.439453125 157.125 350.049804688 c 0,111,112
 157.6875 351.879882812 157.6875 351.879882812 156.5625 354.625 c 128,-1,113
 155.4375 357.370117188 155.4375 357.370117188 153.75 360.724609375 c 128,-1,114
 152.0625 364.080078125 152.0625 364.080078125 151.5 364.689453125 c 0,115,116
 148.6875 373.83984375 148.6875 373.83984375 148.6875 375.669921875 c 0,117,118
 148.6875 381.76953125 148.6875 381.76953125 148.125 383.599609375 c 2,119,-1
 146.4375 389.08984375 l 2,120,121
 144.75 391.530273438 144.75 391.530273438 144.1875 391.530273438 c 0,122,123
 141.9375 390.919921875 141.9375 390.919921875 141.9375 392.75 c 0,124,125
 141.9375 393.969726562 141.9375 393.969726562 143.0625 393.969726562 c 0,126,127
 143.625 393.969726562 143.625 393.969726562 143.625 397.629882812 c 128,-1,128
 143.625 401.290039062 143.625 401.290039062 142.5 401.290039062 c 128,-1,129
 141.375 401.290039062 141.375 401.290039062 141.375 405.559570312 c 2,130,-1
 146.4375 437.280273438 l 2,131,132
 147 439.109375 147 439.109375 148.6875 442.76953125 c 128,-1,133
 150.375 446.4296875 150.375 446.4296875 151.78125 449.479492188 c 128,-1,134
 153.1875 452.530273438 153.1875 452.530273438 153.75 454.969726562 c 128,-1,135
 154.3125 457.41015625 154.3125 457.41015625 157.125 465.03515625 c 128,-1,136
 159.9375 472.66015625 159.9375 472.66015625 161.0625 473.26953125 c 0,137,138
 162.75 475.099609375 162.75 475.099609375 162.75 476.3203125 c 0,139,140
 163.3125 478.149414062 163.3125 478.149414062 165.5625 480.28515625 c 128,-1,141
 167.8125 482.419921875 167.8125 482.419921875 168.375 483.639648438 c 0,142,143
 170.625 488.51953125 170.625 488.51953125 174.5625 492.790039062 c 0,144,145
 176.8125 495.229492188 176.8125 495.229492188 176.8125 495.83984375 c 128,-1,146
 176.8125 496.450195312 176.8125 496.450195312 184.6875 509.259765625 c 0,147,148
 187.5 514.139648438 187.5 514.139648438 204.9375 525.729492188 c 0,149,150
 219.5625 535.490234375 219.5625 535.490234375 234.1875 537.9296875 c 0,151,152
 237.5625 538.540039062 237.5625 538.540039062 242.625 540.370117188 c 0,65,66
EndSplineSet
Validated: 524289
EndChar

StartChar: j
Encoding: 74 74 31
AltUni2: 00006a.ffffffff.0 00006a.ffffffff.0
Width: 662
GlyphClass: 1
Flags: W
AnchorPoint: "final" 283 -5 basechar 0
AnchorPoint: "vowel" 299 454 basechar 0
LayerCount: 2
Fore
SplineSet
243.440429688 87.1396484375 m 2,0,-1
 247.280273438 88.4501953125 l 2,1,2
 251.120117188 89.759765625 251.120117188 89.759765625 254.959960938 89.759765625 c 2,3,-1
 257.83984375 91.0703125 l 2,4,5
 259.759765625 88.4501953125 259.759765625 88.4501953125 264.080078125 91.724609375 c 128,-1,6
 268.400390625 95 268.400390625 95 270.3203125 100.240234375 c 0,7,8
 273.200195312 106.790039062 273.200195312 106.790039062 275.120117188 106.790039062 c 0,9,10
 278 106.790039062 278 106.790039062 291.440429688 127.75 c 128,-1,11
 304.879882812 148.709960938 304.879882812 148.709960938 304.879882812 152.639648438 c 0,12,13
 304.879882812 153.950195312 304.879882812 153.950195312 306.799804688 156.5703125 c 128,-1,14
 308.719726562 159.190429688 308.719726562 159.190429688 314 173.599609375 c 128,-1,15
 319.280273438 188.009765625 319.280273438 188.009765625 318.3203125 189.3203125 c 0,16,17
 317.360351562 193.25 317.360351562 193.25 314.959960938 193.25 c 128,-1,18
 312.559570312 193.25 312.559570312 193.25 308.719726562 191.28515625 c 128,-1,19
 304.879882812 189.3203125 304.879882812 189.3203125 302 189.3203125 c 0,20,21
 267.440429688 189.3203125 267.440429688 189.3203125 248.240234375 176.219726562 c 0,22,23
 242.48046875 172.290039062 242.48046875 172.290039062 240.559570312 172.290039062 c 0,24,25
 239.599609375 172.290039062 239.599609375 172.290039062 224.240234375 159.190429688 c 0,26,27
 205.040039062 143.469726562 205.040039062 143.469726562 199.280273438 131.6796875 c 2,28,-1
 192.559570312 119.889648438 l 1,29,30
 195.440429688 95 195.440429688 95 196.400390625 93.6904296875 c 0,31,32
 203.120117188 84.51953125 203.120117188 84.51953125 232.879882812 84.51953125 c 0,33,34
 238.639648438 84.51953125 238.639648438 84.51953125 239.599609375 85.830078125 c 128,-1,35
 240.559570312 87.1396484375 240.559570312 87.1396484375 243.440429688 87.1396484375 c 2,0,-1
353.83984375 345.209960938 m 0,36,37
 354.799804688 368.790039062 354.799804688 368.790039062 362.48046875 413.330078125 c 128,-1,38
 370.16015625 457.870117188 370.16015625 457.870117188 371.120117188 482.759765625 c 0,39,40
 371.120117188 491.9296875 371.120117188 491.9296875 372.559570312 501.754882812 c 128,-1,41
 374 511.580078125 374 511.580078125 374 515.509765625 c 0,42,43
 374 522.059570312 374 522.059570312 373.040039062 525.990234375 c 0,44,45
 371.120117188 536.469726562 371.120117188 536.469726562 370.16015625 536.469726562 c 2,46,-1
 368.240234375 535.16015625 l 2,47,48
 367.280273438 532.540039062 367.280273438 532.540039062 365.83984375 531.23046875 c 128,-1,49
 364.400390625 529.919921875 364.400390625 529.919921875 363.440429688 531.23046875 c 128,-1,50
 362.48046875 532.540039062 362.48046875 532.540039062 357.6796875 532.540039062 c 0,51,52
 353.83984375 531.23046875 353.83984375 531.23046875 340.400390625 523.370117188 c 128,-1,53
 326.959960938 515.509765625 326.959960938 515.509765625 321.200195312 512.889648438 c 0,54,55
 269.360351562 488 269.360351562 488 258.799804688 484.0703125 c 0,56,57
 247.280273438 480.139648438 247.280273438 480.139648438 238.639648438 474.900390625 c 128,-1,58
 230 469.66015625 230 469.66015625 222.3203125 468.349609375 c 0,59,60
 197.360351562 463.110351562 197.360351562 463.110351562 190.639648438 457.870117188 c 0,61,62
 162.799804688 443.459960938 162.799804688 443.459960938 148.400390625 443.459960938 c 0,63,64
 144.559570312 443.459960938 144.559570312 443.459960938 140.719726562 440.83984375 c 0,65,66
 138.799804688 439.530273438 138.799804688 439.530273438 118.639648438 436.91015625 c 0,67,68
 102.3203125 434.290039062 102.3203125 434.290039062 92.7197265625 438.219726562 c 0,69,70
 91.759765625 438.219726562 91.759765625 438.219726562 88.8798828125 439.530273438 c 128,-1,71
 86 440.83984375 86 440.83984375 84.080078125 441.495117188 c 128,-1,72
 82.16015625 442.150390625 82.16015625 442.150390625 81.2001953125 442.150390625 c 0,73,74
 76.400390625 442.150390625 76.400390625 442.150390625 75.4404296875 450.009765625 c 0,75,76
 74.48046875 459.1796875 74.48046875 459.1796875 70.6396484375 459.1796875 c 0,77,78
 67.759765625 459.1796875 67.759765625 459.1796875 66.7998046875 464.419921875 c 0,79,80
 62 480.139648438 62 480.139648438 66.7998046875 481.450195312 c 2,81,-1
 70.6396484375 478.830078125 l 2,82,83
 74.48046875 476.209960938 74.48046875 476.209960938 74.48046875 476.865234375 c 128,-1,84
 74.48046875 477.51953125 74.48046875 477.51953125 74.48046875 485.379882812 c 0,85,86
 74.48046875 495.860351562 74.48046875 495.860351562 91.759765625 503.719726562 c 128,-1,87
 109.040039062 511.580078125 109.040039062 511.580078125 121.51953125 511.580078125 c 0,88,89
 135.919921875 511.580078125 135.919921875 511.580078125 177.200195312 524.6796875 c 0,90,91
 190.639648438 528.610351562 190.639648438 528.610351562 214.639648438 538.434570312 c 128,-1,92
 238.639648438 548.259765625 238.639648438 548.259765625 246.3203125 550.879882812 c 0,93,94
 274.16015625 558.740234375 274.16015625 558.740234375 327.919921875 591.490234375 c 0,95,96
 344.240234375 600.66015625 344.240234375 600.66015625 349.040039062 605.900390625 c 0,97,98
 353.83984375 609.830078125 353.83984375 609.830078125 364.400390625 624.240234375 c 128,-1,99
 374.959960938 638.650390625 374.959960938 638.650390625 374.959960938 639.959960938 c 0,100,101
 374.959960938 642.580078125 374.959960938 642.580078125 379.759765625 646.509765625 c 0,102,103
 381.6796875 647.8203125 381.6796875 647.8203125 384.559570312 655.025390625 c 128,-1,104
 387.440429688 662.23046875 387.440429688 662.23046875 393.200195312 660.919921875 c 128,-1,105
 398.959960938 659.610351562 398.959960938 659.610351562 404.719726562 668.780273438 c 0,106,107
 410.48046875 676.639648438 410.48046875 676.639648438 414.3203125 676.639648438 c 128,-1,108
 418.16015625 676.639648438 418.16015625 676.639648438 420.080078125 672.0546875 c 128,-1,109
 422 667.469726562 422 667.469726562 424.879882812 667.469726562 c 0,110,111
 426.799804688 667.469726562 426.799804688 667.469726562 429.200195312 664.849609375 c 128,-1,112
 431.599609375 662.23046875 431.599609375 662.23046875 432.559570312 662.23046875 c 0,113,114
 436.400390625 662.23046875 436.400390625 662.23046875 444.080078125 646.509765625 c 1,115,-1
 443.120117188 630.790039062 l 2,116,117
 443.120117188 628.169921875 443.120117188 628.169921875 442.639648438 624.240234375 c 128,-1,118
 442.16015625 620.309570312 442.16015625 620.309570312 442.16015625 619 c 0,119,120
 442.16015625 613.759765625 442.16015625 613.759765625 443.599609375 603.934570312 c 128,-1,121
 445.040039062 594.110351562 445.040039062 594.110351562 445.040039062 584.940429688 c 0,122,123
 445.040039062 573.150390625 445.040039062 573.150390625 440.240234375 549.5703125 c 0,124,125
 435.440429688 528.610351562 435.440429688 528.610351562 432.559570312 494.549804688 c 0,126,127
 430.639648438 457.870117188 430.639648438 457.870117188 428.240234375 435.599609375 c 128,-1,128
 425.83984375 413.330078125 425.83984375 413.330078125 421.040039062 385.165039062 c 128,-1,129
 416.240234375 357 416.240234375 357 414.3203125 345.209960938 c 0,130,131
 409.51953125 322.940429688 409.51953125 322.940429688 409.51953125 308.530273438 c 0,132,133
 409.51953125 304.599609375 409.51953125 304.599609375 406.16015625 292.809570312 c 128,-1,134
 402.799804688 281.01953125 402.799804688 281.01953125 402.799804688 275.780273438 c 0,135,136
 402.799804688 261.370117188 402.799804688 261.370117188 422.959960938 265.299804688 c 0,137,138
 436.400390625 267.919921875 436.400390625 267.919921875 476.719726562 267.919921875 c 0,139,140
 490.16015625 267.919921875 490.16015625 267.919921875 509.83984375 269.23046875 c 128,-1,141
 529.51953125 270.540039062 529.51953125 270.540039062 531.440429688 270.540039062 c 2,142,-1
 540.080078125 270.540039062 l 2,143,144
 580.400390625 270.540039062 580.400390625 270.540039062 580.400390625 257.440429688 c 0,145,146
 580.400390625 254.8203125 580.400390625 254.8203125 588.080078125 249.580078125 c 128,-1,147
 595.759765625 244.33984375 595.759765625 244.33984375 594.799804688 239.099609375 c 2,148,-1
 590.959960938 228.620117188 l 2,149,150
 590 226 590 226 588.559570312 220.10546875 c 128,-1,151
 587.120117188 214.209960938 587.120117188 214.209960938 585.6796875 211.58984375 c 128,-1,152
 584.240234375 208.969726562 584.240234375 208.969726562 579.440429688 207.66015625 c 0,153,154
 569.83984375 205.040039062 569.83984375 205.040039062 556.400390625 205.040039062 c 0,155,156
 542 205.040039062 542 205.040039062 524.719726562 202.419921875 c 128,-1,157
 507.440429688 199.799804688 507.440429688 199.799804688 467.120117188 198.490234375 c 0,158,159
 429.6796875 194.559570312 429.6796875 194.559570312 389.360351562 194.559570312 c 0,160,161
 386.48046875 194.559570312 386.48046875 194.559570312 382.16015625 182.76953125 c 128,-1,162
 377.83984375 170.98046875 377.83984375 170.98046875 377.83984375 164.4296875 c 0,163,164
 377.83984375 161.809570312 377.83984375 161.809570312 372.080078125 134.299804688 c 0,165,166
 367.280273438 113.33984375 367.280273438 113.33984375 340.400390625 75.349609375 c 0,167,168
 325.040039062 54.3896484375 325.040039062 54.3896484375 324.080078125 54.3896484375 c 128,-1,169
 323.120117188 54.3896484375 323.120117188 54.3896484375 314.48046875 45.2197265625 c 0,170,171
 296.240234375 26.8798828125 296.240234375 26.8798828125 263.599609375 17.7099609375 c 0,172,173
 258.799804688 16.400390625 258.799804688 16.400390625 249.200195312 16.400390625 c 0,174,175
 238.639648438 16.400390625 238.639648438 16.400390625 192.559570312 32.1201171875 c 0,176,177
 185.83984375 33.4296875 185.83984375 33.4296875 180.559570312 36.705078125 c 128,-1,178
 175.280273438 39.98046875 175.280273438 39.98046875 171.440429688 41.2900390625 c 0,179,180
 161.83984375 45.2197265625 161.83984375 45.2197265625 152.240234375 53.080078125 c 0,181,182
 148.400390625 54.3896484375 148.400390625 54.3896484375 146.48046875 67.490234375 c 0,183,184
 142.639648438 98.9296875 142.639648438 98.9296875 142.639648438 100.240234375 c 0,185,186
 142.639648438 106.790039062 142.639648438 106.790039062 143.599609375 108.099609375 c 0,187,188
 146.48046875 115.959960938 146.48046875 115.959960938 146.48046875 125.129882812 c 0,189,190
 147.440429688 147.400390625 147.440429688 147.400390625 150.3203125 153.950195312 c 0,191,192
 152.240234375 159.190429688 152.240234375 159.190429688 152.240234375 167.049804688 c 0,193,194
 152.240234375 178.83984375 152.240234375 178.83984375 173.360351562 206.349609375 c 0,195,196
 183.919921875 220.759765625 183.919921875 220.759765625 188.719726562 222.0703125 c 0,197,198
 191.599609375 222.0703125 191.599609375 222.0703125 199.280273438 226.655273438 c 128,-1,199
 206.959960938 231.240234375 206.959960938 231.240234375 209.83984375 231.240234375 c 128,-1,200
 212.719726562 231.240234375 212.719726562 231.240234375 215.599609375 235.169921875 c 2,201,-1
 218.48046875 236.48046875 l 2,202,203
 221.360351562 239.099609375 221.360351562 239.099609375 224.719726562 241.719726562 c 128,-1,204
 228.080078125 244.33984375 228.080078125 244.33984375 230.959960938 245.650390625 c 0,205,206
 241.51953125 252.200195312 241.51953125 252.200195312 251.120117188 252.200195312 c 2,207,-1
 256.879882812 252.200195312 l 2,208,209
 267.440429688 252.200195312 267.440429688 252.200195312 275.120117188 254.8203125 c 0,210,211
 292.400390625 260.059570312 292.400390625 260.059570312 295.280273438 260.059570312 c 0,212,213
 315.440429688 260.059570312 315.440429688 260.059570312 335.599609375 267.919921875 c 0,214,215
 341.360351562 270.540039062 341.360351562 270.540039062 342.3203125 290.190429688 c 0,216,217
 342.3203125 296.740234375 342.3203125 296.740234375 345.6796875 305.91015625 c 128,-1,218
 349.040039062 315.080078125 349.040039062 315.080078125 349.040039062 319.009765625 c 0,219,220
 349.040039062 321.629882812 349.040039062 321.629882812 351.440429688 330.799804688 c 128,-1,221
 353.83984375 339.969726562 353.83984375 339.969726562 353.83984375 345.209960938 c 0,36,37
EndSplineSet
Validated: 524289
EndChar

StartChar: k
Encoding: 75 75 32
AltUni2: 00006b.ffffffff.0 00006b.ffffffff.0
Width: 417
GlyphClass: 1
Flags: W
AnchorPoint: "final" 170 79 basechar 0
AnchorPoint: "vowel" 195 541 mark 0
LayerCount: 2
Fore
SplineSet
358 472 m 2,0,-1
 352 460 l 2,1,2
 352 456 352 456 332 434 c 0,3,4
 316 417 316 417 276 403 c 0,5,6
 272 400 272 400 269 400 c 0,7,8
 265 400 265 400 244 393 c 128,-1,9
 223 386 223 386 219 386 c 0,10,11
 194 381 194 381 181 379 c 2,12,-1
 168 377 l 1,13,14
 162 385 162 385 157 387 c 0,15,16
 154 389 154 389 150.5 396.5 c 128,-1,17
 147 404 147 404 146 405 c 0,18,19
 142 411 142 411 148 411 c 0,20,21
 149 411 149 411 147.5 415 c 128,-1,22
 146 419 146 419 151 419 c 128,-1,23
 156 419 156 419 159 428 c 0,24,25
 160 432 160 432 171 432.5 c 128,-1,26
 182 433 182 433 184 435 c 2,27,-1
 186 436 l 2,28,29
 188 436 188 436 190 436.5 c 128,-1,30
 192 437 192 437 194 437 c 0,31,32
 208 439 208 439 225.5 444.5 c 128,-1,33
 243 450 243 450 250 451 c 0,34,35
 261 453 261 453 275 461 c 0,36,37
 280 463 280 463 285 469 c 128,-1,38
 290 475 290 475 289 477 c 0,39,40
 288 478 288 478 288 500 c 0,41,42
 286 561 286 561 281 566 c 0,43,44
 279 568 279 568 277 573.5 c 128,-1,45
 275 579 275 579 272 582 c 0,46,47
 267 589 267 589 267 590 c 128,-1,48
 267 591 267 591 254.5 602 c 128,-1,49
 242 613 242 613 240 613 c 0,50,51
 239 613 239 613 236 616 c 0,52,53
 233 618 233 618 222 622 c 128,-1,54
 211 626 211 626 208 626 c 128,-1,55
 205 626 205 626 202 627 c 128,-1,56
 199 628 199 628 194.5 630 c 128,-1,57
 190 632 190 632 187 633 c 0,58,59
 168 639 168 639 144 645 c 0,60,61
 143 645 143 645 138.5 646.5 c 128,-1,62
 134 648 134 648 132 648 c 0,63,64
 123 650 123 650 111 649 c 0,65,66
 101 647 101 647 93.5 649.5 c 128,-1,67
 86 652 86 652 81 652 c 0,68,69
 72 652 72 652 72 656 c 0,70,71
 72 659 72 659 71 661.5 c 128,-1,72
 70 664 70 664 70.5 667 c 128,-1,73
 71 670 71 670 74 675 c 0,74,75
 78 686 78 686 80 690.5 c 128,-1,76
 82 695 82 695 89 700 c 128,-1,77
 96 705 96 705 107 706 c 0,78,79
 114 707 114 707 127 707 c 0,80,81
 153 707 153 707 188 696 c 0,82,83
 215 687 215 687 217 687 c 0,84,85
 220 687 220 687 225 685 c 128,-1,86
 230 683 230 683 232 682 c 0,87,88
 235 682 235 682 243 679 c 128,-1,89
 251 676 251 676 254 676 c 0,90,91
 261 676 261 676 282.5 661 c 128,-1,92
 304 646 304 646 304 643 c 2,93,-1
 305 642 l 2,94,95
 306 640 306 640 308 638.5 c 128,-1,96
 310 637 310 637 311 635 c 0,97,98
 331 612 331 612 342 580 c 0,99,100
 343 575 343 575 346.5 570 c 128,-1,101
 350 565 350 565 351 554 c 0,102,103
 352 547 352 547 353 543.5 c 128,-1,104
 354 540 354 540 356 537 c 128,-1,105
 358 534 358 534 359 529 c 0,106,107
 361 521 361 521 362 520 c 128,-1,108
 363 519 363 519 363 503 c 0,109,110
 363 482 363 482 361 480 c 0,111,112
 358 474 358 474 358 472 c 2,0,-1
57 473 m 0,113,114
 57 478 57 478 56 484 c 128,-1,115
 55 490 55 490 54.5 491.5 c 128,-1,116
 54 493 54 493 55 495 c 0,117,118
 57 495 57 495 59 502 c 0,119,120
 63 515 63 515 67 519 c 128,-1,121
 71 523 71 523 80 523 c 128,-1,122
 89 523 89 523 87 530 c 0,123,124
 87 532 87 532 89 533 c 0,125,126
 94 536 94 536 101 530.5 c 128,-1,127
 108 525 108 525 110 520 c 0,128,129
 116 494 116 494 116 488 c 2,130,-1
 116 470 l 2,131,132
 119 465 119 465 121 368 c 0,133,134
 121 355 121 355 121.5 337.5 c 128,-1,135
 122 320 122 320 122.5 311 c 128,-1,136
 123 302 123 302 123 301 c 128,-1,137
 123 300 123 300 123.5 294 c 128,-1,138
 124 288 124 288 124 278 c 128,-1,139
 124 268 124 268 124 259 c 0,140,141
 124 240 124 240 125.5 215 c 128,-1,142
 127 190 127 190 127 177 c 0,143,144
 127 171 127 171 129 154.5 c 128,-1,145
 131 138 131 138 131 130 c 0,146,147
 131 120 131 120 129 116 c 0,148,149
 124 104 124 104 117 104 c 0,150,151
 116 104 116 104 113 103.5 c 128,-1,152
 110 103 110 103 108.5 102.5 c 128,-1,153
 107 102 107 102 106 103 c 0,154,155
 104 106 104 106 95 106 c 0,156,157
 89 106 89 106 85 107.5 c 128,-1,158
 81 109 81 109 79.5 111 c 128,-1,159
 78 113 78 113 76 118 c 128,-1,160
 74 123 74 123 73 125 c 0,161,162
 67 140 67 140 67 151 c 0,163,164
 67 156 67 156 65 170.5 c 128,-1,165
 63 185 63 185 63 194 c 0,166,167
 63 208 63 208 61.5 234 c 128,-1,168
 60 260 60 260 60 273 c 2,169,-1
 60 288 l 2,170,171
 62 306 62 306 60 319 c 0,172,173
 58 333 58 333 58 394 c 0,174,175
 58 414 58 414 57.5 443 c 128,-1,176
 57 472 57 472 57 473 c 0,113,114
EndSplineSet
Validated: 1
EndChar

StartChar: l
Encoding: 76 76 33
AltUni2: 00006c.ffffffff.0 00006c.ffffffff.0
Width: 782
GlyphClass: 1
Flags: W
AnchorPoint: "final" 382 45 basechar 0
AnchorPoint: "vowel" 477 553 basechar 0
LayerCount: 2
Fore
SplineSet
382 684 m 128,-1,1
 383 684 383 684 388.5 686.5 c 128,-1,2
 394 689 394 689 396 689 c 0,3,4
 400 689 400 689 410 691 c 0,5,6
 426 694 426 694 457 695 c 0,7,8
 483 696 483 696 486 698 c 0,9,10
 490 700 490 700 521 700 c 0,11,12
 551 700 551 700 561 698 c 0,13,14
 588 690 588 690 593 690 c 0,15,16
 594 690 594 690 596.5 689 c 128,-1,17
 599 688 599 688 602.5 686.5 c 128,-1,18
 606 685 606 685 609 684 c 0,19,20
 629 676 629 676 640 660 c 0,21,22
 642 657 642 657 652.5 645 c 128,-1,23
 663 633 663 633 666 629 c 0,24,25
 684 605 684 605 684 602 c 0,26,27
 684 601 684 601 686 599 c 0,28,29
 688 598 688 598 693 586.5 c 128,-1,30
 698 575 698 575 698 573 c 0,31,32
 698 568 698 568 706 552 c 128,-1,33
 714 536 714 536 714 529 c 0,34,35
 714 525 714 525 713 523 c 0,36,37
 699 502 699 502 691 502 c 2,38,-1
 687 502 l 2,39,40
 680 502 680 502 673 509 c 0,41,42
 668 514 668 514 663 512 c 0,43,44
 660 511 660 511 658.5 512.5 c 128,-1,45
 657 514 657 514 656 518.5 c 128,-1,46
 655 523 655 523 655 524 c 0,47,48
 654 527 654 527 646.5 541 c 128,-1,49
 639 555 639 555 639 560 c 0,50,51
 639 566 639 566 626 585.5 c 128,-1,52
 613 605 613 605 600 618 c 0,53,54
 598 620 598 620 587.5 625 c 128,-1,55
 577 630 577 630 575 630 c 128,-1,56
 573 630 573 630 569.5 632 c 128,-1,57
 566 634 566 634 562 635 c 0,58,59
 554 637 554 637 542 637 c 0,60,61
 539 637 539 637 528 636.5 c 128,-1,62
 517 636 517 636 509 636 c 2,63,-1
 458 636 l 2,64,65
 427 636 427 636 399 628 c 0,66,67
 384 624 384 624 384 623 c 0,68,69
 384 621 384 621 380 621 c 0,70,71
 372 621 372 621 326 584 c 0,72,73
 288 557 288 557 282 541 c 0,74,75
 281 537 281 537 281 533 c 128,-1,76
 281 529 281 529 274.5 517.5 c 128,-1,77
 268 506 268 506 268 501 c 0,78,79
 268 498 268 498 270 496 c 0,80,81
 276 492 276 492 308 492 c 0,82,83
 326 492 326 492 330 491 c 0,84,85
 334 491 334 491 349.5 489 c 128,-1,86
 365 487 365 487 368 487 c 0,87,88
 369 487 369 487 372 486.5 c 128,-1,89
 375 486 375 486 379.5 485 c 128,-1,90
 384 484 384 484 388 484 c 0,91,92
 393 484 393 484 414 480.5 c 128,-1,93
 435 477 435 477 446 477 c 0,94,95
 456 477 456 477 458 475 c 2,96,-1
 460 474 l 2,97,98
 463 474 463 474 466.5 474 c 128,-1,99
 470 474 470 474 474 474 c 0,100,101
 486 474 486 474 498.5 472 c 128,-1,102
 511 470 511 470 525 470 c 0,103,104
 532 470 532 470 545 469.5 c 128,-1,105
 558 469 558 469 560 469 c 2,106,-1
 579 469 l 2,107,108
 649 469 649 469 687 471 c 0,109,110
 702 472 702 472 706 463 c 0,111,112
 708 459 708 459 711 459 c 0,113,114
 713 459 713 459 716 456.5 c 128,-1,115
 719 454 719 454 720 454 c 0,116,117
 722 454 722 454 722 452 c 0,118,119
 722 449 722 449 725 445 c 0,120,121
 728 440 728 440 726 431 c 0,122,123
 721 413 721 413 696 387 c 0,124,125
 691 381 691 381 678 363.5 c 128,-1,126
 665 346 665 346 654 334 c 0,127,128
 638 317 638 317 638 315 c 0,129,130
 638 312 638 312 635 311 c 0,131,132
 626 305 626 305 605 275 c 0,133,134
 599 266 599 266 577.5 242.5 c 128,-1,135
 556 219 556 219 550 208 c 0,136,137
 543 196 543 196 513 163 c 0,138,139
 458 102 458 102 448 89 c 0,140,141
 445 85 445 85 425.5 64.5 c 128,-1,142
 406 44 406 44 401 35 c 0,143,144
 394 26 394 26 384 26 c 0,145,146
 380 26 380 26 380 24 c 0,147,148
 380 23 380 23 373 23 c 0,149,150
 370 23 370 23 363.5 27 c 128,-1,151
 357 31 357 31 355 31 c 0,152,153
 352 31 352 31 352 40 c 0,154,155
 352 45 352 45 353 54.5 c 128,-1,156
 354 64 354 64 354 65 c 0,157,158
 354 70 354 70 364 83 c 0,159,160
 365 84 365 84 390 111 c 0,161,162
 404 127 404 127 413 136 c 0,163,164
 428 154 428 154 437 163 c 0,165,166
 450 176 450 176 453 182 c 128,-1,167
 456 188 456 188 466.5 199 c 128,-1,168
 477 210 477 210 478 211 c 0,169,170
 480 213 480 213 488.5 224 c 128,-1,171
 497 235 497 235 499 238 c 128,-1,172
 501 241 501 241 542 296 c 0,173,174
 570 333 570 333 587 349 c 2,175,-1
 595 357 l 2,176,177
 595 360 595 360 607 372 c 0,178,179
 629 396 629 396 632 403 c 0,180,181
 633 404 633 404 633 406 c 0,182,183
 633 411 633 411 572 411 c 0,184,185
 481 411 481 411 414 421 c 0,186,187
 409 422 409 422 399 423.5 c 128,-1,188
 389 425 389 425 382.5 426.5 c 128,-1,189
 376 428 376 428 375 428 c 0,190,191
 365 428 365 428 331 431.5 c 128,-1,192
 297 435 297 435 286 435 c 0,193,194
 244 435 244 435 240 439 c 0,195,196
 237 440 237 440 228 438 c 128,-1,197
 219 436 219 436 216 439 c 2,198,-1
 211 441 l 2,199,200
 209 440 209 440 206.5 442 c 128,-1,201
 204 444 204 444 204 446 c 128,-1,202
 204 448 204 448 201 453.5 c 128,-1,203
 198 459 198 459 198 461 c 0,204,205
 198 462 198 462 197.5 464.5 c 128,-1,206
 197 467 197 467 197 468.5 c 128,-1,207
 197 470 197 470 197 471 c 0,208,209
 199 474 199 474 195 476 c 0,210,211
 194 476 194 476 194 473 c 128,-1,212
 194 470 194 470 192 470 c 128,-1,213
 190 470 190 470 189 473 c 0,214,215
 188 477 188 477 191.5 481.5 c 128,-1,216
 195 486 195 486 198 485 c 0,217,218
 208 485 208 485 208 493 c 0,219,220
 208 497 208 497 210.5 499 c 128,-1,221
 213 501 213 501 213 506 c 0,222,223
 213 508 213 508 215.5 515 c 128,-1,224
 218 522 218 522 218 525.5 c 128,-1,225
 218 529 218 529 215 532 c 0,226,227
 210 534 210 534 214 538 c 0,228,229
 215 538 215 538 215 542 c 128,-1,230
 215 546 215 546 216 546 c 0,231,232
 217 547 217 547 225.5 560.5 c 128,-1,233
 234 574 234 574 234 576 c 128,-1,234
 234 578 234 578 237.5 582.5 c 128,-1,235
 241 587 241 587 241 588 c 0,236,237
 241 590 241 590 248 596.5 c 128,-1,238
 255 603 255 603 257 603 c 128,-1,239
 259 603 259 603 269 613 c 0,240,241
 276 620 276 620 291 630 c 0,242,243
 296 633 296 633 313.5 647 c 128,-1,244
 331 661 331 661 344 668 c 0,245,246
 350 671 350 671 352 673 c 0,247,248
 352 674 352 674 355 674 c 0,249,250
 356 674 356 674 368.5 679 c 128,-1,0
 381 684 381 684 382 684 c 128,-1,1
EndSplineSet
Validated: 1
EndChar

StartChar: m
Encoding: 77 77 34
AltUni2: 00006d.ffffffff.0 00006d.ffffffff.0
Width: 610
GlyphClass: 1
Flags: W
AnchorPoint: "final" 280 139 basechar 0
AnchorPoint: "vowel" 288 407 basechar 0
LayerCount: 2
Fore
SplineSet
121 708 m 0,0,1
 122 708 122 708 130.5 710 c 128,-1,2
 139 712 139 712 142 709 c 0,3,4
 143 709 143 709 147 696 c 0,5,6
 151 684 151 684 153 650 c 0,7,8
 156 604 156 604 161 590 c 0,9,10
 161 589 161 589 161.5 587 c 128,-1,11
 162 585 162 585 162.5 583.5 c 128,-1,12
 163 582 163 582 163.5 580.5 c 128,-1,13
 164 579 164 579 164 578 c 0,14,15
 164 575 164 575 167 569 c 128,-1,16
 170 563 170 563 170 561 c 128,-1,17
 170 559 170 559 172 557 c 0,18,19
 187 542 187 542 187 535 c 0,20,21
 187 534 187 534 189 534 c 0,22,23
 190 534 190 534 196.5 529 c 128,-1,24
 203 524 203 524 204 524 c 0,25,26
 212 522 212 522 220.5 523.5 c 128,-1,27
 229 525 229 525 230 525 c 0,28,29
 240 525 240 525 253 538 c 0,30,31
 254 540 254 540 258.5 543.5 c 128,-1,32
 263 547 263 547 265 548 c 0,33,34
 284 563 284 563 287 572 c 0,35,36
 289 577 289 577 293.5 585 c 128,-1,37
 298 593 298 593 298 600 c 2,38,-1
 298 606 l 1,39,-1
 298 611 l 2,40,41
 298 615 298 615 299 620.5 c 128,-1,42
 300 626 300 626 300 629 c 0,43,44
 300 634 300 634 299 637 c 0,45,46
 297 645 297 645 299 645 c 0,47,48
 302 645 302 645 307 649.5 c 128,-1,49
 312 654 312 654 312 657 c 0,50,51
 310 666 310 666 318 672 c 0,52,53
 322 676 322 676 322 678 c 0,54,55
 323 680 323 680 325.5 679.5 c 128,-1,56
 328 679 328 679 333 677 c 128,-1,57
 338 675 338 675 340 675 c 0,58,59
 344 675 344 675 351 670 c 128,-1,60
 358 665 358 665 360 664 c 0,61,62
 368 662 368 662 368 636 c 2,63,-1
 368 609 l 2,64,65
 369 547 369 547 374 542 c 0,66,67
 376 540 376 540 376 537 c 0,68,69
 376 532 376 532 383.5 526.5 c 128,-1,70
 391 521 391 521 399 521 c 0,71,72
 403 521 403 521 407 523 c 128,-1,73
 411 525 411 525 414 525 c 0,74,75
 423 525 423 525 445.5 547.5 c 128,-1,76
 468 570 468 570 472 583 c 0,77,78
 472 584 472 584 478 595 c 128,-1,79
 484 606 484 606 484 611 c 0,80,81
 484 634 484 634 496 650 c 0,82,83
 501 655 501 655 501 658 c 0,84,85
 501 663 501 663 507.5 669.5 c 128,-1,86
 514 676 514 676 519 672 c 0,87,88
 521 669 521 669 525 670.5 c 128,-1,89
 529 672 529 672 532 671 c 0,90,91
 536 669 536 669 539 669 c 0,92,93
 544 669 544 669 548 664 c 0,94,95
 555 656 555 656 555 648 c 128,-1,96
 555 640 555 640 546 604 c 0,97,98
 542 586 542 586 535 574 c 0,99,100
 529 564 529 564 529 561 c 0,101,102
 529 560 529 560 525 555.5 c 128,-1,103
 521 551 521 551 521 549 c 0,104,105
 521 544 521 544 502 525 c 0,106,107
 498 520 498 520 486 508 c 128,-1,108
 474 496 474 496 473 496 c 0,109,110
 471 496 471 496 468 493 c 128,-1,111
 465 490 465 490 454 484 c 128,-1,112
 443 478 443 478 442 477 c 0,113,114
 425 466 425 466 406 466 c 0,115,116
 401 466 401 466 387 468 c 0,117,118
 378 470 378 470 365 470 c 0,119,120
 363 470 363 470 349.5 475.5 c 128,-1,121
 336 481 336 481 336 483 c 0,122,123
 336 484 336 484 330 488 c 0,124,125
 318 495 318 495 318 502 c 0,126,127
 318 504 318 504 314.5 507.5 c 128,-1,128
 311 511 311 511 308 511 c 128,-1,129
 305 511 305 511 301.5 507.5 c 128,-1,130
 298 504 298 504 296 503 c 0,131,132
 293 502 293 502 287 496.5 c 128,-1,133
 281 491 281 491 279 490 c 0,134,135
 277 490 277 490 274 486 c 128,-1,136
 271 482 271 482 268 482 c 2,137,-1
 260 478 l 2,138,139
 252 475 252 475 251 475 c 128,-1,140
 250 475 250 475 247 473 c 128,-1,141
 244 471 244 471 242 471 c 0,142,143
 237 471 237 471 237 469 c 0,144,145
 237 468 237 468 231 468 c 0,146,147
 230 468 230 468 219.5 466.5 c 128,-1,148
 209 465 209 465 204 465 c 128,-1,149
 199 465 199 465 198 466 c 0,150,151
 189 468 189 468 168 478 c 0,152,153
 164 479 164 479 155.5 485.5 c 128,-1,154
 147 492 147 492 145 494 c 0,155,156
 144 496 144 496 142 496 c 128,-1,157
 140 496 140 496 135.5 501 c 128,-1,158
 131 506 131 506 131 507 c 128,-1,159
 131 508 131 508 128 511 c 128,-1,160
 125 514 125 514 125 515 c 0,161,162
 125 519 125 519 124 519 c 2,163,-1
 122 522 l 2,164,165
 119 525 119 525 118 525.5 c 128,-1,166
 117 526 117 526 115 525 c 0,167,168
 114 524 114 524 114 504 c 2,169,-1
 114 481 l 2,170,171
 114 461 114 461 112 458 c 0,172,173
 110 454 110 454 112 453 c 0,174,175
 115 452 115 452 115 404 c 0,176,177
 115 360 115 360 114 327 c 0,178,179
 113 267 113 267 108 261 c 0,180,181
 102 253 102 253 102 231 c 0,182,183
 102 224 102 224 102.5 211 c 128,-1,184
 103 198 103 198 103 191 c 0,185,186
 103 159 103 159 104 148 c 2,187,-1
 106 128 l 1,188,189
 96 126 96 126 94 115 c 0,190,191
 93 110 93 110 89 110 c 0,192,193
 84 110 84 110 76.5 108.5 c 128,-1,194
 69 107 69 107 67 107 c 0,195,196
 59 107 59 107 55 122 c 0,197,198
 50 141 50 141 50 196 c 0,199,200
 50 231 50 231 52 310 c 128,-1,201
 54 389 54 389 54 430 c 0,202,203
 54 478 54 478 53 503 c 0,204,205
 53 512 53 512 52.5 537.5 c 128,-1,206
 52 563 52 563 52 577 c 0,207,208
 52 588 52 588 52 600 c 128,-1,209
 52 612 52 612 52.5 619 c 128,-1,210
 53 626 53 626 53 627 c 128,-1,211
 53 628 53 628 55 634 c 128,-1,212
 57 640 57 640 57.5 644 c 128,-1,213
 58 648 58 648 55 651 c 0,214,215
 51 653 51 653 56 663 c 0,216,217
 58 667 58 667 60 664 c 0,218,219
 66 658 66 658 65 669 c 0,220,221
 65 671 65 671 65 674 c 0,222,223
 64 682 64 682 66 682 c 128,-1,224
 68 682 68 682 68 680 c 128,-1,225
 68 678 68 678 69 678 c 128,-1,226
 70 678 70 678 70 680 c 0,227,228
 69 682 69 682 70.5 683 c 128,-1,229
 72 684 72 684 74 682 c 0,230,231
 75 681 75 681 78 685 c 128,-1,232
 81 689 81 689 81 691 c 0,233,234
 80 693 80 693 83 693 c 2,235,-1
 91 691 l 2,236,237
 99 686 99 686 100 691 c 0,238,239
 100 692 100 692 102.5 695.5 c 128,-1,240
 105 699 105 699 107 702 c 128,-1,241
 109 705 109 705 109 706 c 0,242,243
 109 710 109 710 121 708 c 0,0,1
EndSplineSet
Validated: 1
EndChar

StartChar: n
Encoding: 78 78 35
AltUni2: 00006e.ffffffff.0 00006e.ffffffff.0
Width: 597
GlyphClass: 1
Flags: W
AnchorPoint: "final" 292 94 basechar 0
AnchorPoint: "vowel" 338 546 mark 0
LayerCount: 2
Fore
SplineSet
233 639 m 0,0,1
 233 641 233 641 240 646 c 128,-1,2
 247 651 247 651 247 654 c 0,3,4
 247 656 247 656 249 658.5 c 128,-1,5
 251 661 251 661 253.5 661.5 c 128,-1,6
 256 662 256 662 257 660 c 0,7,8
 259 658 259 658 263 660.5 c 128,-1,9
 267 663 267 663 272 667 c 128,-1,10
 277 671 277 671 279 671 c 2,11,-1
 286 675 l 2,12,13
 287 676 287 676 303.5 681.5 c 128,-1,14
 320 687 320 687 324 688 c 2,15,-1
 330 688 l 2,16,17
 337 689 337 689 342 689 c 0,18,19
 365 689 365 689 379 683 c 0,20,21
 385 681 385 681 387 681 c 2,22,-1
 401 674 l 2,23,24
 406 672 406 672 427.5 661.5 c 128,-1,25
 449 651 449 651 450 650 c 0,26,27
 453 647 453 647 455 647 c 0,28,29
 458 647 458 647 471 632 c 0,30,31
 478 624 478 624 505 588 c 2,32,-1
 511 580 l 2,33,34
 511 579 511 579 514 573 c 128,-1,35
 517 567 517 567 517 555 c 0,36,37
 517 545 517 545 519 537 c 0,38,39
 520 528 520 528 523 478 c 128,-1,40
 526 428 526 428 529 412 c 0,41,42
 537 356 537 356 537 353 c 0,43,44
 543 302 543 302 543 293 c 0,45,46
 544 284 544 284 544 267 c 128,-1,47
 544 250 544 250 541.5 219.5 c 128,-1,48
 539 189 539 189 539 176 c 0,49,50
 539 170 539 170 540 160 c 2,51,-1
 540 150 l 2,52,53
 540 146 540 146 535 139 c 128,-1,54
 530 132 530 132 526 132 c 0,55,56
 523 132 523 132 523 130 c 0,57,58
 520 127 520 127 516.5 127 c 128,-1,59
 513 127 513 127 506 129 c 128,-1,60
 499 131 499 131 497 131 c 2,61,-1
 496 131 l 2,62,63
 488 131 488 131 487 178 c 0,64,65
 487 184 487 184 486 196 c 128,-1,66
 485 208 485 208 485 211 c 0,67,68
 485 213 485 213 486 227 c 128,-1,69
 487 241 487 241 487 248 c 0,70,71
 487 256 487 256 486 257 c 0,72,73
 484 259 484 259 484 279 c 0,74,75
 484 286 484 286 484 296 c 2,76,-1
 483 305 l 2,77,78
 483 306 483 306 482 311 c 128,-1,79
 481 316 481 316 481 319 c 128,-1,80
 481 322 481 322 479 331 c 128,-1,81
 477 340 477 340 479 342 c 0,82,83
 480 345 480 345 478.5 349.5 c 128,-1,84
 477 354 477 354 477 358 c 0,85,86
 473 375 473 375 473 387 c 0,87,88
 471 417 471 417 469 419 c 128,-1,89
 467 421 467 421 468 431 c 128,-1,90
 469 441 469 441 469 442 c 0,91,92
 466 446 466 446 466 493 c 0,93,94
 466 520 466 520 468 528 c 0,95,96
 469 530 469 530 464.5 535.5 c 128,-1,97
 460 541 460 541 460 542 c 0,98,99
 460 544 460 544 454 550.5 c 128,-1,100
 448 557 448 557 448 559 c 128,-1,101
 448 561 448 561 441 571 c 128,-1,102
 434 581 434 581 434 583 c 0,103,104
 434 584 434 584 421 597 c 0,105,106
 407 611 407 611 381 624 c 0,107,108
 361 634 361 634 347 634 c 0,109,110
 336 634 336 634 317.5 625.5 c 128,-1,111
 299 617 299 617 298 617 c 0,112,113
 293 615 293 615 284 608 c 0,114,115
 282 606 282 606 280 604 c 128,-1,116
 278 602 278 602 276 601 c 2,117,-1
 275 600 l 2,118,119
 273 600 273 600 267.5 591.5 c 128,-1,120
 262 583 262 583 255 570.5 c 128,-1,121
 248 558 248 558 245 554 c 0,122,123
 234 535 234 535 232 506 c 0,124,125
 232 500 232 500 230 490.5 c 128,-1,126
 228 481 228 481 228 473 c 0,127,128
 228 458 228 458 226 457 c 0,129,130
 224 455 224 455 224 452 c 0,131,132
 224 448 224 448 219.5 443.5 c 128,-1,133
 215 439 215 439 212 439 c 0,134,135
 208 439 208 439 208 437 c 1,136,-1
 204 437 l 2,137,138
 200 439 200 439 187 439 c 0,139,140
 182 439 182 439 179 446 c 0,141,142
 175 453 175 453 170 454 c 0,143,144
 164 455 164 455 163 459 c 0,145,146
 163 461 163 461 161.5 464.5 c 128,-1,147
 160 468 160 468 160 471 c 0,148,149
 160 477 160 477 157.5 484 c 128,-1,150
 155 491 155 491 150.5 499 c 128,-1,151
 146 507 146 507 144 511 c 0,152,153
 122 572 122 572 90 604 c 0,154,155
 87 607 87 607 82 614 c 128,-1,156
 77 621 77 621 73 625 c 2,157,-1
 65 636 l 2,158,159
 64 638 64 638 59.5 642 c 128,-1,160
 55 646 55 646 57 651 c 0,161,162
 59 652 59 652 57.5 656.5 c 128,-1,163
 56 661 56 661 56 664 c 0,164,165
 56 671 56 671 59 671 c 0,166,167
 61 671 61 671 68 677 c 128,-1,168
 75 683 75 683 75 685 c 0,169,170
 76 686 76 686 85 684 c 2,171,-1
 89 684 l 2,172,173
 104 684 104 684 123 660 c 0,174,175
 128 654 128 654 138 641.5 c 128,-1,176
 148 629 148 629 152 625 c 0,177,178
 168 606 168 606 169 605 c 0,179,180
 172 600 172 600 172 597 c 128,-1,181
 172 594 172 594 174 594 c 0,182,183
 175 594 175 594 180 585.5 c 128,-1,184
 185 577 185 577 187 577 c 0,185,186
 190 577 190 577 192.5 579.5 c 128,-1,187
 195 582 195 582 195 584 c 128,-1,188
 195 586 195 586 202.5 597 c 128,-1,189
 210 608 210 608 213 611 c 128,-1,190
 216 614 216 614 216 615 c 0,191,192
 216 620 216 620 230 634 c 0,193,194
 230 635 230 635 232 637 c 0,195,196
 233 638 233 638 233 639 c 0,0,1
EndSplineSet
Validated: 1
EndChar

StartChar: o
Encoding: 79 79 36
AltUni2: 00006f.ffffffff.0 00006f.ffffffff.0
Width: 162
GlyphClass: 1
Flags: W
AnchorPoint: "vowel" 82 348 mark 0
LayerCount: 2
Fore
SplineSet
67 571 m 0,0,1
 67 572 67 572 69 576 c 0,2,3
 73 591 73 591 70 591 c 0,4,5
 64 591 64 591 65 594 c 0,6,7
 67 599 67 599 73 600 c 0,8,9
 81 601 81 601 83 606 c 0,10,11
 87 611 87 611 88 611 c 256,12,13
 89 611 89 611 91.5 610.5 c 128,-1,14
 94 610 94 610 95 610 c 0,15,16
 97 610 97 610 97 605 c 0,17,18
 97 599 97 599 102 598 c 0,19,20
 108 596 108 596 109.5 593.5 c 128,-1,21
 111 591 111 591 111 580 c 0,22,23
 111 574 111 574 110 564.5 c 128,-1,24
 109 555 109 555 109 552 c 0,25,26
 108 546 108 546 107 539 c 0,27,28
 105 531 105 531 105 450 c 0,29,30
 105 346 105 346 106 264 c 0,31,32
 106 208 106 208 101 146 c 0,33,34
 100 122 100 122 101 118 c 0,35,36
 104 108 104 108 92 108 c 0,37,38
 88 108 88 108 85 106 c 128,-1,39
 82 104 82 104 77 104 c 0,40,41
 70 104 70 104 70 106 c 0,42,43
 70 109 70 109 69 110 c 0,44,45
 66 111 66 111 66 109.5 c 128,-1,46
 66 108 66 108 66.5 105 c 128,-1,47
 67 102 67 102 66 101 c 0,48,49
 64 101 64 101 64 103 c 128,-1,50
 64 105 64 105 61 105 c 0,51,52
 59 105 59 105 57 109 c 0,53,54
 54 113 54 113 54 156 c 2,55,-1
 54 204 l 1,56,-1
 54 268 l 2,57,58
 53 286 53 286 53 346 c 2,59,-1
 53 372 l 2,60,61
 53 390 53 390 52 397 c 0,62,63
 51 403 51 403 51 435 c 0,64,65
 51 489 51 489 53 493 c 0,66,67
 58 501 58 501 58 525 c 0,68,69
 58 538 58 538 59 538 c 0,70,71
 60 539 60 539 58.5 543.5 c 128,-1,72
 57 548 57 548 60 549 c 0,73,74
 63 551 63 551 63 558 c 0,75,76
 63 562 63 562 65 565.5 c 128,-1,77
 67 569 67 569 67 571 c 0,0,1
EndSplineSet
Validated: 1
EndChar

StartChar: p
Encoding: 80 80 37
AltUni2: 000070.ffffffff.0 000070.ffffffff.0
Width: 620
GlyphClass: 1
Flags: W
AnchorPoint: "final" 352 122 basechar 0
AnchorPoint: "vowel" 314 532 basechar 0
LayerCount: 2
Fore
SplineSet
162 262 m 0,0,1
 160 268 160 268 141 260 c 0,2,3
 116 248 116 248 116 232 c 0,4,5
 116 229 116 229 115 229 c 128,-1,6
 114 229 114 229 114 227 c 128,-1,7
 114 225 114 225 114.5 219.5 c 128,-1,8
 115 214 115 214 116 205 c 0,9,10
 121 168 121 168 131 168 c 0,11,12
 140 168 140 168 147 184 c 2,13,-1
 150 190 l 2,14,15
 150 191 150 191 154 195 c 0,16,17
 163 204 163 204 163 248 c 0,18,19
 163 260 163 260 162 262 c 0,0,1
60 247 m 0,20,21
 60 248 60 248 65 256 c 128,-1,22
 70 264 70 264 70 265 c 0,23,24
 70 269 70 269 80.5 281.5 c 128,-1,25
 91 294 91 294 94 294 c 0,26,27
 96 294 96 294 98 296 c 0,28,29
 108 306 108 306 119 309 c 0,30,31
 134 313 134 313 140 319 c 128,-1,32
 146 325 146 325 154 325 c 0,33,34
 164 325 164 325 160 347 c 0,35,36
 159 350 159 350 157.5 366.5 c 128,-1,37
 156 383 156 383 154 388 c 0,38,39
 146 422 146 422 145 450 c 0,40,41
 144 481 144 481 139 502 c 0,42,43
 136 513 136 513 136 522 c 0,44,45
 133 552 133 552 124 578 c 2,46,-1
 122 584 l 2,47,48
 120 589 120 589 118.5 593.5 c 128,-1,49
 117 598 117 598 118 598 c 1,50,51
 106 630 106 630 105 633 c 0,52,53
 102 640 102 640 102 648 c 128,-1,54
 102 656 102 656 101 661 c 0,55,56
 94 678 94 678 98 680 c 0,57,58
 108 690 108 690 110 691 c 2,59,-1
 116 693 l 1,60,61
 123 686 123 686 129 686 c 0,62,63
 138 686 138 686 143 683 c 0,64,65
 151 679 151 679 153 679 c 2,66,-1
 157 677 l 2,67,68
 158 676 158 676 169.5 672 c 128,-1,69
 181 668 181 668 183 668 c 0,70,71
 195 664 195 664 203 664 c 0,72,73
 222 664 222 664 259 653 c 0,74,75
 271 648 271 648 275 648 c 128,-1,76
 279 648 279 648 281 646 c 2,77,-1
 284 645 l 2,78,79
 286 644 286 644 289.5 643.5 c 128,-1,80
 293 643 293 643 296 642 c 0,81,82
 338 630 338 630 373 625 c 0,83,84
 377 625 377 625 385.5 623 c 128,-1,85
 394 621 394 621 399 621 c 0,86,87
 408 621 408 621 412 619 c 0,88,89
 414 618 414 618 462 616 c 0,90,91
 540 613 540 613 547 609 c 0,92,93
 555 605 555 605 555 601 c 0,94,95
 555 599 555 599 557.5 595.5 c 128,-1,96
 560 592 560 592 561 590 c 0,97,98
 564 580 564 580 563 578 c 256,99,100
 562 576 562 576 560 574 c 0,101,102
 555 569 555 569 555 566 c 0,103,104
 555 564 555 564 547 564 c 0,105,106
 541 564 541 564 539 562 c 0,107,108
 537 557 537 557 516 560 c 0,109,110
 502 562 502 562 473 562 c 0,111,112
 415 564 415 564 399 567 c 0,113,114
 389 569 389 569 384 569 c 0,115,116
 378 569 378 569 373 571 c 128,-1,117
 368 573 368 573 361 574 c 0,118,119
 289 584 289 584 254 599 c 0,120,121
 250 601 250 601 248 601 c 2,122,-1
 236 605 l 2,123,124
 232 606 232 606 215.5 608.5 c 128,-1,125
 199 611 199 611 195 613 c 0,126,127
 189 615 189 615 181 615.5 c 128,-1,128
 173 616 173 616 173 614 c 0,129,130
 172 612 172 612 172 608.5 c 128,-1,131
 172 605 172 605 174 604 c 0,132,133
 175 604 175 604 175 600 c 128,-1,134
 175 596 175 596 177 594 c 0,135,136
 183 590 183 590 183 573 c 0,137,138
 183 572 183 572 188 545 c 0,139,140
 192 525 192 525 197 513 c 0,141,142
 200 506 200 506 202 463 c 0,143,144
 202 453 202 453 207 408 c 0,145,146
 207 404 207 404 209 398 c 0,147,148
 214 386 214 386 217 350 c 0,149,150
 218 344 218 344 220.5 334 c 128,-1,151
 223 324 223 324 223 318 c 2,152,-1
 223 293 l 1,153,-1
 223 264 l 2,154,155
 223 255 223 255 222 245.5 c 128,-1,156
 221 236 221 236 221 224 c 0,157,158
 221 216 221 216 220 211 c 128,-1,159
 219 206 219 206 218 201 c 128,-1,160
 217 196 217 196 216 191 c 0,161,162
 215 188 215 188 212.5 181.5 c 128,-1,163
 210 175 210 175 210 172 c 0,164,165
 210 171 210 171 207 164.5 c 128,-1,166
 204 158 204 158 204 157 c 0,167,168
 204 150 204 150 189.5 135.5 c 128,-1,169
 175 121 175 121 171 121 c 0,170,171
 169 121 169 121 167 119 c 0,172,173
 165 115 165 115 156.5 112.5 c 128,-1,174
 148 110 148 110 137 108 c 128,-1,175
 126 106 126 106 122 105 c 0,176,177
 112 103 112 103 99 111 c 0,178,179
 76 125 76 125 76 132 c 0,180,181
 67 153 67 153 67 154 c 0,182,183
 53 196 53 196 53 218 c 0,184,185
 53 231 53 231 57 239 c 0,186,187
 60 243 60 243 60 247 c 0,20,21
EndSplineSet
Validated: 1
EndChar

StartChar: q
Encoding: 81 81 38
AltUni2: 000071.ffffffff.0 000071.ffffffff.0
Width: 543
GlyphClass: 1
Flags: W
AnchorPoint: "final" 264 134 mark 0
LayerCount: 2
Fore
SplineSet
367 165 m 0,0,1
 372 165 372 165 384 164 c 128,-1,2
 396 163 396 163 398 163 c 2,3,-1
 401 164 l 2,4,5
 401 165 401 165 403 169 c 0,6,7
 405 172 405 172 444 172 c 2,8,-1
 486 172 l 1,9,-1
 490 138 l 2,10,11
 489 137 489 137 489 134 c 0,12,13
 489 133 489 133 482.5 125 c 128,-1,14
 476 117 476 117 474 115 c 0,15,16
 470 112 470 112 431 108 c 0,17,18
 414 106 414 106 412 104 c 0,19,20
 407 99 407 99 392 99 c 2,21,-1
 366 99 l 1,22,23
 265 104 265 104 183 105 c 2,24,-1
 145 105 l 2,25,26
 133 105 133 105 121.5 105.5 c 128,-1,27
 110 106 110 106 107 106 c 0,28,29
 94 106 94 106 82 103 c 0,30,31
 79 103 79 103 78 105 c 0,32,33
 78 108 78 108 70 112 c 0,34,35
 62 117 62 117 62 122 c 0,36,37
 62 126 62 126 61.5 127 c 128,-1,38
 61 128 61 128 57 128 c 0,39,40
 49 128 49 128 55 133 c 2,41,-1
 58 134 l 2,42,43
 63 136 63 136 62 140 c 0,44,45
 61 145 61 145 66.5 155 c 128,-1,46
 72 165 72 165 78 162 c 0,47,48
 86 159 86 159 96 164 c 0,49,50
 99 166 99 166 201 167 c 0,51,52
 216 167 216 167 232 167 c 128,-1,53
 248 167 248 167 260.5 167.5 c 128,-1,54
 273 168 273 168 282.5 168.5 c 128,-1,55
 292 169 292 169 298 169 c 2,56,-1
 303 169 l 2,57,58
 309 169 309 169 333 167 c 128,-1,59
 357 165 357 165 367 165 c 0,0,1
EndSplineSet
EndChar

StartChar: r
Encoding: 82 82 39
AltUni2: 000072.ffffffff.0 000072.ffffffff.0
Width: 675
GlyphClass: 1
Flags: W
AnchorPoint: "final" 298 70 basechar 0
AnchorPoint: "vowel" 179 370 basechar 0
LayerCount: 2
Fore
SplineSet
217 504 m 0,0,1
 217 505 217 505 215.5 506.5 c 128,-1,2
 214 508 214 508 213 507 c 128,-1,3
 212 506 212 506 213 504 c 128,-1,4
 214 502 214 502 215 502 c 0,5,6
 217 502 217 502 217 504 c 0,0,1
117 574 m 0,7,8
 117 570 117 570 115.5 565.5 c 128,-1,9
 114 561 114 561 114 555 c 2,10,-1
 114 545 l 1,11,-1
 119 545 l 2,12,13
 120 545 120 545 125.5 545.5 c 128,-1,14
 131 546 131 546 134 546 c 0,15,16
 143 547 143 547 152 544 c 0,17,18
 159 542 159 542 179 542 c 0,19,20
 204 543 204 543 214 547 c 128,-1,21
 224 551 224 551 228 563 c 0,22,23
 233 577 233 577 233 590 c 0,24,25
 233 615 233 615 214 622 c 0,26,27
 206 624 206 624 179 624 c 0,28,29
 163 624 163 624 161 623 c 0,30,31
 146 618 146 618 135 609 c 0,32,33
 123 599 123 599 120 593.5 c 128,-1,34
 117 588 117 588 117 574 c 0,7,8
141 682 m 0,35,36
 143 682 143 682 147.5 684.5 c 128,-1,37
 152 687 152 687 154 687 c 2,38,-1
 160 687 l 2,39,40
 200 687 200 687 240 677 c 0,41,42
 257 673 257 673 281 653 c 0,43,44
 289 646 289 646 291 643 c 0,45,46
 296 631 296 631 296 608 c 0,47,48
 296 583 296 583 287 547 c 0,49,50
 285 538 285 538 273 523.5 c 128,-1,51
 261 509 261 509 257 509 c 0,52,53
 255 509 255 509 250.5 505.5 c 128,-1,54
 246 502 246 502 243 502 c 0,55,56
 227 500 227 500 225 493 c 0,57,58
 224 491 224 491 229 486 c 128,-1,59
 234 481 234 481 236 481 c 0,60,61
 237 481 237 481 239.5 478.5 c 128,-1,62
 242 476 242 476 243 476 c 128,-1,63
 244 476 244 476 248.5 472.5 c 128,-1,64
 253 469 253 469 255 469 c 0,65,66
 258 469 258 469 258 468 c 0,67,68
 275 455 275 455 276 455 c 0,69,70
 278 455 278 455 280.5 452 c 128,-1,71
 283 449 283 449 284 449 c 128,-1,72
 285 449 285 449 292 444.5 c 128,-1,73
 299 440 299 440 299 439 c 2,74,-1
 305 435 l 1,75,-1
 317 427 l 2,76,77
 323 423 323 423 324 423 c 128,-1,78
 325 423 325 423 335 415 c 0,79,80
 341 410 341 410 370 388 c 0,81,82
 374 386 374 386 394 366 c 0,83,84
 395 365 395 365 401 361 c 128,-1,85
 407 357 407 357 411 353 c 128,-1,86
 415 349 415 349 415 347 c 2,87,-1
 418 344 l 2,88,89
 422 343 422 343 428 337.5 c 128,-1,90
 434 332 434 332 441 325 c 128,-1,91
 448 318 448 318 452 315 c 0,92,93
 462 307 462 307 466 303 c 0,94,95
 477 292 477 292 504 271.5 c 128,-1,96
 531 251 531 251 542 240 c 0,97,98
 546 236 546 236 553.5 226 c 128,-1,99
 561 216 561 216 566 211 c 2,100,-1
 586 191 l 2,101,102
 599 178 599 178 600 178 c 0,103,104
 602 178 602 178 606 172.5 c 128,-1,105
 610 167 610 167 611 167 c 0,106,107
 614 167 614 167 618 155.5 c 128,-1,108
 622 144 622 144 620 142 c 2,109,-1
 615 135 l 2,110,111
 610 124 610 124 604 123 c 0,112,113
 603 123 603 123 601 122.5 c 128,-1,114
 599 122 599 122 598 121 c 128,-1,115
 597 120 597 120 588.5 115.5 c 128,-1,116
 580 111 580 111 578 111 c 0,117,118
 564 111 564 111 538 139 c 0,119,120
 513 168 513 168 490 191 c 0,121,122
 489 192 489 192 487 194 c 0,123,124
 485 197 485 197 484 197 c 0,125,126
 482 197 482 197 472 207 c 0,127,128
 463 216 463 216 453 224 c 0,129,130
 448 228 448 228 430 245 c 128,-1,131
 412 262 412 262 404 268 c 0,132,133
 389 280 389 280 381 288 c 0,134,135
 367 302 367 302 365 303 c 0,136,137
 364 303 364 303 356.5 311 c 128,-1,138
 349 319 349 319 347 319 c 128,-1,139
 345 319 345 319 340.5 324.5 c 128,-1,140
 336 330 336 330 335 330 c 2,141,-1
 333 332 l 2,142,143
 331 334 331 334 329.5 336 c 128,-1,144
 328 338 328 338 326 340 c 2,145,-1
 324 341 l 2,146,147
 323 341 323 341 319 345 c 0,148,149
 317 348 317 348 303.5 356.5 c 128,-1,150
 290 365 290 365 286 370 c 0,151,152
 273 383 273 383 270 383 c 0,153,154
 269 383 269 383 259.5 390 c 128,-1,155
 250 397 250 397 249 397 c 0,156,157
 247 397 247 397 243 401 c 0,158,159
 230 414 230 414 229 414 c 0,160,161
 224 417 224 417 221 419 c 0,162,163
 202 433 202 433 191 433 c 0,164,165
 187 433 187 433 187 435 c 0,166,167
 186 436 186 436 178.5 439.5 c 128,-1,168
 171 443 171 443 169 443 c 0,169,170
 168 443 168 443 161.5 449 c 128,-1,171
 155 455 155 455 154 455 c 0,172,173
 152 455 152 455 152 456 c 0,174,175
 152 458 152 458 149 458 c 0,176,177
 147 458 147 458 141.5 463 c 128,-1,178
 136 468 136 468 136 470 c 128,-1,179
 136 472 136 472 134 472 c 2,180,181
 134 472 134 472 131 474 c 0,182,183
 117 483 117 483 117 478 c 0,184,185
 117 476 117 476 118.5 465.5 c 128,-1,186
 120 455 120 455 119 447 c 0,187,188
 119 445 119 445 118.5 441.5 c 128,-1,189
 118 438 118 438 118 437 c 0,190,191
 118 432 118 432 119 423 c 128,-1,192
 120 414 120 414 120 410 c 0,193,194
 120 403 120 403 119 399 c 0,195,196
 117 371 117 371 117 323 c 0,197,198
 117 304 117 304 118.5 286.5 c 128,-1,199
 120 269 120 269 120 257 c 2,200,-1
 120 250 l 2,201,202
 120 192 120 192 127 153 c 0,203,204
 127 152 127 152 127.5 145 c 128,-1,205
 128 138 128 138 128 133 c 2,206,-1
 128 126 l 2,207,208
 128 113 128 113 125 108.5 c 128,-1,209
 122 104 122 104 113 104 c 0,210,211
 109 104 109 104 107.5 100.5 c 128,-1,212
 106 97 106 97 98 102 c 0,213,214
 89 108 89 108 89 101 c 0,215,216
 89 99 89 99 87 99 c 0,217,218
 86 99 86 99 86 101 c 0,219,220
 88 106 88 106 82 110 c 0,221,222
 76 116 76 116 76 128 c 0,223,224
 76 132 76 132 73 133 c 0,225,226
 71 135 71 135 69.5 151.5 c 128,-1,227
 68 168 68 168 67 170 c 0,228,229
 60 200 60 200 60 227 c 0,230,231
 60 230 60 230 59.5 234.5 c 128,-1,232
 59 239 59 239 58 245.5 c 128,-1,233
 57 252 57 252 57 256 c 0,234,235
 55 276 55 276 55 308 c 0,236,237
 55 365 55 365 58 402 c 0,238,239
 59 410 59 410 59 424 c 0,240,241
 59 431 59 431 57 455 c 0,242,243
 52 502 52 502 52 508 c 128,-1,244
 52 514 52 514 53 515 c 0,245,246
 54 518 54 518 53 521 c 0,247,248
 51 527 51 527 51 535 c 0,249,250
 51 538 51 538 55 578 c 0,251,252
 59 616 59 616 74 638 c 0,253,254
 83 651 83 651 110 666 c 0,255,256
 135 682 135 682 141 682 c 0,35,36
EndSplineSet
Validated: 1
EndChar

StartChar: s
Encoding: 83 83 40
AltUni2: 000073.ffffffff.0 000073.ffffffff.0
Width: 746
GlyphClass: 1
Flags: W
AnchorPoint: "final" 365 133 basechar 0
AnchorPoint: "vowel" 375 475 basechar 0
LayerCount: 2
Fore
SplineSet
61 167 m 128,-1,1
 61 168 61 168 64 172 c 128,-1,2
 67 176 67 176 67 177 c 0,3,4
 67 179 67 179 68 181 c 128,-1,5
 69 183 69 183 70.5 186 c 128,-1,6
 72 189 72 189 73 191 c 0,7,8
 74 194 74 194 78 201 c 128,-1,9
 82 208 82 208 83 212 c 128,-1,10
 84 216 84 216 92.5 229 c 128,-1,11
 101 242 101 242 102 245 c 128,-1,12
 103 248 103 248 104 250 c 128,-1,13
 105 252 105 252 106.5 254.5 c 128,-1,14
 108 257 108 257 110 260 c 0,15,16
 113 266 113 266 117 271 c 128,-1,17
 121 276 121 276 123 280 c 2,18,-1
 129 290 l 2,19,20
 130 290 130 290 134 296.5 c 128,-1,21
 138 303 138 303 142 310 c 2,22,-1
 146 318 l 2,23,24
 148 320 148 320 156 334 c 128,-1,25
 164 348 164 348 167 352 c 0,26,27
 173 360 173 360 173 364 c 0,28,29
 175 368 175 368 180 375.5 c 128,-1,30
 185 383 185 383 188 390 c 0,31,32
 192 399 192 399 193 399 c 0,33,34
 195 401 195 401 195 402 c 128,-1,35
 195 403 195 403 202 417 c 0,36,37
 205 423 205 423 212 436 c 128,-1,38
 219 449 219 449 221 454 c 0,39,40
 222 456 222 456 227 463.5 c 128,-1,41
 232 471 232 471 232 474 c 0,42,43
 232 479 232 479 243 496 c 0,44,45
 250 505 250 505 269 550 c 0,46,47
 269 551 269 551 273 558 c 128,-1,48
 277 565 277 565 277 568 c 0,49,50
 277 572 277 572 290 596 c 0,51,52
 297 608 297 608 297 611 c 128,-1,53
 297 614 297 614 300 615 c 2,54,-1
 307 629 l 2,55,56
 308 631 308 631 312.5 640 c 128,-1,57
 317 649 317 649 320 653 c 0,58,59
 322 655 322 655 324 660 c 2,60,-1
 325 665 l 2,61,62
 325 676 325 676 334 685 c 0,63,64
 336 687 336 687 336 689 c 128,-1,65
 336 691 336 691 347 702 c 0,66,67
 359 714 359 714 362 713 c 0,68,69
 364 712 364 712 368 713.5 c 128,-1,70
 372 715 372 715 373 713 c 0,71,72
 374 712 374 712 380 708.5 c 128,-1,73
 386 705 386 705 388 703 c 0,74,75
 391 700 391 700 398 698 c 0,76,77
 407 695 407 695 408 686 c 0,78,79
 408 683 408 683 412.5 678 c 128,-1,80
 417 673 417 673 422.5 667 c 128,-1,81
 428 661 428 661 429 660 c 0,82,83
 431 654 431 654 440 636.5 c 128,-1,84
 449 619 449 619 453 610 c 0,85,86
 467 579 467 579 470 571 c 0,87,88
 477 556 477 556 479 552 c 0,89,90
 483 546 483 546 483 545 c 0,91,92
 483 543 483 543 484 542 c 0,93,94
 493 533 493 533 511 488 c 0,95,96
 521 464 521 464 533 442 c 0,97,98
 542 428 542 428 542 426 c 0,99,100
 542 425 542 425 545 421 c 128,-1,101
 548 417 548 417 549 414 c 0,102,103
 553 408 553 408 561 391 c 0,104,105
 572 369 572 369 582 355 c 0,106,107
 591 342 591 342 599 329 c 0,108,109
 604 323 604 323 607 314 c 0,110,111
 614 293 614 293 627 277 c 0,112,113
 632 269 632 269 639.5 255 c 128,-1,114
 647 241 647 241 649 238 c 0,115,116
 654 230 654 230 663 210.5 c 128,-1,117
 672 191 672 191 675 186 c 0,118,119
 690 156 690 156 690 142 c 2,120,-1
 691 135 l 1,121,-1
 686 135 l 2,122,123
 681 135 681 135 680 133 c 128,-1,124
 679 131 679 131 675.5 131 c 128,-1,125
 672 131 672 131 670 130 c 0,126,127
 667 128 667 128 662 129 c 0,128,129
 650 133 650 133 638 157 c 0,130,131
 634 167 634 167 630.5 174 c 128,-1,132
 627 181 627 181 621.5 190 c 128,-1,133
 616 199 616 199 611 208 c 0,134,135
 600 230 600 230 598 232 c 128,-1,136
 596 234 596 234 596 236 c 0,137,138
 596 239 596 239 585 254 c 2,139,-1
 574 270 l 2,140,141
 572 274 572 274 568 280 c 128,-1,142
 564 286 564 286 561 291 c 0,143,144
 551 316 551 316 537 335 c 0,145,146
 520 360 520 360 508 387 c 0,147,148
 499 407 499 407 493 413 c 2,149,-1
 488 419 l 2,150,151
 488 422 488 422 464 472 c 0,152,153
 455 490 455 490 455 492 c 128,-1,154
 455 494 455 494 453 497.5 c 128,-1,155
 451 501 451 501 451 504 c 128,-1,156
 451 507 451 507 447.5 512.5 c 128,-1,157
 444 518 444 518 444 520 c 0,158,159
 444 521 444 521 438 529 c 128,-1,160
 432 537 432 537 432 538 c 0,161,162
 432 542 432 542 431 542 c 0,163,164
 429 542 429 542 429 545 c 0,165,166
 429 546 429 546 423 559.5 c 128,-1,167
 417 573 417 573 417 574 c 0,168,169
 417 577 417 577 409.5 593 c 128,-1,170
 402 609 402 609 400 611 c 128,-1,171
 398 613 398 613 398 615 c 256,172,173
 398 617 398 617 400 616.5 c 128,-1,174
 402 616 402 616 402 613 c 128,-1,175
 402 610 402 610 405 610 c 0,176,177
 407 611 407 611 404 618 c 0,178,179
 404 620 404 620 402 623 c 128,-1,180
 400 626 400 626 400 628 c 128,-1,181
 400 630 400 630 392 652 c 0,182,183
 390 655 390 655 390 655 c 129,-1,184
 390 655 390 655 388 653 c 0,185,186
 385 650 385 650 386 646 c 0,187,188
 387 643 387 643 386 642 c 128,-1,189
 385 641 385 641 383 642 c 0,190,191
 380 643 380 643 377.5 640 c 128,-1,192
 375 637 375 637 372.5 632.5 c 128,-1,193
 370 628 370 628 369 627 c 0,194,195
 366 624 366 624 366 621 c 0,196,197
 366 617 366 617 354 595 c 128,-1,198
 342 573 342 573 336 567 c 0,199,200
 334 565 334 565 330 556.5 c 128,-1,201
 326 548 326 548 327 547 c 0,202,203
 329 545 329 545 318 522 c 128,-1,204
 307 499 307 499 306 498 c 0,205,206
 304 496 304 496 304 493 c 0,207,208
 304 492 304 492 297 478 c 0,209,210
 289 464 289 464 285 455 c 0,211,212
 281 445 281 445 278 442 c 0,213,214
 273 437 273 437 273 434 c 0,215,216
 268 426 268 426 268 424 c 128,-1,217
 268 422 268 422 265 418 c 128,-1,218
 262 414 262 414 261 412 c 0,219,220
 260 411 260 411 257 405 c 128,-1,221
 254 399 254 399 254 397 c 0,222,223
 254 396 254 396 250.5 390 c 128,-1,224
 247 384 247 384 247 383 c 128,-1,225
 247 382 247 382 244 376 c 128,-1,226
 241 370 241 370 241 369 c 128,-1,227
 241 368 241 368 239 366 c 0,228,229
 237 366 237 366 237 363 c 2,230,-1
 231 355 l 2,231,232
 229 352 229 352 226 346 c 128,-1,233
 223 340 223 340 220 337 c 2,234,-1
 217 331 l 2,235,236
 217 327 217 327 208 315.5 c 128,-1,237
 199 304 199 304 199 302 c 2,238,-1
 185 279 l 2,239,240
 178 269 178 269 171 256 c 0,241,242
 161 234 161 234 156 229 c 0,243,244
 153 226 153 226 153 224 c 0,245,246
 153 223 153 223 151 219 c 0,247,248
 148 216 148 216 135 190 c 0,249,250
 132 185 132 185 130 180.5 c 128,-1,251
 128 176 128 176 126 171 c 0,252,253
 108 133 108 133 94 121 c 0,254,255
 90 118 90 118 83.5 118 c 128,-1,256
 77 118 77 118 76 121 c 0,257,258
 75 123 75 123 72 123 c 128,-1,259
 69 123 69 123 67 124 c 0,260,261
 64 127 64 127 62 127 c 128,-1,262
 60 127 60 127 60 129 c 0,263,264
 60 132 60 132 61 132 c 0,265,266
 63 132 63 132 63 137 c 0,267,268
 63 141 63 141 67 141 c 0,269,270
 75 141 75 141 69 147 c 0,271,272
 67 148 67 148 63.5 145.5 c 128,-1,273
 60 143 60 143 58 143 c 0,274,275
 54 143 54 143 55 149 c 0,276,277
 55 151 55 151 55.5 154.5 c 128,-1,278
 56 158 56 158 56 159 c 0,279,280
 56 161 56 161 58.5 163.5 c 128,-1,0
 61 166 61 166 61 167 c 128,-1,1
EndSplineSet
Validated: 1
EndChar

StartChar: t
Encoding: 84 84 41
AltUni2: 000074.ffffffff.0 000074.ffffffff.0
Width: 672
GlyphClass: 1
Flags: W
AnchorPoint: "final" 299 60 basechar 0
AnchorPoint: "vowel" 395 566 basechar 0
LayerCount: 2
Fore
SplineSet
349 707 m 0,0,1
 358 707 358 707 374.5 710.5 c 128,-1,2
 391 714 391 714 398 714 c 0,3,4
 403 714 403 714 407 716 c 0,5,6
 409 717 409 717 415 717 c 0,7,8
 422 717 422 717 438.5 715 c 128,-1,9
 455 713 455 713 459 713 c 0,10,11
 482 713 482 713 508 707 c 0,12,13
 527 702 527 702 561 677 c 0,14,15
 568 672 568 672 579.5 656.5 c 128,-1,16
 591 641 591 641 593 635 c 0,17,18
 593 634 593 634 594.5 629.5 c 128,-1,19
 596 625 596 625 597 623 c 0,20,21
 600 618 600 618 604.5 603.5 c 128,-1,22
 609 589 609 589 610 587 c 0,23,24
 616 572 616 572 618 552 c 0,25,26
 619 546 619 546 615 529 c 0,27,28
 612 515 612 515 600 491 c 0,29,30
 594 477 594 477 594 476 c 2,31,-1
 588 468 l 1,32,-1
 583 460 l 2,33,34
 583 459 583 459 575.5 448 c 128,-1,35
 568 437 568 437 566 435 c 2,36,-1
 555 424 l 2,37,38
 539 410 539 410 525 410 c 0,39,40
 519 410 519 410 509 414 c 0,41,42
 504 419 504 419 501 424 c 0,43,44
 497 432 497 432 497 440 c 0,45,46
 498 447 498 447 508 458 c 0,47,48
 513 463 513 463 513 465 c 128,-1,49
 513 467 513 467 523.5 479.5 c 128,-1,50
 534 492 534 492 534 493 c 0,51,52
 535 496 535 496 537.5 501 c 128,-1,53
 540 506 540 506 541 508 c 0,54,55
 548 521 548 521 548 551 c 0,56,57
 548 555 548 555 548 560 c 128,-1,58
 548 565 548 565 548 568 c 2,59,-1
 547 572 l 2,60,61
 546 577 546 577 540 591.5 c 128,-1,62
 534 606 534 606 533 611 c 0,63,64
 526 641 526 641 485 656 c 0,65,66
 467 662 467 662 455 662 c 2,67,-1
 454 662 l 1,68,-1
 451 662 l 2,69,70
 448 663 448 663 442 663.5 c 128,-1,71
 436 664 436 664 431 664 c 0,72,73
 407 666 407 666 406 666 c 0,74,75
 395 666 395 666 380 661 c 0,76,77
 365 658 365 658 358 658 c 0,78,79
 316 656 316 656 293 646 c 0,80,81
 289 644 289 644 287 644 c 0,82,83
 284 644 284 644 278 641 c 0,84,85
 208 606 208 606 207 605 c 0,86,87
 203 601 203 601 201 601 c 0,88,89
 198 601 198 601 195 598 c 0,90,91
 169 572 169 572 167 569 c 0,92,93
 163 563 163 563 156 556 c 0,94,95
 152 552 152 552 149 552 c 0,96,97
 148 552 148 552 142.5 550 c 128,-1,98
 137 548 137 548 135 549 c 128,-1,99
 133 550 133 550 127 550 c 0,100,101
 124 549 124 549 119.5 551 c 128,-1,102
 115 553 115 553 114 555 c 0,103,104
 114 562 114 562 112 563 c 0,105,106
 109 564 109 564 110 573 c 0,107,108
 112 590 112 590 119 594 c 0,109,110
 125 597 125 597 126 601 c 0,111,112
 128 605 128 605 139.5 616.5 c 128,-1,113
 151 628 151 628 155 630 c 0,114,115
 157 631 157 631 165 636.5 c 128,-1,116
 173 642 173 642 179.5 646 c 128,-1,117
 186 650 186 650 188 650 c 128,-1,118
 190 650 190 650 194 654 c 128,-1,119
 198 658 198 658 246 682 c 0,120,121
 250 686 250 686 264.5 690 c 128,-1,122
 279 694 279 694 295.5 697.5 c 128,-1,123
 312 701 312 701 316 702 c 0,124,125
 333 707 333 707 349 707 c 0,0,1
224 584 m 0,126,127
 225 584 225 584 230.5 587 c 128,-1,128
 236 590 236 590 238 590 c 0,129,130
 242 591 242 591 249 596 c 128,-1,131
 256 601 256 601 258 604 c 0,132,133
 259 608 259 608 275 610 c 0,134,135
 302 612 302 612 302 604 c 0,136,137
 302 602 302 602 306 600 c 0,138,139
 313 596 313 596 313 585 c 0,140,141
 313 571 313 571 304 571 c 0,142,143
 301 571 301 571 301 569 c 128,-1,144
 301 567 301 567 285 562 c 0,145,146
 276 560 276 560 251 541.5 c 128,-1,147
 226 523 226 523 226 519 c 0,148,149
 226 517 226 517 219 512 c 0,150,151
 213 507 213 507 196 483 c 0,152,153
 195 482 195 482 193.5 480 c 128,-1,154
 192 478 192 478 191 476.5 c 128,-1,155
 190 475 190 475 188.5 473.5 c 128,-1,156
 187 472 187 472 186 470.5 c 128,-1,157
 185 469 185 469 184 468 c 0,158,159
 179 463 179 463 179 460 c 0,160,161
 179 458 179 458 176 456 c 128,-1,162
 173 454 173 454 173 453 c 2,163,-1
 172 451 l 2,164,165
 171 449 171 449 169 446.5 c 128,-1,166
 167 444 167 444 166 442 c 0,167,168
 160 432 160 432 149 410 c 0,169,170
 148 407 148 407 146.5 404 c 128,-1,171
 145 401 145 401 143.5 398.5 c 128,-1,172
 142 396 142 396 141 393.5 c 128,-1,173
 140 391 140 391 139 389.5 c 128,-1,174
 138 388 138 388 138 386 c 2,175,-1
 137 385 l 2,176,177
 135 383 135 383 135 381 c 0,178,179
 135 377 135 377 125 357 c 0,180,181
 112 334 112 334 112 319 c 0,182,183
 112 301 112 301 120 281 c 0,184,185
 120 276 120 276 123 276 c 0,186,187
 125 276 125 276 133 260 c 0,188,189
 145 234 145 234 173 215 c 0,190,191
 206 192 206 192 216 192 c 0,192,193
 217 192 217 192 227 188 c 0,194,195
 244 182 244 182 256 184 c 0,196,197
 258 184 258 184 271.5 185 c 128,-1,198
 285 186 285 186 292 186 c 0,199,200
 320 186 320 186 347 190 c 0,201,202
 406 201 406 201 425 201 c 0,203,204
 436 201 436 201 437 198 c 2,205,-1
 441 192 l 2,206,207
 445 185 445 185 445 183 c 0,208,209
 445 179 445 179 446 178 c 0,210,211
 449 174 449 174 446 166 c 128,-1,212
 443 158 443 158 438 156 c 0,213,214
 434 155 434 155 427.5 151 c 128,-1,215
 421 147 421 147 421 146 c 0,216,217
 421 144 421 144 400.5 137.5 c 128,-1,218
 380 131 380 131 376 131 c 128,-1,219
 372 131 372 131 371 130 c 0,220,221
 366 125 366 125 319 125 c 0,222,223
 304 125 304 125 295 123.5 c 128,-1,224
 286 122 286 122 273 122 c 0,225,226
 238 122 238 122 198 140 c 0,227,228
 197 141 197 141 176.5 151 c 128,-1,229
 156 161 156 161 148 169 c 0,230,231
 145 172 145 172 144 172 c 0,232,233
 138 172 138 172 123 189 c 128,-1,234
 108 206 108 206 85 242 c 0,235,236
 83 246 83 246 76.5 254 c 128,-1,237
 70 262 70 262 68 267 c 0,238,239
 68 268 68 268 67 270 c 128,-1,240
 66 272 66 272 64.5 275 c 128,-1,241
 63 278 63 278 62 279 c 0,242,243
 55 292 55 292 55 314 c 0,244,245
 55 345 55 345 65 363 c 0,246,247
 72 384 72 384 76 386 c 0,248,249
 78 386 78 386 78 390 c 0,250,251
 78 392 78 392 81.5 398.5 c 128,-1,252
 85 405 85 405 85 406 c 128,-1,253
 85 407 85 407 92 423 c 0,254,255
 98 435 98 435 103 446 c 128,-1,256
 108 457 108 457 111 463 c 0,257,258
 132 495 132 495 135 496 c 0,259,260
 138 498 138 498 137 499 c 0,261,262
 137 500 137 500 140 502 c 128,-1,263
 143 504 143 504 143 506 c 128,-1,264
 143 508 143 508 145.5 511.5 c 128,-1,265
 148 515 148 515 151 518.5 c 128,-1,266
 154 522 154 522 155 523 c 0,267,268
 156 526 156 526 167 537 c 0,269,270
 170 540 170 540 178 549.5 c 128,-1,271
 186 559 186 559 192 563 c 0,272,273
 193 564 193 564 195.5 566.5 c 128,-1,274
 198 569 198 569 200 570.5 c 128,-1,275
 202 572 202 572 203 572 c 0,276,277
 206 572 206 572 213 575.5 c 128,-1,278
 220 579 220 579 221 581 c 0,279,280
 221 584 221 584 224 584 c 0,126,127
EndSplineSet
Validated: 1
EndChar

StartChar: u
Encoding: 85 85 42
AltUni2: 000075.ffffffff.0 000075.ffffffff.0
Width: 567
GlyphClass: 1
Flags: W
AnchorPoint: "vowel" 292 425 mark 0
LayerCount: 2
Fore
SplineSet
284 461 m 0,0,1
 294 461 294 461 306 462 c 128,-1,2
 318 463 318 463 323 463 c 0,3,4
 324 463 324 463 337.5 462.5 c 128,-1,5
 351 462 351 462 375 461.5 c 128,-1,6
 399 461 399 461 414 461 c 0,7,8
 423 461 423 461 437 460 c 128,-1,9
 451 459 451 459 452 459 c 0,10,11
 457 458 457 458 476 458 c 0,12,13
 484 458 484 458 487.5 457.5 c 128,-1,14
 491 457 491 457 491.5 456 c 128,-1,15
 492 455 492 455 494 453 c 128,-1,16
 496 451 496 451 499 449 c 0,17,18
 513 439 513 439 513 425 c 0,19,20
 513 420 513 420 512 417 c 0,21,22
 510 411 510 411 507.5 407.5 c 128,-1,23
 505 404 505 404 500 400 c 128,-1,24
 495 396 495 396 493 394 c 128,-1,25
 491 392 491 392 481 392 c 0,26,27
 477 392 477 392 470 392.5 c 128,-1,28
 463 393 463 393 450.5 393.5 c 128,-1,29
 438 394 438 394 427 394 c 0,30,31
 363 396 363 396 299 396 c 0,32,33
 253 396 253 396 245 395 c 0,34,35
 229 393 229 393 193 393 c 0,36,37
 167 393 167 393 130.5 390 c 128,-1,38
 94 387 94 387 70 387 c 2,39,-1
 60 387 l 1,40,-1
 60 393 l 2,41,42
 60 395 60 395 61 399 c 128,-1,43
 62 403 62 403 61.5 405 c 128,-1,44
 61 407 61 407 59 407 c 128,-1,45
 57 407 57 407 57 408 c 256,46,47
 57 409 57 409 59 409 c 0,48,49
 66 409 66 409 59 416 c 256,50,51
 52 423 52 423 57 423 c 0,52,53
 58 423 58 423 59 423 c 0,54,55
 66 423 66 423 70 426 c 1,56,57
 64 432 64 432 64 433 c 0,58,59
 64 436 64 436 73 436 c 0,60,61
 76 436 76 436 74 439 c 2,62,-1
 74 443 l 2,63,64
 74 446 74 446 70 446 c 0,65,66
 68 446 68 446 66.5 447 c 128,-1,67
 65 448 65 448 65.5 448.5 c 128,-1,68
 66 449 66 449 68 449 c 256,69,70
 70 449 70 449 76.5 446.5 c 128,-1,71
 83 444 83 444 87 443.5 c 128,-1,72
 91 443 91 443 96 446 c 0,73,74
 99 449 99 449 110 449 c 0,75,76
 128 450 128 450 138 451.5 c 128,-1,77
 148 453 148 453 157 454 c 128,-1,78
 166 455 166 455 189 455 c 0,79,80
 230 455 230 455 231 456 c 0,81,82
 241 461 241 461 284 461 c 0,0,1
EndSplineSet
Validated: 1
EndChar

StartChar: w
Encoding: 87 87 43
AltUni2: 000077.ffffffff.0 000077.ffffffff.0
Width: 779
GlyphClass: 1
Flags: W
AnchorPoint: "final" 343 132 basechar 0
AnchorPoint: "vowel" 505 592 basechar 0
LayerCount: 2
Fore
SplineSet
636 521 m 0,0,1
 636 525 636 525 635.5 533.5 c 128,-1,2
 635 542 635 542 635 559 c 0,3,4
 636 596 636 596 640 601 c 0,5,6
 641 602 641 602 641.5 606 c 128,-1,7
 642 610 642 610 641 612 c 0,8,9
 639 616 639 616 645 633 c 0,10,11
 648 641 648 641 645.5 643 c 128,-1,12
 643 645 643 645 633 645 c 0,13,14
 622 645 622 645 614 649 c 0,15,16
 603 653 603 653 585 655 c 0,17,18
 573 657 573 657 562 657 c 0,19,20
 552 657 552 657 542 655 c 0,21,22
 504 650 504 650 496 650 c 0,23,24
 486 650 486 650 480 652 c 0,25,26
 468 654 468 654 463 654 c 0,27,28
 460 654 460 654 453 653.5 c 128,-1,29
 446 653 446 653 442 653 c 0,30,31
 434 653 434 653 429 654 c 0,32,33
 419 656 419 656 415 654.5 c 128,-1,34
 411 653 411 653 410 646 c 0,35,36
 409 644 409 644 406 640 c 128,-1,37
 403 636 403 636 404 633 c 0,38,39
 406 630 406 630 392 611 c 0,40,41
 385 602 385 602 385 599 c 2,42,-1
 377 588 l 2,43,44
 366 571 366 571 346 551 c 0,45,46
 332 537 332 537 327 536 c 0,47,48
 322 534 322 534 311.5 526.5 c 128,-1,49
 301 519 301 519 298 517 c 0,50,51
 262 496 262 496 257 496 c 0,52,53
 253 496 253 496 253 495 c 0,54,55
 250 492 250 492 220 478 c 0,56,57
 217 477 217 477 213.5 474 c 128,-1,58
 210 471 210 471 207 471 c 128,-1,59
 204 471 204 471 198 468 c 128,-1,60
 192 465 192 465 121 440 c 0,61,62
 79 426 79 426 69 426 c 0,63,64
 64 426 64 426 62 429 c 0,65,66
 62 431 62 431 58 431 c 0,67,68
 57 431 57 431 57 435 c 0,69,70
 57 441 57 441 56 441 c 128,-1,71
 55 441 55 441 55 458 c 0,72,73
 55 474 55 474 58 474 c 0,74,75
 59 474 59 474 61 476 c 2,76,-1
 65 479 l 2,77,78
 71 484 71 484 88.5 488.5 c 128,-1,79
 106 493 106 493 110 495 c 0,80,81
 115 497 115 497 139.5 505.5 c 128,-1,82
 164 514 164 514 167 515 c 0,83,84
 175 518 175 518 185 525 c 128,-1,85
 195 532 195 532 202 535 c 0,86,87
 212 539 212 539 216 543 c 2,88,-1
 246 560 l 2,89,90
 300 589 300 589 314 606 c 0,91,92
 323 616 323 616 334.5 633.5 c 128,-1,93
 346 651 346 651 346 653 c 2,94,-1
 349 659 l 2,95,96
 356 668 356 668 356 679 c 0,97,98
 356 681 356 681 359 684 c 0,99,100
 361 685 361 685 363 691 c 0,101,102
 363 695 363 695 365 697 c 0,103,104
 366 698 366 698 368 710 c 0,105,106
 371 728 371 728 373 735 c 0,107,108
 374 737 374 737 375 740 c 128,-1,109
 376 743 376 743 376.5 745 c 128,-1,110
 377 747 377 747 378 749 c 2,111,-1
 378 751 l 2,112,113
 378 754 378 754 383 759 c 0,114,115
 385 761 385 761 389 768 c 128,-1,116
 393 775 393 775 397.5 779.5 c 128,-1,117
 402 784 402 784 408 784 c 0,118,119
 417 784 417 784 417 778 c 2,120,-1
 417 773 l 2,121,122
 417 769 417 769 421 769 c 128,-1,123
 425 769 425 769 425 766 c 0,124,125
 425 762 425 762 430 763 c 0,126,127
 436 764 436 764 437 760.5 c 128,-1,128
 438 757 438 757 436 750 c 128,-1,129
 434 743 434 743 434 741 c 0,130,131
 434 736 434 736 433 736 c 0,132,133
 431 734 431 734 429 724.5 c 128,-1,134
 427 715 427 715 428 711 c 128,-1,135
 429 707 429 707 437 705.5 c 128,-1,136
 445 704 445 704 450 706 c 0,137,138
 462 709 462 709 494 709 c 2,139,-1
 539 709 l 2,140,141
 546 709 546 709 548 711 c 0,142,143
 553 715 553 715 566 715 c 0,144,145
 572 715 572 715 605 709 c 0,146,147
 611 708 611 708 621 706.5 c 128,-1,148
 631 705 631 705 633 705 c 0,149,150
 643 703 643 703 644 702 c 0,151,152
 644 700 644 700 660 700 c 0,153,154
 674 700 674 700 692 698 c 2,155,-1
 710 696 l 1,156,157
 715 684 715 684 719 680 c 128,-1,158
 723 676 723 676 719 672 c 0,159,160
 718 671 718 671 722 664 c 128,-1,161
 726 657 726 657 719 653 c 128,-1,162
 712 649 712 649 713 643 c 0,163,164
 713 631 713 631 704 598 c 0,165,166
 704 590 704 590 702 586 c 0,167,168
 699 576 699 576 699 534 c 0,169,170
 699 514 699 514 695 505 c 0,171,172
 692 499 692 499 692 496 c 128,-1,173
 692 493 692 493 689.5 486 c 128,-1,174
 687 479 687 479 686 476 c 0,175,176
 684 465 684 465 682 462 c 0,177,178
 672 442 672 442 667 423 c 0,179,180
 665 411 665 411 658 401 c 0,181,182
 645 383 645 383 639 364 c 0,183,184
 639 360 639 360 634.5 355 c 128,-1,185
 630 350 630 350 629 347 c 0,186,187
 627 343 627 343 619 335 c 0,188,189
 616 332 616 332 602 315.5 c 128,-1,190
 588 299 588 299 586 297 c 2,191,-1
 584 294 l 2,192,193
 584 292 584 292 573 281 c 0,194,195
 560 268 560 268 531 245 c 128,-1,196
 502 222 502 222 498 222 c 0,197,198
 497 222 497 222 492 218 c 2,199,-1
 486 215 l 2,200,201
 484 215 484 215 484 214 c 0,202,203
 484 212 484 212 481 212 c 128,-1,204
 478 212 478 212 473 209 c 0,205,206
 471 208 471 208 453 199 c 128,-1,207
 435 190 435 190 433 188 c 128,-1,208
 431 186 431 186 430 186 c 0,209,210
 428 186 428 186 416 180 c 0,211,212
 396 170 396 170 356 160 c 0,213,214
 344 158 344 158 332 158 c 0,215,216
 323 158 323 158 322 159 c 0,217,218
 320 161 320 161 316.5 169 c 128,-1,219
 313 177 313 177 317 182 c 0,220,221
 319 184 319 184 317.5 186.5 c 128,-1,222
 316 189 316 189 312.5 192 c 128,-1,223
 309 195 309 195 309 196 c 0,224,225
 309 200 309 200 307 202 c 0,226,227
 306 205 306 205 310.5 208 c 128,-1,228
 315 211 315 211 320 211 c 0,229,230
 323 211 323 211 333 215 c 0,231,232
 338 218 338 218 351 220.5 c 128,-1,233
 364 223 364 223 367 224 c 0,234,235
 383 231 383 231 390 233 c 0,236,237
 396 234 396 234 418.5 245 c 128,-1,238
 441 256 441 256 443 258 c 0,239,240
 443 260 443 260 447 260 c 128,-1,241
 451 260 451 260 460 265.5 c 128,-1,242
 469 271 469 271 471 274 c 0,243,244
 471 276 471 276 474 276 c 0,245,246
 478 276 478 276 499 293 c 128,-1,247
 520 310 520 310 529 319 c 0,248,249
 531 321 531 321 545 337 c 128,-1,250
 559 353 559 353 564 358 c 0,251,252
 578 374 578 374 578 381 c 0,253,254
 578 389 578 389 588.5 401.5 c 128,-1,255
 599 414 599 414 600 415 c 0,256,257
 600 416 600 416 602.5 419.5 c 128,-1,258
 605 423 605 423 605.5 425 c 128,-1,259
 606 427 606 427 605 430 c 0,260,261
 602 432 602 432 603.5 436 c 128,-1,262
 605 440 605 440 608 444 c 2,263,-1
 610 449 l 2,264,265
 610 451 610 451 612.5 457.5 c 128,-1,266
 615 464 615 464 615 467 c 128,-1,267
 615 470 615 470 617.5 478 c 128,-1,268
 620 486 620 486 620 489 c 0,269,270
 620 504 620 504 630 514 c 0,271,272
 636 520 636 520 636 521 c 0,0,1
57 481 m 128,-1,274
 57 483 57 483 59 483 c 0,275,276
 62 483 62 483 62 480 c 0,277,278
 62 479 62 479 60 479 c 0,279,273
 57 479 57 479 57 481 c 128,-1,274
303 185 m 0,280,281
 304 189 304 189 308 186 c 0,282,283
 311 182 311 182 306 180 c 0,284,285
 301 180 301 180 303 185 c 0,280,281
EndSplineSet
Validated: 1
EndChar

StartChar: z
Encoding: 90 90 44
AltUni2: 00007a.ffffffff.0 00007a.ffffffff.0
Width: 748
GlyphClass: 1
Flags: W
AnchorPoint: "final" 327 44 basechar 0
AnchorPoint: "vowel" 352.85 640.859 basechar 0
LayerCount: 2
Fore
SplineSet
590.026367188 179.399414062 m 2,0,1
 591.630859375 181.6796875 591.630859375 181.6796875 591.630859375 183.959960938 c 0,2,3
 591.630859375 185.099609375 591.630859375 185.099609375 590.026367188 180.540039062 c 0,4,5
 588.422851562 177.120117188 588.422851562 177.120117188 588.422851562 177.120117188 c 1,6,-1
 590.026367188 179.399414062 l 2,0,1
140.961914062 744.83984375 m 0,7,8
 140.849609375 745.859375 140.849609375 745.859375 143.368164062 748.259765625 c 256,9,10
 145.849609375 750.859375 145.849609375 750.859375 144.97265625 751.6796875 c 0,11,12
 144.849609375 758.859375 144.849609375 758.859375 148.1796875 758.51953125 c 0,13,14
 150.849609375 757.859375 150.849609375 757.859375 150.5859375 755.099609375 c 0,15,16
 150.849609375 751.859375 150.849609375 751.859375 148.981445312 751.6796875 c 0,17,18
 145.849609375 749.859375 145.849609375 749.859375 157 738 c 1,19,-1
 157.802734375 722.040039062 l 2,20,21
 159.849609375 688.859375 159.849609375 688.859375 159.405273438 688.979492188 c 0,22,23
 159.849609375 686.859375 159.849609375 686.859375 156.19921875 621.719726562 c 0,24,25
 151.849609375 541.859375 151.849609375 541.859375 152.188476562 460.979492188 c 0,26,27
 151.849609375 359.859375 151.849609375 359.859375 149.783203125 339 c 0,28,29
 145.849609375 299.859375 145.849609375 299.859375 145.7734375 237.540039062 c 0,30,31
 146.015625 200.416992188 146.015625 200.416992188 146.174804688 198.209960938 c 0,32,33
 146.575195312 195.03515625 146.575195312 195.03515625 146.575195312 161.16015625 c 2,34,-1
 146.575195312 124.6796875 l 1,35,-1
 155.396484375 124.6796875 l 2,36,37
 161.969726562 124.862304688 161.969726562 124.862304688 162.61328125 124.6796875 c 2,38,-1
 166.623046875 123.540039062 l 1,39,40
 209.849609375 126.859375 209.849609375 126.859375 233.180664062 130.379882812 c 0,41,42
 236.849609375 130.859375 236.849609375 130.859375 244.407226562 130.950195312 c 0,43,44
 252.849609375 131.859375 252.849609375 131.859375 254.83203125 131.51953125 c 0,45,46
 257.849609375 131.859375 257.849609375 131.859375 262.850585938 131.51953125 c 2,47,-1
 267.663085938 132.66015625 l 1,48,-1
 285.3046875 132.66015625 l 2,49,50
 325.849609375 132.859375 325.849609375 132.859375 335.022460938 128.099609375 c 0,51,52
 344.849609375 123.859375 344.849609375 123.859375 395.966796875 125.819335938 c 0,53,54
 484.849609375 129.859375 484.849609375 129.859375 513.043945312 128.099609375 c 0,55,56
 517.849609375 127.859375 517.849609375 127.859375 525.875 128.669921875 c 0,57,58
 533.849609375 128.859375 533.849609375 128.859375 534.6953125 129.240234375 c 0,59,60
 538.849609375 128.859375 538.849609375 128.859375 544.71875 127.529296875 c 0,61,62
 550.849609375 125.859375 550.849609375 125.859375 556.748046875 122.969726562 c 0,63,64
 562.849609375 119.859375 562.849609375 119.859375 565.166992188 118.979492188 c 1,65,66
 566.849609375 134.859375 566.849609375 134.859375 566.771484375 146.33984375 c 0,67,68
 566.849609375 147.859375 566.849609375 147.859375 567.573242188 153.1796875 c 0,69,70
 567.849609375 158.859375 567.849609375 158.859375 568.375 161.16015625 c 0,71,72
 568.849609375 163.859375 568.849609375 163.859375 570.780273438 201.629882812 c 0,73,74
 572.849609375 239.859375 572.849609375 239.859375 573.98828125 243.240234375 c 0,75,76
 574.849609375 248.859375 574.849609375 248.859375 573.186523438 255.779296875 c 0,77,78
 571.849609375 262.859375 571.849609375 262.859375 572.384765625 277.439453125 c 0,79,80
 575.849609375 314.859375 575.849609375 314.859375 574.790039062 374.33984375 c 0,81,82
 573.849609375 420.859375 573.849609375 420.859375 573.186523438 424.5 c 0,83,84
 572.849609375 425.859375 572.849609375 425.859375 573.586914062 438.1796875 c 0,85,86
 573.849609375 450.859375 573.849609375 450.859375 573.186523438 450.719726562 c 0,87,88
 572.849609375 451.859375 572.849609375 451.859375 573.186523438 461.549804688 c 0,89,90
 573.849609375 470.859375 573.849609375 470.859375 573.186523438 473.51953125 c 2,91,-1
 573.186523438 486.059570312 l 2,92,93
 572.849609375 535.859375 572.849609375 535.859375 573.98828125 541.919921875 c 0,94,95
 574.849609375 549.859375 574.849609375 549.859375 574.790039062 597.779296875 c 0,96,97
 574.849609375 638.859375 574.849609375 638.859375 577.196289062 642.240234375 c 0,98,99
 578.849609375 645.859375 578.849609375 645.859375 578.399414062 647.939453125 c 128,-1,100
 577.849609375 649.859375 577.849609375 649.859375 577.196289062 655.919921875 c 0,101,102
 576.849609375 661.859375 576.849609375 661.859375 576.393554688 666.1796875 c 0,103,104
 576.849609375 672.859375 576.849609375 672.859375 577.196289062 688.979492188 c 0,105,106
 576.849609375 698.859375 576.849609375 698.859375 578.799804688 699.240234375 c 0,107,108
 581.849609375 698.859375 581.849609375 698.859375 582.809570312 701.51953125 c 0,109,110
 583.849609375 703.859375 583.849609375 703.859375 583.611328125 710.639648438 c 256,111,112
 583.849609375 717.859375 583.849609375 717.859375 586.41796875 722.040039062 c 0,113,114
 588.849609375 726.859375 588.849609375 726.859375 589.224609375 730.01953125 c 0,115,116
 588.849609375 738.859375 588.849609375 738.859375 590.828125 739.139648438 c 0,117,118
 592.849609375 739.859375 592.849609375 739.859375 594.036132812 739.139648438 c 256,119,120
 595.849609375 737.859375 595.849609375 737.859375 596.041015625 738.569335938 c 0,121,122
 596.849609375 738.859375 596.849609375 738.859375 596.44140625 742.559570312 c 0,123,124
 596.849609375 747.859375 596.849609375 747.859375 598.84765625 748.259765625 c 0,125,126
 601.849609375 749.859375 601.849609375 749.859375 599.649414062 743.700195312 c 0,127,128
 597.049804688 734.52734375 597.049804688 734.52734375 600.451171875 735.719726562 c 0,129,130
 600.849609375 735.859375 600.849609375 735.859375 603.658203125 743.700195312 c 0,131,132
 604.849609375 746.859375 604.849609375 746.859375 605.262695312 748.259765625 c 1,133,134
 606.866210938 745.979492188 606.866210938 745.979492188 606.866210938 745.979492188 c 1,135,136
 606.849609375 739.859375 606.849609375 739.859375 609.271484375 739.139648438 c 0,137,138
 609.849609375 738.859375 609.849609375 738.859375 610.875976562 740.279296875 c 0,139,140
 612.849609375 742.859375 612.849609375 742.859375 614.884765625 739.139648438 c 0,141,142
 616.849609375 735.859375 616.849609375 735.859375 618.092773438 735.719726562 c 0,143,144
 619.849609375 735.859375 619.849609375 735.859375 619.696289062 730.01953125 c 0,145,146
 619.849609375 725.859375 619.849609375 725.859375 621.30078125 718.620117188 c 0,147,148
 621.849609375 715.859375 621.849609375 715.859375 622.102539062 701.51953125 c 0,149,150
 621.849609375 688.859375 621.849609375 688.859375 620.899414062 650.790039062 c 128,-1,151
 619.849609375 612.859375 619.849609375 612.859375 619.696289062 598.919921875 c 0,152,153
 619.849609375 588.859375 619.849609375 588.859375 619.295898438 577.259765625 c 0,154,155
 618.895507812 569.723632812 618.895507812 569.723632812 618.895507812 557.879882812 c 2,156,-1
 618.895507812 551.040039062 l 2,157,158
 612.849609375 532.859375 612.849609375 532.859375 616.489257812 365.219726562 c 0,159,160
 616.849609375 348.859375 616.849609375 348.859375 616.088867188 331.01953125 c 0,161,162
 615.849609375 312.859375 615.849609375 312.859375 615.6875 300.809570312 c 0,163,164
 615.849609375 288.859375 615.849609375 288.859375 615.6875 286.559570312 c 0,165,166
 615.849609375 281.859375 615.849609375 281.859375 614.083984375 250.080078125 c 0,167,168
 612.84375 216.709960938 612.84375 216.709960938 612.479492188 213.599609375 c 2,169,-1
 611.677734375 206.759765625 l 2,170,171
 610.849609375 199.859375 610.849609375 199.859375 610.875976562 193.080078125 c 0,172,173
 610.849609375 177.859375 610.849609375 177.859375 609.271484375 169.139648438 c 0,174,175
 600.849609375 102.859375 600.849609375 102.859375 606.064453125 98.4599609375 c 0,176,177
 608.849609375 95.859375 608.849609375 95.859375 609.262695312 100.240234375 c 0,178,179
 609.262695312 102.65625 609.262695312 102.65625 607.658203125 88.83984375 c 0,180,181
 606.849609375 80.859375 606.849609375 80.859375 605.252929688 76.2998046875 c 0,182,183
 604.849609375 74.859375 604.849609375 74.859375 603.649414062 72.8798828125 c 0,184,185
 602.849609375 71.859375 602.849609375 71.859375 602.84765625 70.599609375 c 0,186,187
 601.849609375 66.859375 601.849609375 66.859375 600.842773438 68.3193359375 c 0,188,189
 597.849609375 71.859375 597.849609375 71.859375 597.233398438 70.599609375 c 0,190,191
 595.849609375 68.859375 595.849609375 68.859375 593.224609375 67.1796875 c 0,192,193
 589.849609375 63.859375 589.849609375 63.859375 589.21484375 69.4599609375 c 0,194,195
 588.849609375 72.859375 588.849609375 72.859375 582.799804688 69.4599609375 c 0,196,197
 578.849609375 66.859375 578.849609375 66.859375 573.176757812 76.2998046875 c 0,198,199
 567.849609375 85.859375 567.849609375 85.859375 569.166992188 91.1201171875 c 0,200,201
 569.849609375 93.859375 569.849609375 93.859375 569.969726562 97.9599609375 c 0,202,203
 569.849609375 102.859375 569.849609375 102.859375 568.366210938 102.51953125 c 0,204,205
 565.849609375 102.859375 565.849609375 102.859375 563.5546875 97.9599609375 c 0,206,207
 561.849609375 93.859375 561.849609375 93.859375 555.53515625 90.5498046875 c 0,208,209
 548.849609375 87.859375 548.849609375 87.859375 547.515625 86.5595703125 c 0,210,211
 543.849609375 83.859375 543.849609375 83.859375 489.780273438 83.1396484375 c 0,212,213
 477.849609375 82.859375 477.849609375 82.859375 434.849609375 80.859375 c 128,-1,214
 391.849609375 78.859375 391.849609375 78.859375 374.305664062 78.580078125 c 0,215,216
 357.849609375 78.859375 357.849609375 78.859375 331.805664062 83.1396484375 c 0,217,218
 305.849609375 87.859375 305.849609375 87.859375 286.8984375 88.83984375 c 0,219,220
 280.849609375 88.859375 280.849609375 88.859375 269.2578125 89.41015625 c 128,-1,221
 257.849609375 89.859375 257.849609375 89.859375 253.21875 89.9794921875 c 0,222,223
 228.849609375 89.859375 228.849609375 89.859375 207.510742188 86.5595703125 c 0,224,225
 187.849609375 83.859375 187.849609375 83.859375 165.8125 84.279296875 c 0,226,227
 149.849609375 83.859375 149.849609375 83.859375 147.368164062 85.419921875 c 0,228,229
 143.849609375 86.859375 143.849609375 86.859375 137.745117188 86.5595703125 c 0,230,231
 134.849609375 86.859375 134.849609375 86.859375 129.325195312 89.41015625 c 128,-1,232
 123.849609375 91.859375 123.849609375 91.859375 124.11328125 94.5400390625 c 0,233,234
 123.849609375 96.859375 123.849609375 96.859375 120.905273438 99.099609375 c 0,235,236
 104.849609375 108.859375 104.849609375 108.859375 104.876953125 142.919921875 c 0,237,238
 104.849609375 151.859375 104.849609375 151.859375 104.4765625 173.700195312 c 0,239,240
 103.849609375 194.859375 103.849609375 194.859375 104.075195312 206.759765625 c 0,241,242
 103.849609375 257.859375 103.849609375 257.859375 105.678710938 276.299804688 c 0,243,244
 107.849609375 300.859375 107.849609375 300.859375 107.283203125 304.799804688 c 0,245,246
 106.849609375 313.859375 106.849609375 313.859375 108.485351562 321.330078125 c 0,247,248
 109.849609375 328.859375 109.849609375 328.859375 109.688476562 340.139648438 c 0,249,250
 109.849609375 353.859375 109.849609375 353.859375 108.083984375 362.370117188 c 0,251,252
 105.849609375 375.859375 105.849609375 375.859375 106.48046875 376.620117188 c 0,253,254
 106.849609375 377.859375 106.849609375 377.859375 106.881835938 381.75 c 0,255,256
 106.849609375 385.859375 106.849609375 385.859375 107.283203125 388.01953125 c 0,257,258
 107.849609375 405.859375 107.849609375 405.859375 108.083984375 407.399414062 c 2,259,-1
 108.083984375 411.959960938 l 2,260,261
 107.849609375 417.859375 107.849609375 417.859375 107.68359375 426.779296875 c 0,262,263
 106.849609375 435.859375 106.849609375 435.859375 107.283203125 446.16015625 c 0,264,265
 106.849609375 456.859375 106.849609375 456.859375 107.283203125 470.669921875 c 0,266,267
 106.849609375 484.859375 106.849609375 484.859375 107.283203125 497.459960938 c 0,268,269
 106.849609375 514.859375 106.849609375 514.859375 106.881835938 535.080078125 c 0,270,271
 106.849609375 555.859375 106.849609375 555.859375 106.48046875 560.16015625 c 0,272,273
 106.849609375 582.859375 106.849609375 582.859375 108.083984375 587.51953125 c 0,274,275
 110.849609375 594.859375 110.849609375 594.859375 110.490234375 608.040039062 c 0,276,277
 112.849609375 671.859375 112.849609375 671.859375 113.697265625 682.709960938 c 0,278,279
 114.849609375 693.859375 114.849609375 693.859375 118.508789062 695.819335938 c 0,280,281
 119.849609375 696.859375 119.849609375 696.859375 121.716796875 706.649414062 c 0,282,283
 122.849609375 715.859375 122.849609375 715.859375 124.122070312 717.479492188 c 0,284,285
 126.849609375 723.859375 126.849609375 723.859375 126.528320312 725.459960938 c 0,286,287
 126.849609375 731.859375 126.849609375 731.859375 131.33984375 733.439453125 c 0,288,289
 132.849609375 733.859375 132.849609375 733.859375 136.953125 738 c 0,290,291
 140.849609375 742.859375 140.849609375 742.859375 140.961914062 744.83984375 c 0,7,8
131.33984375 751.6796875 m 2,292,293
 133.745117188 755.099609375 133.745117188 755.099609375 135.348632812 750.540039062 c 0,294,295
 135.348632812 747.120117188 135.348632812 747.120117188 133.745117188 747.120117188 c 128,-1,296
 132.140625 747.120117188 132.140625 747.120117188 132.140625 744.83984375 c 0,297,298
 132.140625 741.419921875 132.140625 741.419921875 131.33984375 741.419921875 c 2,299,-1
 130.538085938 748.259765625 l 1,300,-1
 131.33984375 751.6796875 l 2,292,293
121.716796875 741.419921875 m 0,301,302
 121.716796875 744.83984375 121.716796875 744.83984375 122.518554688 745.979492188 c 0,303,304
 124.122070312 747.120117188 124.122070312 747.120117188 124.924804688 743.700195312 c 2,305,-1
 125.7265625 741.419921875 l 2,306,307
 126.528320312 736.859375 126.528320312 736.859375 124.924804688 735.719726562 c 0,308,309
 122.518554688 736.859375 122.518554688 736.859375 121.716796875 741.419921875 c 0,301,302
EndSplineSet
Validated: 524325
EndChar

StartChar: uni02c4
Encoding: 708 708 46
Width: 531
GlyphClass: 1
Flags: W
LayerCount: 2
Fore
SplineSet
224 788 m 0,0,1
 225 788 225 788 228 790.5 c 128,-1,2
 231 793 231 793 234.5 796 c 128,-1,3
 238 799 238 799 239 800 c 2,4,-1
 358 800 l 1,5,6
 360 794 360 794 368 782 c 128,-1,7
 376 770 376 770 377 768 c 0,8,9
 381 761 381 761 393 750 c 128,-1,10
 405 739 405 739 414 734 c 0,11,12
 416 733 416 733 433 728 c 0,13,14
 476 717 476 717 477 714 c 2,15,-1
 477 703 l 2,16,17
 476 692 476 692 474 691 c 0,18,19
 471 690 471 690 471 686 c 0,20,21
 472 683 472 683 468 676.5 c 128,-1,22
 464 670 464 670 461 669 c 0,23,24
 458 669 458 669 452.5 666 c 128,-1,25
 447 663 447 663 439 664 c 0,26,27
 399 666 399 666 364 685 c 0,28,29
 362 686 362 686 358 689 c 128,-1,30
 354 692 354 692 353 692 c 0,31,32
 348 694 348 694 337 708 c 0,33,34
 329 719 329 719 311 746 c 0,35,36
 299 764 299 764 296 764 c 0,37,38
 295 764 295 764 293 762 c 0,39,40
 290 760 290 760 289 759 c 0,41,42
 271 744 271 744 256 737 c 0,43,44
 249 732 249 732 247 732 c 128,-1,45
 245 732 245 732 245 730 c 0,46,47
 242 725 242 725 208 711 c 2,48,-1
 188 703 l 2,49,50
 183 701 183 701 175 697 c 0,51,52
 169 693 169 693 164 693 c 0,53,54
 162 693 162 693 158 691 c 128,-1,55
 154 689 154 689 153 689 c 128,-1,56
 152 689 152 689 142 685 c 0,57,58
 110 671 110 671 83 671 c 0,59,60
 81 671 81 671 78.5 671 c 128,-1,61
 76 671 76 671 74.5 670.5 c 128,-1,62
 73 670 73 670 72 670 c 2,63,-1
 70 670 l 2,64,65
 68 670 68 670 62 673 c 2,66,-1
 57 676 l 2,67,68
 56 676 56 676 55 685 c 0,69,70
 55 686 55 686 54 689 c 2,71,-1
 54 692 l 2,72,73
 54 695 54 695 56 695 c 0,74,75
 62 696 62 696 59 701.5 c 128,-1,76
 56 707 56 707 63 708 c 2,77,-1
 68 709 l 1,78,-1
 68 718 l 2,79,80
 68 727 68 727 70 727 c 2,81,-1
 72 728 l 2,82,83
 74 729 74 729 77 730 c 128,-1,84
 80 731 80 731 82 731 c 0,85,86
 84 732 84 732 101 735 c 0,87,88
 117 739 117 739 131 743.5 c 128,-1,89
 145 748 145 748 152 750 c 2,90,-1
 160 754 l 2,91,92
 163 757 163 757 165 757 c 128,-1,93
 167 757 167 757 176 761.5 c 128,-1,94
 185 766 185 766 195.5 772 c 128,-1,95
 206 778 206 778 209 779 c 0,96,97
 221 785 221 785 224 788 c 0,0,1
EndSplineSet
Validated: 1
EndChar

StartChar: ai
Encoding: 65538 -1 47
Width: 421
Flags: W
AnchorPoint: "vowel" 207 428 mark 0
LayerCount: 2
Fore
SplineSet
207 527 m 0,0,1
 204 527 204 527 201 526.5 c 128,-1,2
 198 526 198 526 197.25 525.75 c 0,3,4
 195 527 195 527 191 526 c 0,5,6
 178 521 178 521 152.5 498.5 c 128,-1,7
 127 476 127 476 124 467 c 1,8,-1
 121 464 l 2,9,10
 116 459 116 459 108 434 c 0,11,12
 106 428 106 428 106 413 c 0,13,14
 106 377 106 377 115 350 c 0,15,16
 120 336 120 336 127 335 c 0,17,18
 131 335 131 335 140 326 c 1,19,-1
 159 325 l 1,20,-1
 177 325 l 2,21,22
 183 324 183 324 190 324 c 2,23,-1
 195 324 l 2,24,25
 211 324 211 324 235 336 c 0,26,27
 249 343 249 343 250 343 c 0,28,29
 252 343 252 343 260.5 348.5 c 128,-1,30
 269 354 269 354 271 355 c 0,31,32
 303 371 303 371 308 409 c 0,33,34
 309 416 309 416 309 429 c 0,35,36
 309 455 309 455 305 467 c 0,37,38
 304 470 304 470 301.5 474 c 128,-1,39
 299 478 299 478 299 479 c 0,40,41
 297 479 297 479 291.162672042 486.660833615 c 0,42,43
 282 498 282 498 282 498 c 0,44,45
 271 510 271 510 258 522 c 0,46,47
 256.631533423 522.336763093 256.631533423 522.336763093 244 519 c 0,48,49
 229 524 229 524 229 524 c 0,50,51
 219 526 219 526 207 527 c 0,0,1
154 561 m 0,52,53
 155 561 155 561 163.5 564.5 c 128,-1,54
 172 568 172 568 174 568 c 128,-1,55
 176 568 176 568 184.5 573 c 128,-1,56
 193 578 193 578 195 578 c 0,57,58
 198 579 198 579 204 579 c 0,59,60
 219 579 219 579 227 575 c 0,61,62
 240 568 240 568 269 568 c 0,63,64
 284 568 284 568 294 563 c 128,-1,65
 304 558 304 558 306 558 c 0,66,67
 307 558 307 558 310.5 554.5 c 128,-1,68
 314 551 314 551 315 551 c 128,-1,69
 316 551 316 551 324 544 c 2,70,-1
 331 538 l 2,71,72
 333 537 333 537 341.5 525 c 128,-1,73
 350 513 350 513 353 506 c 0,74,75
 356 501 356 501 367 459 c 0,76,77
 369 451 369 451 369 429 c 128,-1,78
 369 407 369 407 367 399 c 0,79,80
 367 397 367 397 366 393.5 c 128,-1,81
 365 390 365 390 364.5 387.5 c 128,-1,82
 364 385 364 385 364 384 c 0,83,84
 364 372 364 372 350 343.5 c 128,-1,85
 336 315 336 315 327 311 c 0,86,87
 323 309 323 309 317 303 c 128,-1,88
 311 297 311 297 255 271 c 0,89,90
 239 263 239 263 217 258 c 0,91,92
 205 255 205 255 174 255 c 0,93,94
 156 255 156 255 150 256 c 0,95,96
 116 260 116 260 97 274 c 0,97,98
 91 277 91 277 83.5 284 c 128,-1,99
 76 291 76 291 76 293 c 128,-1,100
 76 295 76 295 71 300 c 0,101,102
 63 308 63 308 58 339 c 0,103,104
 57 348 57 348 55 356.5 c 128,-1,105
 53 365 53 365 52 372 c 0,106,107
 52 375 52 375 51.5 381.5 c 128,-1,108
 51 388 51 388 51 392 c 0,109,110
 51 443 51 443 70 478 c 0,111,112
 72 481 72 481 75.5 487 c 128,-1,113
 79 493 79 493 80 495 c 0,114,115
 89 513 89 513 115 533 c 0,116,117
 152 561 152 561 154 561 c 0,52,53
229 460 m 0,118,119
 236 460 236 460 237.5 458.5 c 128,-1,120
 239 457 239 457 239 449 c 0,121,122
 239 447 239 447 240 442.5 c 128,-1,123
 241 438 241 438 241 435 c 128,-1,124
 241 432 241 432 239 430 c 0,125,126
 236 427 236 427 236 418 c 0,127,128
 236 408 236 408 232 404 c 0,129,130
 224 396 224 396 212 396 c 0,131,132
 209 396 209 396 182 402 c 0,133,134
 176 403 176 403 176 410 c 0,135,136
 176 415 176 415 172 417 c 0,137,138
 162 423 162 423 174 433 c 0,139,140
 179 438 179 438 179 444 c 128,-1,141
 179 450 179 450 185 453 c 128,-1,142
 191 456 191 456 193 458 c 0,143,144
 196 463 196 463 205 466 c 128,-1,145
 214 469 214 469 219 464 c 0,146,147
 223 460 223 460 229 460 c 0,118,119
EndSplineSet
Validated: 524289
LCarets2: 1 0
Ligature2: "'liga' Standard Ligatures in Latin lookup 1-1" a i
EndChar

StartChar: ao
Encoding: 65539 -1 48
Width: 400
Flags: W
AnchorPoint: "vowel" 214 447 mark 0
LayerCount: 2
Fore
SplineSet
130 568 m 0,0,1
 137 574 137 574 150 561 c 0,2,3
 173 538 173 538 173 535 c 2,4,-1
 174 534 l 2,5,6
 175 532 175 532 177 530.5 c 128,-1,7
 179 529 179 529 180 527 c 0,8,9
 208 498 208 498 209 495 c 0,10,11
 210 494 210 494 211.5 493.5 c 128,-1,12
 213 493 213 493 216 495 c 128,-1,13
 219 497 219 497 221 498.5 c 128,-1,14
 223 500 223 500 225 502 c 128,-1,15
 227 504 227 504 228 504 c 0,16,17
 233 507 233 507 233 508 c 0,18,19
 233 510 233 510 239 512 c 0,20,21
 243 514 243 514 248 520.5 c 128,-1,22
 253 527 253 527 256 529 c 0,23,24
 264 535 264 535 279 548.5 c 128,-1,25
 294 562 294 562 301 566 c 0,26,27
 307 570 307 570 316 570 c 128,-1,28
 325 570 325 570 325 563 c 0,29,30
 326 559 326 559 330 558 c 0,31,32
 340 555 340 555 341 544 c 2,33,-1
 341 535 l 1,34,-1
 335 526 l 2,35,36
 322 509 322 509 316 509 c 0,37,38
 314 509 314 509 311 506 c 0,39,40
 301 496 301 496 295 496 c 0,41,42
 292 496 292 496 272 476 c 128,-1,43
 252 456 252 456 252 453 c 0,44,45
 252 447 252 447 261 441 c 0,46,47
 263 439 263 439 263 438 c 0,48,49
 263 436 263 436 270 429 c 128,-1,50
 277 422 277 422 278 420 c 0,51,52
 280 417 280 417 289 408 c 0,53,54
 295 403 295 403 304 388 c 128,-1,55
 313 373 313 373 322 368 c 0,56,57
 324 367 324 367 328 364 c 0,58,59
 330 363 330 363 331.5 362 c 128,-1,60
 333 361 333 361 335 361 c 0,61,62
 336 361 336 361 342 353 c 0,63,64
 345 349 345 349 345.5 346.5 c 128,-1,65
 346 344 346 344 346 342 c 128,-1,66
 346 340 346 340 345 337 c 128,-1,67
 344 334 344 334 344 330 c 0,68,69
 344 325 344 325 341 324 c 0,70,71
 340 324 340 324 335.5 322.5 c 128,-1,72
 331 321 331 321 329 321 c 0,73,74
 317 319 317 319 312 319 c 0,75,76
 297 319 297 319 275 331 c 0,77,78
 266 334 266 334 250 361 c 0,79,80
 247 367 247 367 242 373.5 c 128,-1,81
 237 380 237 380 235 384 c 0,82,83
 231 394 231 394 215 406 c 0,84,85
 212 407 212 407 206 403.5 c 128,-1,86
 200 400 200 400 200 398 c 128,-1,87
 200 396 200 396 194 388 c 0,88,89
 188 381 188 381 175.5 363.5 c 128,-1,90
 163 346 163 346 156 339 c 0,91,92
 151 334 151 334 151 331 c 0,93,94
 151 329 151 329 142 320 c 2,95,-1
 134 311 l 1,96,-1
 121 311 l 2,97,98
 98 311 98 311 98 319 c 0,99,100
 98 322 98 322 101 325 c 0,101,102
 103 327 103 327 103 333 c 0,103,104
 103 337 103 337 101 346 c 128,-1,105
 99 355 99 355 99 357 c 0,106,107
 99 360 99 360 102.5 363.5 c 128,-1,108
 106 367 106 367 111.5 371 c 128,-1,109
 117 375 117 375 118 376 c 0,110,111
 129 387 129 387 129 391 c 0,112,113
 129 393 129 393 139 403 c 0,114,115
 140 404 140 404 144.5 410 c 128,-1,116
 149 416 149 416 153 421.5 c 128,-1,117
 157 427 157 427 158 427 c 128,-1,118
 159 427 159 427 161 430 c 128,-1,119
 163 433 163 433 165.5 436.5 c 128,-1,120
 168 440 168 440 169 441 c 0,121,122
 177 450 177 450 167 460 c 0,123,124
 165 462 165 462 139 491 c 0,125,126
 137 493 137 493 134 496 c 2,127,-1
 132 499 l 2,128,129
 131 499 131 499 131 503 c 0,130,131
 131 506 131 506 122 514 c 0,132,133
 105 528 105 528 109 537 c 0,134,135
 110 541 110 541 108.5 542 c 128,-1,136
 107 543 107 543 101 543 c 0,137,138
 97 543 97 543 97 545 c 0,139,140
 97 546 97 546 99 546 c 128,-1,141
 101 546 101 546 104 547.5 c 128,-1,142
 107 549 107 549 110 548 c 0,143,144
 112 548 112 548 114 548 c 0,145,146
 118 550 118 550 112 551 c 0,147,148
 104 553 104 553 113 561 c 0,149,150
 116 565 116 565 121 565 c 0,151,152
 127 565 127 565 130 568 c 0,0,1
EndSplineSet
Validated: 1
LCarets2: 1 0
Ligature2: "'liga' Standard Ligatures in Latin lookup 1-1" a o
EndChar

StartChar: ei
Encoding: 65540 -1 49
Width: 583
Flags: W
AnchorPoint: "vowel" 287 558 mark 0
LayerCount: 2
Fore
SplineSet
276.344726562 403.15625 m 0,0,1
 275.61328125 403.15625 275.61328125 403.15625 272.688476562 399.073242188 c 128,-1,2
 269.762695312 394.989257812 269.762695312 394.989257812 269.03125 394.989257812 c 128,-1,3
 268.299804688 394.989257812 268.299804688 394.989257812 265.0078125 391.247070312 c 128,-1,4
 261.716796875 387.50390625 261.716796875 387.50390625 258.42578125 383.420898438 c 128,-1,5
 255.134765625 379.337890625 255.134765625 379.337890625 254.403320312 378.657226562 c 0,6,7
 252.208984375 376.616210938 252.208984375 376.616210938 245.626953125 365.727539062 c 128,-1,8
 239.044921875 354.838867188 239.044921875 354.838867188 236.850585938 352.796875 c 0,9,10
 230.999023438 347.353515625 230.999023438 347.353515625 226.24609375 330 c 128,-1,11
 221.491210938 312.646484375 221.491210938 312.646484375 219.296875 308.563476562 c 128,-1,12
 217.103515625 304.48046875 217.103515625 304.48046875 217.103515625 299.716796875 c 0,13,14
 216.372070312 294.272460938 216.372070312 294.272460938 218.56640625 291.55078125 c 0,15,16
 225.879882812 284.745117188 225.879882812 284.745117188 233.193359375 284.745117188 c 0,17,18
 233.924804688 284.745117188 233.924804688 284.745117188 243.432617188 283.043945312 c 128,-1,19
 252.940429688 281.341796875 252.940429688 281.341796875 255.134765625 282.022460938 c 0,20,21
 258.791992188 283.383789062 258.791992188 283.383789062 265.0078125 286.787109375 c 128,-1,22
 271.224609375 290.189453125 271.224609375 290.189453125 271.224609375 290.870117188 c 128,-1,23
 271.224609375 291.55078125 271.224609375 291.55078125 273.418945312 292.231445312 c 0,24,25
 276.344726562 292.911132812 276.344726562 292.911132812 286.94921875 300.397460938 c 128,-1,26
 297.5546875 307.8828125 297.5546875 307.8828125 303.40625 314.0078125 c 0,27,28
 310.719726562 320.813476562 310.719726562 320.813476562 310.719726562 341.228515625 c 0,29,30
 310.719726562 363.685546875 310.719726562 363.685546875 308.525390625 364.366210938 c 0,31,32
 307.793945312 364.366210938 307.793945312 364.366210938 307.793945312 367.768554688 c 0,33,34
 307.793945312 373.212890625 307.793945312 373.212890625 300.48046875 387.1640625 c 128,-1,35
 293.166992188 401.114257812 293.166992188 401.114257812 287.315429688 406.55859375 c 0,36,37
 285.12109375 410.641601562 285.12109375 410.641601562 281.46484375 406.8984375 c 128,-1,38
 277.807617188 403.15625 277.807617188 403.15625 276.344726562 403.15625 c 0,0,1
220.029296875 396.350585938 m 0,39,40
 220.029296875 397.03125 220.029296875 397.03125 225.1484375 403.15625 c 2,41,-1
 230.268554688 408.600585938 l 2,42,43
 230.268554688 409.280273438 230.268554688 409.280273438 252.208984375 431.057617188 c 0,44,45
 257.329101562 435.821289062 257.329101562 435.821289062 257.329101562 437.181640625 c 0,46,47
 257.329101562 439.223632812 257.329101562 439.223632812 249.284179688 448.071289062 c 0,48,49
 244.895507812 452.833984375 244.895507812 452.833984375 238.313476562 458.958984375 c 128,-1,50
 231.73046875 465.083984375 231.73046875 465.083984375 226.611328125 471.208007812 c 0,51,52
 223.685546875 474.611328125 223.685546875 474.611328125 218.200195312 480.0546875 c 128,-1,53
 212.71484375 485.499023438 212.71484375 485.499023438 209.7890625 488.90234375 c 0,54,55
 207.594726562 491.624023438 207.594726562 491.624023438 198.086914062 499.450195312 c 128,-1,56
 188.579101562 507.276367188 188.579101562 507.276367188 180.53515625 513.401367188 c 2,57,-1
 172.489257812 520.206054688 l 2,58,59
 171.7578125 520.88671875 171.7578125 520.88671875 168.833007812 521.908203125 c 128,-1,60
 165.907226562 522.927734375 165.907226562 522.927734375 165.17578125 523.608398438 c 0,61,62
 163.712890625 524.969726562 163.712890625 524.969726562 158.958007812 527.3515625 c 128,-1,63
 154.205078125 529.733398438 154.205078125 529.733398438 153.473632812 530.4140625 c 0,64,65
 152.010742188 531.775390625 152.010742188 531.775390625 145.428710938 533.81640625 c 128,-1,66
 138.845703125 535.858398438 138.845703125 535.858398438 138.115234375 536.538085938 c 0,67,68
 124.94921875 542.663085938 124.94921875 542.663085938 124.21875 544.024414062 c 0,69,70
 122.755859375 546.06640625 122.755859375 546.06640625 120.561523438 546.06640625 c 0,71,72
 113.979492188 546.06640625 113.979492188 546.06640625 113.979492188 554.913085938 c 0,73,74
 113.979492188 556.954101562 113.979492188 556.954101562 115.807617188 559.3359375 c 128,-1,75
 117.635742188 561.71875 117.635742188 561.71875 116.172851562 563.759765625 c 0,76,77
 114.7109375 566.481445312 114.7109375 566.481445312 114.7109375 567.162109375 c 0,78,79
 114.7109375 569.204101562 114.7109375 569.204101562 119.098632812 571.245117188 c 128,-1,80
 123.487304688 573.287109375 123.487304688 573.287109375 128.97265625 575.329101562 c 128,-1,81
 134.45703125 577.370117188 134.45703125 577.370117188 135.920898438 578.05078125 c 0,82,83
 138.845703125 580.091796875 138.845703125 580.091796875 140.30859375 580.091796875 c 256,84,85
 141.771484375 580.091796875 141.771484375 580.091796875 146.525390625 578.05078125 c 128,-1,86
 151.279296875 576.009765625 151.279296875 576.009765625 151.279296875 575.329101562 c 128,-1,87
 151.279296875 574.6484375 151.279296875 574.6484375 161.883789062 568.86328125 c 128,-1,88
 172.489257812 563.079101562 172.489257812 563.079101562 184.556640625 556.954101562 c 128,-1,89
 196.625 550.829101562 196.625 550.829101562 198.819335938 548.788085938 c 0,90,91
 200.28125 547.427734375 200.28125 547.427734375 202.475585938 545.725585938 c 128,-1,92
 204.669921875 544.024414062 204.669921875 544.024414062 206.1328125 543.34375 c 2,93,-1
 207.594726562 541.983398438 l 2,94,95
 209.05859375 541.983398438 209.05859375 541.983398438 227.708007812 527.3515625 c 128,-1,96
 246.358398438 512.720703125 246.358398438 512.720703125 246.358398438 511.359375 c 128,-1,97
 246.358398438 509.998046875 246.358398438 509.998046875 254.403320312 502.512695312 c 0,98,99
 259.522460938 497.749023438 259.522460938 497.749023438 268.299804688 488.221679688 c 128,-1,100
 277.076171875 478.694335938 277.076171875 478.694335938 281.46484375 474.611328125 c 0,101,102
 286.583984375 469.84765625 286.583984375 469.84765625 286.583984375 468.486328125 c 0,103,104
 286.583984375 467.805664062 286.583984375 467.805664062 288.412109375 467.805664062 c 128,-1,105
 290.241210938 467.805664062 290.241210938 467.805664062 292.434570312 469.166992188 c 0,106,107
 293.8984375 469.84765625 293.8984375 469.84765625 305.965820312 480.0546875 c 128,-1,108
 318.033203125 490.263671875 318.033203125 490.263671875 319.49609375 490.944335938 c 128,-1,109
 320.958984375 491.624023438 320.958984375 491.624023438 329.00390625 499.110351562 c 0,110,111
 352.408203125 520.206054688 352.408203125 520.206054688 355.333984375 521.567382812 c 0,112,113
 357.528320312 521.567382812 357.528320312 521.567382812 357.528320312 522.927734375 c 2,114,-1
 361.184570312 525.650390625 l 2,115,116
 365.572265625 529.052734375 365.572265625 529.052734375 369.9609375 532.456054688 c 2,117,-1
 374.349609375 535.858398438 l 2,118,119
 380.200195312 541.983398438 380.200195312 541.983398438 382.39453125 542.663085938 c 0,120,121
 383.857421875 543.34375 383.857421875 543.34375 385.3203125 544.365234375 c 128,-1,122
 386.782226562 545.385742188 386.782226562 545.385742188 387.513671875 546.06640625 c 2,123,-1
 388.9765625 546.747070312 l 2,124,125
 388.9765625 548.107421875 388.9765625 548.107421875 394.461914062 551.850585938 c 128,-1,126
 399.948242188 555.59375 399.948242188 555.59375 405.797851562 558.99609375 c 128,-1,127
 411.649414062 562.3984375 411.649414062 562.3984375 412.380859375 563.079101562 c 0,128,129
 421.888671875 571.92578125 421.888671875 571.92578125 433.590820312 576.689453125 c 0,130,131
 436.516601562 578.05078125 436.516601562 578.05078125 439.442382812 578.05078125 c 0,132,133
 446.024414062 578.05078125 446.024414062 578.05078125 452.241210938 572.606445312 c 128,-1,134
 458.458007812 567.162109375 458.458007812 567.162109375 458.458007812 563.759765625 c 0,135,136
 458.458007812 555.59375 458.458007812 555.59375 451.875976562 550.829101562 c 0,137,138
 438.709960938 540.622070312 438.709960938 540.622070312 430.666015625 533.13671875 c 0,139,140
 429.202148438 531.775390625 429.202148438 531.775390625 426.27734375 529.052734375 c 0,141,142
 424.814453125 527.01171875 424.814453125 527.01171875 424.083007812 526.331054688 c 2,143,-1
 422.620117188 525.650390625 l 2,144,145
 421.158203125 525.650390625 421.158203125 525.650390625 416.038085938 520.88671875 c 0,146,147
 405.797851562 509.998046875 405.797851562 509.998046875 392.633789062 501.151367188 c 128,-1,148
 379.46875 492.3046875 379.46875 492.3046875 369.9609375 483.458007812 c 0,149,150
 361.916015625 475.97265625 361.916015625 475.97265625 355.333984375 471.208007812 c 128,-1,151
 348.750976562 466.444335938 348.750976562 466.444335938 340.706054688 459.639648438 c 0,152,153
 339.243164062 458.278320312 339.243164062 458.278320312 334.124023438 454.53515625 c 128,-1,154
 329.00390625 450.79296875 329.00390625 450.79296875 325.346679688 447.390625 c 128,-1,155
 321.690429688 443.987304688 321.690429688 443.987304688 320.227539062 441.265625 c 0,156,157
 319.49609375 440.584960938 319.49609375 440.584960938 319.49609375 439.223632812 c 0,158,159
 319.49609375 437.181640625 319.49609375 437.181640625 321.32421875 433.780273438 c 128,-1,160
 323.15234375 430.376953125 323.15234375 430.376953125 326.443359375 426.633789062 c 128,-1,161
 329.735351562 422.891601562 329.735351562 422.891601562 330.466796875 421.530273438 c 0,162,163
 348.020507812 390.907226562 348.020507812 390.907226562 350.9453125 380.698242188 c 0,164,165
 355.333984375 366.407226562 355.333984375 366.407226562 356.064453125 358.921875 c 0,166,167
 356.064453125 357.561523438 356.064453125 357.561523438 357.162109375 347.693359375 c 128,-1,168
 358.258789062 337.826171875 358.258789062 337.826171875 358.258789062 333.0625 c 0,169,170
 358.258789062 331.701171875 358.258789062 331.701171875 357.893554688 330.33984375 c 128,-1,171
 357.528320312 328.979492188 357.528320312 328.979492188 357.528320312 328.298828125 c 0,172,173
 356.064453125 322.854492188 356.064453125 322.854492188 356.064453125 318.771484375 c 0,174,175
 355.333984375 314.0078125 355.333984375 314.0078125 351.311523438 307.541992188 c 128,-1,176
 347.288085938 301.077148438 347.288085938 301.077148438 344.362304688 301.077148438 c 0,177,178
 343.631835938 301.077148438 343.631835938 301.077148438 342.168945312 298.35546875 c 128,-1,179
 340.706054688 295.6328125 340.706054688 295.6328125 337.048828125 291.55078125 c 128,-1,180
 333.392578125 287.466796875 333.392578125 287.466796875 331.9296875 287.466796875 c 0,181,182
 329.735351562 287.466796875 329.735351562 287.466796875 329.735351562 285.42578125 c 0,183,184
 329.735351562 284.064453125 329.735351562 284.064453125 324.616210938 280.662109375 c 0,185,186
 315.838867188 275.217773438 315.838867188 275.217773438 309.256835938 269.092773438 c 0,187,188
 307.0625 267.05078125 307.0625 267.05078125 303.40625 265.009765625 c 128,-1,189
 299.749023438 262.96875 299.749023438 262.96875 298.286132812 261.607421875 c 0,190,191
 296.091796875 259.565429688 296.091796875 259.565429688 291.704101562 257.524414062 c 128,-1,192
 287.315429688 255.482421875 287.315429688 255.482421875 284.390625 252.760742188 c 128,-1,193
 281.46484375 250.038085938 281.46484375 250.038085938 279.270507812 250.038085938 c 0,194,195
 277.807617188 250.038085938 277.807617188 250.038085938 267.568359375 245.274414062 c 0,196,197
 255.134765625 239.830078125 255.134765625 239.830078125 249.284179688 240.510742188 c 0,198,199
 236.850585938 240.510742188 236.850585938 240.510742188 217.46875 245.615234375 c 128,-1,200
 198.086914062 250.71875 198.086914062 250.71875 195.162109375 256.163085938 c 0,201,202
 191.504882812 261.607421875 191.504882812 261.607421875 181.997070312 265.009765625 c 0,203,204
 177.609375 266.37109375 177.609375 266.37109375 177.609375 270.454101562 c 0,205,206
 177.609375 272.49609375 177.609375 272.49609375 174.68359375 277.940429688 c 0,207,208
 171.026367188 284.745117188 171.026367188 284.745117188 171.7578125 293.591796875 c 0,209,210
 172.489257812 301.077148438 172.489257812 301.077148438 176.876953125 311.965820312 c 0,211,212
 177.609375 319.452148438 177.609375 319.452148438 181.265625 322.854492188 c 0,213,214
 183.459960938 324.895507812 183.459960938 324.895507812 183.459960938 327.618164062 c 0,215,216
 183.459960938 329.659179688 183.459960938 329.659179688 184.556640625 331.361328125 c 128,-1,217
 185.654296875 333.0625 185.654296875 333.0625 185.654296875 335.103515625 c 2,218,-1
 191.504882812 351.436523438 l 2,219,220
 194.430664062 360.963867188 194.430664062 360.963867188 199.55078125 366.407226562 c 0,221,222
 200.28125 367.087890625 200.28125 367.087890625 202.110351562 370.491210938 c 128,-1,223
 203.938476562 373.893554688 203.938476562 373.893554688 205.766601562 376.616210938 c 128,-1,224
 207.594726562 379.337890625 207.594726562 379.337890625 208.327148438 379.337890625 c 0,225,226
 209.7890625 379.337890625 209.7890625 379.337890625 209.7890625 380.698242188 c 0,227,228
 209.7890625 382.740234375 209.7890625 382.740234375 214.909179688 388.184570312 c 128,-1,229
 220.029296875 393.62890625 220.029296875 393.62890625 220.029296875 396.350585938 c 0,39,40
EndSplineSet
Validated: 524289
EndChar

